# Blender v2.78 (sub 0) OBJ File: 'IntactShip.blend'
# www.blender.org
mtllib Collider.Intact_Wings_L.mtl
o Collider.Intact_Wings_L_Cube.003
v -3.737700 -0.271029 -12.391220
v -3.737700 0.178759 -12.391220
v -0.691375 -0.270055 -12.389782
v -0.693978 0.177278 -12.389027
v -5.414622 -1.360649 -1.721071
v 2.855344 1.228354 -1.719429
v -5.421725 1.133032 -1.721243
v 2.853878 -1.509637 -1.710789
v -3.939986 -0.091114 -12.391220
v -0.531430 -0.090734 -12.393946
v -5.619826 -0.205837 -1.721496
v 2.869340 -0.047019 -2.443954
v -5.348685 1.249345 -2.693123
v 2.261352 -1.317206 -2.694265
v -5.344312 -1.247061 -2.696063
v 2.256918 1.324277 -2.695195
v 2.655785 -0.057943 -2.922397
v -5.548129 -0.241431 -2.692106
v 2.854611 -0.140641 -1.715109
v -4.976143 -0.851867 -6.621619
v 0.159000 -0.893216 -7.442003
v -4.978746 0.815866 -6.619869
v 0.155308 0.859859 -7.442281
v -5.179340 -0.180568 -6.619264
v 0.399697 -0.071220 -7.596420
vn -0.0001 0.0092 -1.0000
vn 0.8420 0.2930 -0.4530
vn -0.0135 -0.9885 -0.1508
vn -0.0107 0.9937 0.1112
vn 0.8204 -0.2963 -0.4891
vn -0.0002 -0.0116 -0.9999
vn 0.8579 0.3065 -0.4124
vn -0.9795 -0.1853 -0.0789
vn -0.0146 -0.9957 -0.0911
vn -0.9880 0.1388 -0.0678
vn 0.9998 -0.0005 0.0201
vn -0.0005 0.0015 1.0000
vn -0.0175 0.9923 -0.1228
vn -0.0010 0.0018 1.0000
vn -0.9666 -0.2342 -0.1043
vn -0.9824 0.1579 -0.0999
vn 0.9010 -0.3904 -0.1889
vn 0.8498 -0.3342 -0.4077
vn -0.9309 0.2961 -0.2141
vn -0.8822 -0.4196 -0.2138
vn -0.0157 0.9949 -0.0998
vn -0.0161 -0.9936 -0.1122
vn 0.9212 0.3382 -0.1927
usemtl None
s off
f 9//1 2//1 4//1 10//1
f 17//2 16//2 6//2 12//2
f 15//3 14//3 8//3 5//3
f 16//4 13//4 7//4 6//4
f 14//5 17//5 12//5 8//5
f 1//6 9//6 10//6 3//6
f 25//7 23//7 16//7 17//7
f 5//8 11//8 18//8 15//8
f 20//9 21//9 14//9 15//9
f 11//10 7//10 13//10 18//10
f 12//11 6//11 19//11
f 11//12 19//12 6//12 7//12
f 22//13 23//13 4//13 2//13
f 19//14 11//14 5//14 8//14
f 19//11 8//11 12//11
f 20//15 15//15 18//15 24//15
f 24//16 18//16 13//16 22//16
f 25//17 21//17 3//17 10//17
f 17//18 14//18 21//18 25//18
f 9//19 24//19 22//19 2//19
f 1//20 20//20 24//20 9//20
f 13//21 16//21 23//21 22//21
f 1//22 3//22 21//22 20//22
f 10//23 4//23 23//23 25//23
