# Blender v2.78 (sub 0) OBJ File: 'IntactShip.blend'
# www.blender.org
mtllib Collider_Fighter_Engines.mtl
o Collider.Intact_Engines_Cube.004
v -7.087031 -1.487601 -0.336416
v -7.087030 1.265939 -0.336416
v -7.087031 -1.095862 -2.306478
v -7.087031 0.874201 -2.306478
v -5.404532 -1.282882 -0.482885
v -5.404532 0.972559 -0.482885
v -5.404532 -0.949392 -2.160009
v -5.404532 0.727732 -2.160009
v -7.082939 -1.480044 -1.321447
v -7.082939 1.258384 -1.321447
v -5.404532 -1.276383 -1.321447
v -5.404532 1.054723 -1.321447
v -7.082939 -0.110830 -2.690660
v -5.404532 -0.110830 -2.487000
v -7.087031 -1.487601 0.336416
v -7.058095 -0.110830 -1.321447
v -7.087030 1.265939 0.336416
v -7.087031 -1.095862 2.306478
v -7.087031 0.874201 2.306478
v -5.404532 -1.282882 0.482885
v -5.404532 0.972559 0.482885
v -5.404532 -0.949392 2.160009
v -5.404532 0.727732 2.160009
v -7.082939 -1.480044 1.321447
v -7.082939 1.258383 1.321447
v -5.404532 -1.276383 1.321447
v -5.404532 1.054723 1.321447
v -7.082939 -0.110830 2.690660
v -5.404532 -0.110830 2.487000
v -7.058095 -0.110830 1.321447
vn -0.9998 -0.0147 0.0147
vn 0.1122 0.3613 -0.9257
vn 0.1203 -0.9927 0.0074
vn 0.1203 -0.9927 -0.0074
vn 0.1479 0.9882 0.0408
vn 0.1122 0.9257 -0.3613
vn 0.1122 -0.9257 -0.3613
vn -0.9999 0.0000 0.0167
vn -0.9999 0.0000 -0.0167
vn 0.1122 0.3613 0.9257
vn 0.1208 -0.9927 0.0000
vn -0.9998 -0.0147 -0.0147
vn 0.1122 -0.3613 -0.9257
vn -0.9998 0.0147 0.0147
vn 0.1479 0.9882 -0.0408
vn 0.1122 0.9257 0.3613
vn 0.1122 -0.9257 0.3613
vn -1.0000 0.0000 0.0000
vn 0.1718 0.9851 0.0000
vn 0.1122 -0.3613 0.9257
vn -0.9998 0.0147 -0.0147
vn 1.0000 0.0000 0.0000
usemtl None
s off
f 16//1 10//1 4//1 13//1
f 13//2 4//2 8//2 14//2
f 24//3 15//3 20//3 26//3
f 9//4 11//4 5//4 1//4
f 12//5 10//5 2//5 6//5
f 8//6 4//6 10//6 12//6
f 3//7 7//7 11//7 9//7
f 17//8 15//8 24//8 30//8 25//8
f 2//9 10//9 16//9 9//9 1//9
f 28//10 29//10 23//10 19//10
f 5//11 20//11 15//11 1//11
f 30//12 28//12 19//12 25//12
f 3//13 13//13 14//13 7//13
f 9//14 16//14 13//14 3//14
f 27//15 21//15 17//15 25//15
f 23//16 27//16 25//16 19//16
f 18//17 24//17 26//17 22//17
f 1//18 15//18 17//18 2//18
f 2//19 17//19 21//19 6//19
f 18//20 22//20 29//20 28//20
f 24//21 18//21 28//21 30//21
f 7//22 8//22 12//22 11//22
f 5//22 6//22 21//22 20//22
f 20//22 21//22 27//22 26//22
f 11//22 12//22 6//22 5//22
f 26//22 27//22 23//22 22//22
f 22//22 23//22 29//22
f 8//22 7//22 14//22
