# Blender v2.78 (sub 0) OBJ File: ''
# www.blender.org
mtllib room.mtl
o Cube
v 0.000000 1.000000 -1.000000
v 1.000000 -0.000000 -1.000000
v 1.000000 1.000000 0.000001
v -1.000000 1.000000 -0.000000
v -1.000000 -0.000000 -1.000000
v -1.000000 -1.000000 -0.000000
v 0.000000 -1.000000 -1.000000
v 1.000000 -1.000000 0.000000
v 1.000000 0.000000 1.000000
v -0.000001 1.000000 1.000000
v -1.000000 0.000000 1.000000
v 0.000000 -1.000000 1.000000
vn 0.5774 -0.5774 0.5774
vn -0.5774 -0.5774 0.5774
vn -0.5774 0.5774 -0.5774
vn 0.0000 -1.0000 0.0000
vn -0.0000 -0.0000 1.0000
vn -0.5774 -0.5774 -0.5774
vn 0.0000 1.0000 0.0000
vn -1.0000 -0.0000 -0.0000
vn 0.5774 0.5774 0.5774
vn -0.5774 0.5774 0.5774
vn 1.0000 0.0000 0.0000
vn 0.5774 0.5774 -0.5774
vn 0.0000 0.0000 -1.0000
vn 0.5774 -0.5774 -0.5774
usemtl Material
s off
f 1//1 4//1 5//1
f 3//2 1//2 2//2
f 9//3 8//3 12//3
f 3//4 10//4 4//4 1//4
f 1//5 5//5 7//5 2//5
f 3//6 9//6 10//6
f 7//7 6//7 12//7 8//7
f 8//8 9//8 3//8 2//8
f 5//9 6//9 7//9
f 7//10 8//10 2//10
f 6//11 5//11 4//11 11//11
f 12//12 6//12 11//12
f 12//13 11//13 10//13 9//13
f 10//14 11//14 4//14
