# This file uses centimeters as units for non-parametric coordinates.

mtllib asteroid.mtl
g default
v -1.032574 -0.806887 0.000000
v 0.000000 -1.234532 0.000000
v 0.000000 -1.044971 1.032574
v 0.000000 0.225688 1.460220
v -1.032574 0.225688 1.032574
v -1.460220 0.225688 0.000000
v 1.032574 -0.806887 0.000000
v 1.037117 0.425349 0.000000
v 0.743910 0.225688 1.032574
v -1.032574 1.258262 0.000000
v 0.000000 1.258262 1.032574
v 0.000000 1.514525 0.000000
v 0.760957 1.046567 0.000000
v -1.032574 0.225688 -1.032574
v 0.000000 1.258262 -1.032574
v 0.000000 0.225688 -1.573456
v 1.032574 0.225688 -1.032574
v 0.000000 -0.806887 -1.032574
v -0.842824 -0.617136 0.842824
v 0.842824 -0.617136 0.842824
v -0.842824 1.068512 0.842824
v 0.842824 1.068512 0.842824
v -0.842824 1.068512 -0.842824
v 0.518780 1.068512 -0.842824
v -0.842824 -0.617136 -0.842824
v 0.842824 -0.617136 -0.842824
vt 0.331370 0.166732
vt 0.166630 0.166732
vt 0.301097 0.032265
vt 0.166630 0.001992
vt 0.338705 0.166732
vt 0.503445 0.166732
vt 0.368978 0.301199
vt 0.503445 0.331472
vt 0.782399 0.335260
vt 0.782399 0.500000
vt 0.647932 0.365533
vt 0.617659 0.500000
vt 0.637912 0.301199
vt 0.668185 0.166732
vt 0.447096 0.335260
vt 0.447096 0.500000
vt 0.312630 0.365533
vt 0.282356 0.500000
vt 0.947139 0.500000
vt 0.916866 0.365533
vt 0.166630 0.668528
vt 0.166630 0.833268
vt 0.032164 0.698801
vt 0.001891 0.833268
vt 0.166630 0.331472
vt 0.301097 0.301199
vt 0.647932 0.634467
vt 0.782399 0.664740
vt 0.312630 0.634467
vt 0.447096 0.664740
vt 0.331370 0.833268
vt 0.301097 0.698801
vt 0.916866 0.634467
vt 0.503445 0.668528
vt 0.503445 0.833268
vt 0.368978 0.698801
vt 0.338705 0.833268
vt 0.001890 0.166732
vt 0.032164 0.301199
vt 0.032164 0.967735
vt 0.166630 0.998008
vt 0.581563 0.634467
vt 0.611836 0.500000
vt 0.668185 0.833268
vt 0.637912 0.698801
vt 0.301097 0.967735
vt 0.503445 0.001992
vt 0.368978 0.032265
vt 0.032164 0.032265
vt 0.368978 0.967735
vt 0.503445 0.998008
vt 0.581563 0.365533
vt 0.637912 0.032265
vt 0.637912 0.967735
vn -0.673780 -0.303382 0.673780
vn -0.887951 -0.325225 0.325225
vn -0.577350 -0.577350 0.577350
vn -0.577350 -0.577350 0.577350
vn -0.887951 -0.325225 0.325225
vn -0.673780 -0.673780 0.303382
vn -0.673780 -0.673780 0.303382
vn -0.325225 -0.887951 0.325225
vn -0.577350 -0.577350 0.577350
vn -0.577350 -0.577350 0.577350
vn -0.325225 -0.887951 0.325225
vn -0.303382 -0.673780 0.673780
vn -0.303382 -0.673780 0.673780
vn -0.325225 -0.325225 0.887951
vn -0.577350 -0.577350 0.577350
vn -0.577350 -0.577350 0.577350
vn -0.325225 -0.325225 0.887951
vn -0.673780 -0.303382 0.673780
vn 0.303382 -0.673780 0.673780
vn 0.325225 -0.887951 0.325225
vn 0.577350 -0.577350 0.577350
vn 0.577350 -0.577350 0.577350
vn 0.325225 -0.887951 0.325225
vn 0.673780 -0.673780 0.303382
vn 0.673780 -0.673780 0.303382
vn 0.887951 -0.325225 0.325225
vn 0.577350 -0.577350 0.577350
vn 0.577350 -0.577350 0.577350
vn 0.887951 -0.325225 0.325225
vn 0.673780 -0.303382 0.673780
vn 0.673780 -0.303382 0.673780
vn 0.325225 -0.325225 0.887951
vn 0.577350 -0.577350 0.577350
vn 0.577350 -0.577350 0.577350
vn 0.325225 -0.325225 0.887951
vn 0.303382 -0.673780 0.673780
vn -0.303382 0.673780 0.673780
vn -0.325225 0.887951 0.325225
vn -0.577350 0.577350 0.577350
vn -0.577350 0.577350 0.577350
vn -0.325225 0.887951 0.325225
vn -0.673780 0.673780 0.303382
vn -0.673780 0.673780 0.303382
vn -0.887951 0.325225 0.325225
vn -0.577350 0.577350 0.577350
vn -0.577350 0.577350 0.577350
vn -0.887951 0.325225 0.325225
vn -0.673780 0.303382 0.673780
vn -0.673780 0.303382 0.673780
vn -0.325225 0.325225 0.887951
vn -0.577350 0.577350 0.577350
vn -0.577350 0.577350 0.577350
vn -0.325225 0.325225 0.887951
vn -0.303382 0.673780 0.673780
vn 0.673780 0.303382 0.673780
vn 0.887951 0.325225 0.325225
vn 0.577350 0.577350 0.577350
vn 0.577350 0.577350 0.577350
vn 0.887951 0.325225 0.325225
vn 0.673780 0.673780 0.303382
vn 0.673780 0.673780 0.303382
vn 0.325225 0.887951 0.325225
vn 0.577350 0.577350 0.577350
vn 0.577350 0.577350 0.577350
vn 0.325225 0.887951 0.325225
vn 0.303382 0.673780 0.673780
vn 0.303382 0.673780 0.673780
vn 0.325225 0.325225 0.887951
vn 0.577350 0.577350 0.577350
vn 0.577350 0.577350 0.577350
vn 0.325225 0.325225 0.887951
vn 0.673780 0.303382 0.673780
vn -0.303382 0.673780 -0.673780
vn -0.325225 0.325225 -0.887951
vn -0.577350 0.577350 -0.577350
vn -0.577350 0.577350 -0.577350
vn -0.325225 0.325225 -0.887951
vn -0.673780 0.303382 -0.673780
vn -0.673780 0.303382 -0.673780
vn -0.887951 0.325225 -0.325225
vn -0.577350 0.577350 -0.577350
vn -0.577350 0.577350 -0.577350
vn -0.887951 0.325225 -0.325225
vn -0.673780 0.673780 -0.303382
vn -0.673780 0.673780 -0.303382
vn -0.325225 0.887951 -0.325225
vn -0.577350 0.577350 -0.577350
vn -0.577350 0.577350 -0.577350
vn -0.325225 0.887951 -0.325225
vn -0.303382 0.673780 -0.673780
vn 0.673780 0.673780 -0.303382
vn 0.887951 0.325225 -0.325225
vn 0.577350 0.577350 -0.577350
vn 0.577350 0.577350 -0.577350
vn 0.887951 0.325225 -0.325225
vn 0.673780 0.303382 -0.673780
vn 0.673780 0.303382 -0.673780
vn 0.325225 0.325225 -0.887951
vn 0.577350 0.577350 -0.577350
vn 0.577350 0.577350 -0.577350
vn 0.325225 0.325225 -0.887951
vn 0.303382 0.673780 -0.673780
vn 0.303382 0.673780 -0.673780
vn 0.325225 0.887951 -0.325225
vn 0.577350 0.577350 -0.577350
vn 0.577350 0.577350 -0.577350
vn 0.325225 0.887951 -0.325225
vn 0.673780 0.673780 -0.303382
vn -0.303382 -0.673780 -0.673780
vn -0.325225 -0.887951 -0.325225
vn -0.577350 -0.577350 -0.577350
vn -0.577350 -0.577350 -0.577350
vn -0.325225 -0.887951 -0.325225
vn -0.673780 -0.673780 -0.303382
vn -0.673780 -0.673780 -0.303382
vn -0.887951 -0.325225 -0.325225
vn -0.577350 -0.577350 -0.577350
vn -0.577350 -0.577350 -0.577350
vn -0.887951 -0.325225 -0.325225
vn -0.673780 -0.303382 -0.673780
vn -0.673780 -0.303382 -0.673780
vn -0.325225 -0.325225 -0.887951
vn -0.577350 -0.577350 -0.577350
vn -0.577350 -0.577350 -0.577350
vn -0.325225 -0.325225 -0.887951
vn -0.303382 -0.673780 -0.673780
vn 0.673780 -0.303382 -0.673780
vn 0.887951 -0.325225 -0.325225
vn 0.577350 -0.577350 -0.577350
vn 0.577350 -0.577350 -0.577350
vn 0.887951 -0.325225 -0.325225
vn 0.673780 -0.673780 -0.303382
vn 0.673780 -0.673780 -0.303382
vn 0.325225 -0.887951 -0.325225
vn 0.577350 -0.577350 -0.577350
vn 0.577350 -0.577350 -0.577350
vn 0.325225 -0.887951 -0.325225
vn 0.303382 -0.673780 -0.673780
vn 0.303382 -0.673780 -0.673780
vn 0.325225 -0.325225 -0.887951
vn 0.577350 -0.577350 -0.577350
vn 0.577350 -0.577350 -0.577350
vn 0.325225 -0.325225 -0.887951
vn 0.673780 -0.303382 -0.673780
s off
g initialShadingGroup pCube1
f 5/1/1 6/2/2 19/3/3
f 19/3/4 6/2/5 1/4/6
f 1/5/7 2/6/8 19/7/9
f 19/7/10 2/6/11 3/8/12
f 3/9/13 4/10/14 19/11/15
f 19/11/16 4/10/17 5/12/18
f 3/8/19 2/6/20 20/13/21
f 20/13/22 2/6/23 7/14/24
f 7/15/25 8/16/26 20/17/27
f 20/17/28 8/16/29 9/18/30
f 9/19/31 4/10/32 20/20/33
f 20/20/34 4/10/35 3/9/36
f 11/21/37 12/22/38 21/23/39
f 21/23/40 12/22/41 10/24/42
f 10/25/43 6/2/44 21/26/45
f 21/26/46 6/2/47 5/1/48
f 5/12/49 4/10/50 21/27/51
f 21/27/52 4/10/53 11/28/54
f 9/18/55 8/16/56 22/29/57
f 22/29/58 8/16/59 13/30/60
f 13/31/61 12/22/62 22/32/63
f 22/32/64 12/22/65 11/21/66
f 11/28/67 4/10/68 22/33/69
f 22/33/70 4/10/71 9/19/72
f 15/34/73 16/35/74 23/36/75
f 23/36/76 16/35/77 14/37/78
f 14/38/79 6/2/80 23/39/81
f 23/39/82 6/2/83 10/25/84
f 10/24/85 12/22/86 23/40/87
f 23/40/88 12/22/89 15/41/90
f 13/30/91 8/16/92 24/42/93
f 24/42/94 8/16/95 17/43/96
f 17/44/97 16/35/98 24/45/99
f 24/45/100 16/35/101 15/34/102
f 15/41/103 12/22/104 24/46/105
f 24/46/106 12/22/107 13/31/108
f 18/47/109 2/6/110 25/48/111
f 25/48/112 2/6/113 1/5/114
f 1/4/115 6/2/116 25/49/117
f 25/49/118 6/2/119 14/38/120
f 14/37/121 16/35/122 25/50/123
f 25/50/124 16/35/125 18/51/126
f 17/43/127 8/16/128 26/52/129
f 26/52/130 8/16/131 7/15/132
f 7/14/133 2/6/134 26/53/135
f 26/53/136 2/6/137 18/47/138
f 18/51/139 16/35/140 26/54/141
f 26/54/142 16/35/143 17/44/144
