# This file uses centimeters as units for non-parametric coordinates.

mtllib betterMeteor.mtl
g default
v -1.075751 -0.710741 0.215309
v -0.214833 -0.619751 0.080019
v -0.214833 -0.598380 0.455048
v -0.247137 -0.423021 0.822371
v -0.713707 -0.224777 0.923719
v -1.260282 -0.461996 0.479975
v 0.734412 -0.824384 0.479975
v 1.138322 -0.710741 0.215309
v 1.138322 0.166818 0.757502
v 0.734412 -0.461996 0.884294
v 0.309708 -0.618275 0.676812
v 0.342013 -0.814447 -0.019765
v -0.676818 0.676917 -0.007394
v -1.038862 0.453175 0.076019
v -1.317661 0.166818 0.508742
v -1.075751 -0.224777 0.757502
v -0.279442 0.040896 0.678458
v -0.279442 0.360650 0.600607
v -0.613681 0.631040 0.733244
v 0.937308 0.652783 0.215309
v 0.538376 0.824479 0.031640
v 0.734412 0.766426 0.479975
v 0.342013 0.040896 1.068513
v 0.795939 0.175161 0.982646
v 1.428290 0.144101 0.468544
v -1.112640 -0.032790 -0.624497
v -1.354550 -0.060155 -0.489682
v -1.075751 0.652783 -0.221595
v -0.247137 0.752076 -0.180609
v -0.247137 0.575799 -0.655421
v -0.214833 0.170121 -0.630330
v 1.465179 0.166818 -0.221595
v 1.175210 0.366426 -0.624497
v 0.813167 0.393792 -0.904658
v 0.277403 0.774564 -0.633225
v 0.937308 0.652783 -0.221595
v -0.713707 -0.859720 -0.221595
v -1.075751 -0.710741 -0.221595
v -1.260282 -0.461996 -0.486261
v -1.075751 -0.224777 -0.763788
v -0.713707 -0.224777 -0.930005
v -0.247137 -0.192703 -0.852095
v -0.613681 -0.688998 -0.739530
v 1.138322 -0.710741 -0.221595
v 0.734412 -0.824384 -0.486261
v 0.309708 -0.423021 -0.800981
v 0.734412 -0.461996 -0.890580
v 1.138322 -0.224777 -0.763788
v 1.380232 -0.487778 -0.221595
v -1.040446 -0.688998 0.440014
v -0.671841 -0.824384 0.479975
v -0.613681 -0.688998 0.733244
v -0.930723 -0.621427 0.657854
v 1.103016 -0.688998 0.440014
v 1.322853 -0.461996 0.479975
v 0.676252 -0.688998 0.733244
v 0.993294 -0.621427 0.657854
v -0.671841 0.766426 0.479975
v -1.040446 0.631040 0.440014
v -0.671841 0.404038 0.884294
v 1.103016 0.631040 0.440014
v -0.671841 0.404038 -0.890580
v -1.040446 0.368221 -0.739530
v -1.040446 0.631040 -0.446300
v -0.613681 0.631040 -0.739530
v -0.930723 0.563469 -0.664139
v 1.014780 0.487366 -0.655837
v 0.902003 0.631040 -0.446300
v 0.952246 0.563469 -0.585061
v -1.040446 -0.688998 -0.446300
v -1.040446 -0.426179 -0.739530
v -0.930723 -0.621427 -0.664139
v 1.380232 -0.224777 -0.515028
v 1.103016 -0.688998 -0.446300
v 1.103016 -0.426179 -0.739530
v 0.993294 -0.621427 -0.664139
vt 0.375000 0.914673
vt 0.423423 0.841020
vt 0.375000 0.835327
vt 0.289673 -0.000000
vt 0.210327 -0.000000
vt 0.172912 0.048018
vt 0.327057 0.050282
vt 0.466147 0.048579
vt 0.576921 0.050310
vt 0.460327 -0.000000
vt 0.539673 -0.000000
vt 0.472284 0.902716
vt 0.460327 1.000000
vt 0.539673 1.000000
vt 0.527716 0.902716
vt 0.327415 0.156900
vt 0.423028 0.093060
vt 0.375195 0.091305
vt 0.472284 0.152716
vt 0.783979 0.047925
vt 0.710327 -0.000000
vt 0.789673 -0.000000
vt 0.625000 0.914673
vt 0.577056 0.952016
vt 0.625000 0.835327
vt 0.527716 0.152716
vt 0.576346 0.156819
vt 0.624466 0.158612
vt 0.722284 0.152716
vt 0.172846 0.158862
vt 0.289673 0.250000
vt 0.210327 0.250000
vt 0.375000 0.335327
vt 0.423542 0.340953
vt 0.375000 0.414673
vt 0.427723 0.249241
vt 0.574674 0.297645
vt 0.468136 0.201118
vt 0.576461 0.408966
vt 0.625000 0.335327
vt 0.625000 0.414673
vt 0.710327 0.250000
vt 0.789673 0.250000
vt 0.125000 0.164673
vt 0.125000 0.085327
vt 0.375000 0.585327
vt 0.375000 0.664673
vt 0.423582 0.658872
vt 0.472284 0.597284
vt 0.576418 0.591128
vt 0.466330 0.500002
vt 0.533670 0.499996
vt 0.472284 0.402716
vt 0.574680 0.702007
vt 0.531844 0.702152
vt 0.625000 0.585327
vt 0.625000 0.664673
vt 0.777716 0.152716
vt 0.875000 0.164673
vt 0.875000 0.085327
vt 0.427666 0.750039
vt 0.574721 0.797902
vt 0.472284 0.652716
vt 0.330954 -0.000000
vt 0.375000 0.955954
vt 0.423018 0.952089
vt 0.419046 1.000000
vt 0.419046 0.000000
vt 0.375000 0.000000
vt 0.375000 1.000000
vt 0.625000 0.955954
vt 0.669046 -0.000000
vt 0.672850 0.050273
vt 0.580954 -0.000000
vt 0.580954 1.000000
vt 0.625000 1.000000
vt 0.625000 0.000000
vt 0.425335 0.297731
vt 0.375000 0.294046
vt 0.330954 0.250000
vt 0.425512 0.199410
vt 0.669046 0.250000
vt 0.425322 0.547993
vt 0.375000 0.544046
vt 0.125000 0.205954
vt 0.169046 0.250000
vt 0.375000 0.455954
vt 0.427675 0.500038
vt 0.375000 0.500000
vt 0.125000 0.250000
vt 0.875000 0.205954
vt 0.625000 0.544046
vt 0.625000 0.455954
vt 0.830954 0.250000
vt 0.875000 0.250000
vt 0.625000 0.500000
vt 0.375000 0.794046
vt 0.169046 -0.000000
vt 0.125000 0.044046
vt 0.375000 0.705954
vt 0.375000 0.750000
vt 0.125000 0.000000
vt 0.827154 0.091138
vt 0.830954 -0.000000
vt 0.625000 0.794046
vt 0.625000 0.705954
vt 0.875000 0.044046
vt 0.875000 0.000000
vt 0.625000 0.750000
vn -0.090327 -0.942226 0.322571
vn 0.031713 -0.999495 -0.002232
vn 0.024053 -0.970619 0.239416
vn 0.031713 -0.999495 -0.002232
vn -0.450233 -0.888604 0.087598
vn -0.103911 -0.962768 0.249562
vn -0.228958 -0.972440 0.044033
vn -0.829671 -0.552247 0.081668
vn -0.450233 -0.888604 0.087598
vn -0.450233 -0.888604 0.087598
vn -0.829671 -0.552247 0.081668
vn -0.829671 -0.552247 -0.081668
vn -0.829671 -0.552247 -0.081668
vn -0.986710 -0.121001 0.108452
vn -0.987332 -0.137242 -0.079628
vn 0.042680 0.302926 0.952058
vn 0.091700 -0.597174 0.796853
vn -0.199457 -0.332814 0.921657
vn 0.087153 -0.926505 0.366051
vn -0.189724 -0.771934 0.606732
vn 0.091700 -0.597174 0.796853
vn 0.091700 -0.597174 0.796853
vn -0.189724 -0.771934 0.606732
vn -0.070054 -0.405328 0.911483
vn -0.092697 -0.995187 -0.031777
vn -0.222057 -0.940381 0.257631
vn 0.087153 -0.926505 0.366051
vn 0.087153 -0.926505 0.366051
vn -0.222057 -0.940381 0.257631
vn -0.189724 -0.771934 0.606732
vn -0.092697 -0.995187 -0.031777
vn -0.165981 -0.980494 0.105274
vn -0.222057 -0.940381 0.257631
vn -0.870121 -0.107621 0.480944
vn -0.474880 0.041762 0.879059
vn -0.864490 0.120950 0.487881
vn -0.027020 0.138435 0.990003
vn 0.042680 0.302926 0.952058
vn -0.056570 0.202561 0.977634
vn 0.592808 -0.803866 0.048770
vn 0.534994 -0.843470 -0.048382
vn 0.889449 -0.450283 0.078263
vn 0.592808 -0.803866 0.048770
vn 0.080941 -0.993896 0.074956
vn 0.534994 -0.843470 -0.048382
vn 0.534994 -0.843470 -0.048382
vn 0.080941 -0.993896 0.074956
vn 0.127184 -0.989570 -0.067644
vn 0.080941 -0.993896 0.074956
vn -0.165981 -0.980494 0.105274
vn 0.127184 -0.989570 -0.067644
vn -0.211671 -0.109894 0.971143
vn 0.271119 -0.197956 0.941970
vn 0.313861 0.231492 0.920816
vn 0.271119 -0.197956 0.941970
vn 0.677859 -0.096687 0.728807
vn 0.313861 0.231492 0.920816
vn -0.985605 0.154021 -0.069713
vn -0.716200 0.697414 0.025905
vn -0.791107 0.586758 0.172814
vn -0.716200 0.697414 0.025905
vn -0.623910 0.777889 0.074995
vn -0.791107 0.586758 0.172814
vn -0.623910 0.777889 0.074995
vn -0.268775 0.958884 0.091111
vn -0.496201 0.828323 0.260126
vn -0.081414 0.996053 0.035362
vn -0.137925 0.990374 -0.011701
vn -0.268775 0.958884 0.091111
vn -0.041919 0.953270 0.299199
vn 0.071563 0.938226 0.338542
vn -0.045157 0.841764 0.537954
vn -0.045157 0.841764 0.537954
vn 0.088219 0.401886 0.911430
vn -0.112007 0.649731 0.751867
vn 0.067519 0.173057 0.982595
vn -0.056570 0.202561 0.977634
vn -0.251954 0.605160 0.755182
vn 0.291422 0.956388 0.019897
vn 0.508832 0.856655 -0.085043
vn 0.487289 0.870216 -0.072623
vn 0.932349 0.347962 0.098228
vn 0.934572 0.351632 -0.054140
vn 0.720586 0.690850 -0.059012
vn 0.720586 0.690850 -0.059012
vn 0.934572 0.351632 -0.054140
vn 0.652234 0.756437 -0.048919
vn -0.832159 -0.119148 -0.541586
vn -0.460623 0.125891 -0.878623
vn -0.513675 0.214313 -0.830788
vn -0.513675 0.214313 -0.830788
vn -0.054277 0.100536 -0.993452
vn -0.092152 0.297897 -0.950140
vn -0.074413 0.067958 -0.994909
vn -0.023549 0.231616 -0.972522
vn -0.054277 0.100536 -0.993452
vn -0.054277 0.100536 -0.993452
vn -0.023549 0.231616 -0.972522
vn -0.092152 0.297897 -0.950140
vn 0.103349 -0.079229 -0.991485
vn -0.168418 0.263382 -0.949876
vn -0.074413 0.067958 -0.994909
vn 0.103349 -0.079229 -0.991485
vn -0.000137 0.668909 -0.743344
vn -0.168418 0.263382 -0.949876
vn -0.168418 0.263382 -0.949876
vn -0.000137 0.668909 -0.743344
vn -0.095539 0.735062 -0.671235
vn -0.000137 0.668909 -0.743344
vn -0.091147 0.938897 -0.331912
vn -0.095539 0.735062 -0.671235
vn -0.018864 0.990838 -0.133729
vn -0.137925 0.990374 -0.011701
vn -0.080073 0.981943 0.171395
vn -0.199492 0.164496 -0.965994
vn 0.134701 -0.042511 -0.989974
vn -0.079291 -0.086000 -0.993135
vn 0.703334 0.263639 -0.660164
vn 0.578552 0.014379 -0.815518
vn 0.306851 0.166653 -0.937053
vn 0.306851 0.166653 -0.937053
vn 0.578552 0.014379 -0.815518
vn 0.134701 -0.042511 -0.989974
vn 0.841204 0.405107 -0.358141
vn 0.832044 0.001314 -0.554708
vn 0.703334 0.263639 -0.660164
vn 0.703334 0.263639 -0.660164
vn 0.832044 0.001314 -0.554708
vn 0.578552 0.014379 -0.815518
vn 0.832044 0.001314 -0.554708
vn 0.934572 0.351632 -0.054140
vn 0.989664 -0.136332 -0.044481
vn 0.024053 -0.970619 0.239416
vn 0.092324 -0.941341 -0.324581
vn -0.066054 -0.986594 -0.149225
vn -0.066054 -0.986594 -0.149225
vn 0.092324 -0.941341 -0.324581
vn -0.092324 -0.941341 -0.324582
vn -0.092324 -0.941341 -0.324582
vn 0.120533 -0.739659 -0.662100
vn -0.120533 -0.739659 -0.662100
vn 0.120533 -0.739659 -0.662100
vn 0.103421 -0.393146 -0.913641
vn -0.120533 -0.739659 -0.662100
vn 0.042680 0.302926 0.952058
vn -0.199457 -0.332814 0.921657
vn -0.056570 0.202561 0.977634
vn -0.056570 0.202561 0.977634
vn -0.199457 -0.332814 0.921657
vn -0.211671 -0.109894 0.971143
vn -0.074413 0.067958 -0.994909
vn -0.199492 0.164496 -0.965994
vn -0.023549 0.231616 -0.972522
vn -0.023549 0.231616 -0.972522
vn -0.199492 0.164496 -0.965994
vn -0.079291 -0.086000 -0.993135
vn 0.024053 -0.970619 0.239416
vn -0.165981 -0.980494 0.105274
vn -0.090327 -0.942226 0.322571
vn 0.984987 -0.117971 0.126029
vn 0.934572 0.351632 -0.054140
vn 0.932349 0.347962 0.098228
vn -0.985605 0.154021 -0.069713
vn -0.986710 -0.121001 0.108452
vn -0.958890 0.260390 0.112811
vn -0.414734 -0.903061 0.111697
vn -0.829671 -0.552247 0.081668
vn -0.228958 -0.972440 0.044033
vn -0.414734 -0.903061 0.111697
vn 0.031713 -0.999495 -0.002232
vn 0.039831 -0.998552 -0.036156
vn 0.031713 -0.999495 -0.002232
vn -0.092697 -0.995187 -0.031777
vn 0.039831 -0.998552 -0.036156
vn -0.092697 -0.995187 -0.031777
vn 0.087153 -0.926505 0.366051
vn 0.039831 -0.998552 -0.036156
vn 0.039831 -0.998552 -0.036156
vn 0.087153 -0.926505 0.366051
vn 0.163741 -0.796179 0.582484
vn 0.087153 -0.926505 0.366051
vn 0.091700 -0.597174 0.796853
vn 0.163741 -0.796179 0.582484
vn 0.091700 -0.597174 0.796853
vn -0.121430 0.181470 0.975871
vn -0.077356 -0.373661 0.924334
vn -0.077356 -0.373661 0.924334
vn -0.121430 0.181470 0.975871
vn -0.527674 -0.363014 0.767972
vn -0.527674 -0.363014 0.767972
vn -0.765480 -0.479162 0.429470
vn -0.416853 -0.676881 0.606684
vn -0.416853 -0.676881 0.606684
vn -0.765480 -0.479162 0.429470
vn -0.414734 -0.903061 0.111697
vn -0.414734 -0.903061 0.111697
vn 0.039831 -0.998552 -0.036156
vn -0.416853 -0.676881 0.606684
vn -0.416853 -0.676881 0.606684
vn 0.039831 -0.998552 -0.036156
vn 0.163741 -0.796179 0.582484
vn -0.416853 -0.676881 0.606684
vn -0.077356 -0.373661 0.924334
vn -0.527674 -0.363014 0.767972
vn 0.498772 -0.810820 0.306263
vn 0.080941 -0.993896 0.074956
vn 0.592808 -0.803866 0.048770
vn 0.498772 -0.810820 0.306263
vn 0.592808 -0.803866 0.048770
vn 0.891497 -0.273182 0.361393
vn 0.891497 -0.273182 0.361393
vn 0.592808 -0.803866 0.048770
vn 0.889449 -0.450283 0.078263
vn 0.891497 -0.273182 0.361393
vn 0.984987 -0.117971 0.126029
vn 0.904814 -0.140455 0.401975
vn 0.904814 -0.140455 0.401975
vn 0.677859 -0.096687 0.728807
vn 0.891497 -0.273182 0.361393
vn 0.677859 -0.096687 0.728807
vn 0.271119 -0.197956 0.941970
vn 0.599197 -0.202862 0.774474
vn 0.078079 -0.377770 0.922601
vn -0.189724 -0.771934 0.606732
vn -0.000980 -0.740422 0.672142
vn -0.189724 -0.771934 0.606732
vn -0.222057 -0.940381 0.257631
vn -0.000980 -0.740422 0.672142
vn -0.000980 -0.740422 0.672142
vn 0.056442 -0.952310 0.299866
vn 0.416853 -0.676881 0.606684
vn 0.416853 -0.676881 0.606684
vn 0.056442 -0.952310 0.299866
vn 0.498772 -0.810820 0.306263
vn 0.498772 -0.810820 0.306263
vn 0.891497 -0.273182 0.361393
vn 0.416853 -0.676881 0.606684
vn 0.599197 -0.202862 0.774474
vn 0.078079 -0.377770 0.922601
vn 0.416853 -0.676881 0.606684
vn 0.416853 -0.676881 0.606684
vn 0.078079 -0.377770 0.922601
vn -0.000980 -0.740422 0.672142
vn 0.071563 0.938226 0.338542
vn -0.081414 0.996053 0.035362
vn -0.139452 0.984582 0.105605
vn -0.139452 0.984582 0.105605
vn -0.081414 0.996053 0.035362
vn -0.268775 0.958884 0.091111
vn -0.139452 0.984582 0.105605
vn -0.268775 0.958884 0.091111
vn -0.528932 0.847351 -0.047194
vn -0.528932 0.847351 -0.047194
vn -0.268775 0.958884 0.091111
vn -0.623910 0.777889 0.074995
vn -0.829294 0.548556 0.106572
vn -0.623910 0.777889 0.074995
vn -0.716200 0.697414 0.025905
vn -0.829294 0.548556 0.106572
vn -0.864490 0.120950 0.487881
vn -0.488889 0.177446 0.854108
vn -0.488889 0.177446 0.854108
vn -0.864490 0.120950 0.487881
vn -0.474880 0.041762 0.879059
vn -0.027020 0.138435 0.990003
vn -0.056570 0.202561 0.977634
vn 0.108956 0.122666 0.986449
vn 0.108956 0.122666 0.986449
vn -0.056570 0.202561 0.977634
vn 0.067519 0.173057 0.982595
vn 0.108956 0.122666 0.986449
vn 0.067519 0.173057 0.982595
vn 0.084163 0.666616 0.740634
vn 0.084163 0.666616 0.740634
vn -0.139452 0.984582 0.105605
vn -0.416853 0.676881 0.606684
vn -0.416853 0.676881 0.606684
vn 0.108956 0.122666 0.986449
vn 0.084163 0.666616 0.740634
vn 0.831899 0.534767 0.148218
vn 0.932349 0.347962 0.098228
vn 0.720586 0.690850 -0.059012
vn 0.547003 0.834399 0.067577
vn 0.508832 0.856655 -0.085043
vn 0.122947 0.951782 0.281059
vn 0.122947 0.951782 0.281059
vn 0.508832 0.856655 -0.085043
vn 0.107330 0.990733 0.083234
vn -0.070068 0.646379 0.759793
vn -0.045157 0.841764 0.537954
vn -0.112007 0.649731 0.751867
vn 0.075982 0.614127 0.785541
vn -0.112007 0.649731 0.751867
vn -0.251954 0.605160 0.755182
vn 0.476943 0.447963 0.756211
vn 0.725762 -0.124761 0.676539
vn 0.831899 0.534767 0.148218
vn 0.380912 0.618521 0.687268
vn 0.122947 0.951782 0.281059
vn -0.070068 0.646379 0.759793
vn 0.380912 0.618521 0.687268
vn 0.075982 0.614127 0.785541
vn 0.476943 0.447963 0.756211
vn -0.020933 -0.070293 -0.997307
vn -0.074413 0.067958 -0.994909
vn -0.054277 0.100536 -0.993452
vn -0.020933 -0.070293 -0.997307
vn -0.054277 0.100536 -0.993452
vn -0.525795 0.020789 -0.850357
vn -0.793736 0.344377 -0.501386
vn -0.460623 0.125891 -0.878623
vn -0.823340 0.061585 -0.564197
vn -0.793736 0.344377 -0.501386
vn -0.985605 0.154021 -0.069713
vn -0.791107 0.586758 0.172814
vn -0.793736 0.344377 -0.501386
vn -0.791107 0.586758 0.172814
vn -0.498948 0.810185 -0.307655
vn -0.496201 0.828323 0.260126
vn -0.118079 0.980587 0.156545
vn -0.498948 0.810185 -0.307655
vn -0.498948 0.810185 -0.307655
vn -0.118079 0.980587 0.156545
vn -0.064053 0.948100 -0.311454
vn -0.118079 0.980587 0.156545
vn -0.091147 0.938897 -0.331912
vn -0.064053 0.948100 -0.311454
vn -0.091147 0.938897 -0.331912
vn -0.000137 0.668909 -0.743344
vn -0.064053 0.948100 -0.311454
vn -0.000137 0.668909 -0.743344
vn 0.103349 -0.079229 -0.991485
vn 0.011024 0.749068 -0.662402
vn 0.011024 0.749068 -0.662402
vn -0.020933 -0.070293 -0.997307
vn -0.416853 0.676881 -0.606684
vn -0.416853 0.676881 -0.606684
vn -0.020933 -0.070293 -0.997307
vn -0.525795 0.020789 -0.850357
vn -0.416853 0.676881 -0.606684
vn -0.793736 0.344377 -0.501386
vn -0.498948 0.810185 -0.307655
vn -0.498948 0.810185 -0.307655
vn -0.064053 0.948100 -0.311454
vn -0.416853 0.676881 -0.606684
vn 0.652234 0.756437 -0.048919
vn 0.841204 0.405107 -0.358141
vn 0.564890 0.812499 -0.144030
vn 0.703334 0.263639 -0.660164
vn 0.306851 0.166653 -0.937053
vn 0.530653 0.654723 -0.538279
vn 0.291422 0.956388 0.019897
vn 0.487289 0.870216 -0.072623
vn 0.305406 0.927550 -0.215358
vn 0.305406 0.927550 -0.215358
vn 0.487289 0.870216 -0.072623
vn 0.484868 0.850822 -0.202497
vn 0.484868 0.850822 -0.202497
vn 0.652234 0.756437 -0.048919
vn 0.564890 0.812499 -0.144030
vn 0.484868 0.850822 -0.202497
vn 0.564890 0.812499 -0.144030
vn 0.532853 0.804862 -0.261276
vn 0.532853 0.804862 -0.261276
vn 0.564890 0.812499 -0.144030
vn 0.530653 0.654723 -0.538279
vn -0.037475 0.484745 -0.873852
vn 0.114496 0.657720 -0.744510
vn 0.530653 0.654723 -0.538279
vn 0.530653 0.654723 -0.538279
vn 0.114496 0.657720 -0.744510
vn 0.532853 0.804862 -0.261276
vn 0.114496 0.657720 -0.744510
vn 0.484868 0.850822 -0.202497
vn 0.532853 0.804862 -0.261276
vn -0.045166 -0.951772 -0.303463
vn -0.103911 -0.962768 0.249562
vn -0.498948 -0.810185 -0.307655
vn -0.498948 -0.810185 -0.307655
vn -0.103911 -0.962768 0.249562
vn -0.450233 -0.888604 0.087598
vn -0.450233 -0.888604 0.087598
vn -0.829671 -0.552247 -0.081668
vn -0.498948 -0.810185 -0.307655
vn -0.765480 -0.479162 -0.429470
vn -0.832159 -0.119148 -0.541586
vn -0.527674 -0.363014 -0.767972
vn -0.527674 -0.363014 -0.767972
vn -0.832159 -0.119148 -0.541586
vn -0.513675 0.214313 -0.830788
vn -0.513675 0.214313 -0.830788
vn -0.092152 0.297897 -0.950140
vn -0.527674 -0.363014 -0.767972
vn -0.045507 -0.366268 -0.929396
vn 0.103421 -0.393146 -0.913641
vn 0.018750 -0.743734 -0.668213
vn -0.416853 -0.676881 -0.606684
vn -0.045166 -0.951772 -0.303463
vn -0.498948 -0.810185 -0.307655
vn -0.498948 -0.810185 -0.307655
vn -0.765480 -0.479162 -0.429470
vn -0.416853 -0.676881 -0.606684
vn -0.416853 -0.676881 -0.606684
vn -0.765480 -0.479162 -0.429470
vn -0.527674 -0.363014 -0.767972
vn -0.527674 -0.363014 -0.767972
vn -0.045507 -0.366268 -0.929396
vn -0.416853 -0.676881 -0.606684
vn -0.416853 -0.676881 -0.606684
vn -0.045507 -0.366268 -0.929396
vn 0.018750 -0.743734 -0.668213
vn 0.765480 -0.479162 -0.429470
vn 0.830790 -0.555675 -0.031841
vn 0.498948 -0.810185 -0.307655
vn 0.498948 -0.810185 -0.307655
vn 0.830790 -0.555675 -0.031841
vn 0.534994 -0.843470 -0.048382
vn 0.534994 -0.843470 -0.048382
vn 0.127184 -0.989570 -0.067644
vn 0.498948 -0.810185 -0.307655
vn -0.018750 -0.743734 -0.668213
vn -0.092324 -0.941341 -0.324582
vn -0.120533 -0.739659 -0.662100
vn 0.527674 -0.363014 -0.767972
vn 0.134701 -0.042511 -0.989974
vn 0.578552 0.014379 -0.815518
vn 0.578552 0.014379 -0.815518
vn 0.832044 0.001314 -0.554708
vn 0.527674 -0.363014 -0.767972
vn 0.527674 -0.363014 -0.767972
vn 0.765480 -0.479162 -0.429470
vn 0.416853 -0.676881 -0.606684
vn 0.416853 -0.676881 -0.606684
vn 0.765480 -0.479162 -0.429470
vn 0.498948 -0.810185 -0.307655
vn 0.498948 -0.810185 -0.307655
vn 0.045166 -0.951772 -0.303463
vn 0.416853 -0.676881 -0.606684
vn 0.416853 -0.676881 -0.606684
vn 0.045166 -0.951772 -0.303463
vn -0.018750 -0.743734 -0.668213
vn 0.416853 -0.676881 -0.606684
vn 0.045507 -0.366268 -0.929396
vn 0.527674 -0.363014 -0.767972
s off
g initialShadingGroup pCube3
f 2/12/1 1/1/2 37/2/3
f 1/1/4 38/3/5 37/2/6
f 1/4/7 6/7/8 38/5/9
f 38/5/10 6/7/11 39/6/12
f 39/6/13 6/7/14 27/30/15
f 5/17/16 4/8/17 10/9/18
f 3/10/19 11/11/20 4/8/21
f 4/8/22 11/11/23 10/9/24
f 2/12/25 7/24/26 3/13/27
f 3/13/28 7/24/29 11/14/30
f 2/12/31 12/15/32 7/24/33
f 6/7/34 16/18/35 15/16/36
f 16/18/37 5/17/38 17/19/39
f 8/21/40 44/22/41 49/20/42
f 8/23/43 7/24/44 44/25/45
f 44/25/46 7/24/47 45/62/48
f 7/24/49 12/15/50 45/62/51
f 23/26/52 10/9/53 24/27/54
f 10/9/55 9/28/56 24/27/57
f 27/30/58 15/16/59 28/32/60
f 15/16/61 14/31/62 28/32/63
f 14/33/64 13/34/65 28/35/66
f 21/39/67 29/53/68 13/34/69
f 21/39/70 19/36/71 22/37/72
f 22/37/73 19/36/74 18/38/75
f 18/38/76 17/19/77 23/26/78
f 21/39/79 20/40/80 36/41/81
f 25/29/82 32/58/83 20/42/84
f 20/42/85 32/58/86 36/43/87
f 27/30/88 26/44/89 40/45/90
f 40/47/91 26/46/92 41/48/93
f 31/49/94 42/63/95 26/46/96
f 26/46/97 42/63/98 41/48/99
f 62/83/100 34/50/101 31/49/102
f 62/83/103 30/51/104 34/50/105
f 34/50/106 30/51/107 35/52/108
f 30/51/109 29/53/110 35/52/111
f 35/52/112 29/53/113 21/39/114
f 34/50/115 47/54/116 46/55/117
f 33/56/118 48/57/119 34/50/120
f 34/50/121 48/57/122 47/54/123
f 32/58/124 73/103/125 33/59/126
f 33/59/127 73/103/128 48/60/129
f 73/103/130 32/58/131 49/20/132
f 37/2/133 43/61/134 12/15/135
f 12/15/136 43/61/137 45/62/138
f 45/62/139 43/61/140 46/55/141
f 43/61/142 42/63/143 46/55/144
f 5/17/145 10/9/146 17/19/147
f 17/19/148 10/9/149 23/26/150
f 31/49/151 34/50/152 42/63/153
f 42/63/154 34/50/155 46/55/156
f 37/2/157 12/15/158 2/12/159
f 49/20/160 32/58/161 25/29/162
f 27/30/163 6/7/164 15/16/165
f 50/64/166 6/7/167 1/4/168
f 50/65/169 1/1/170 51/66/171
f 1/1/172 2/12/173 51/66/174
f 2/12/175 3/13/176 51/66/177
f 51/66/178 3/13/179 52/67/180
f 3/10/181 4/8/182 52/68/183
f 4/8/184 5/17/185 52/68/186
f 52/68/187 5/17/188 16/18/189
f 16/18/190 6/7/191 53/69/192
f 53/69/193 6/7/194 50/64/195
f 50/65/196 51/66/197 53/70/198
f 53/70/199 51/66/200 52/67/201
f 53/69/202 52/68/203 16/18/204
f 54/71/205 7/24/206 8/23/207
f 54/72/208 8/21/209 55/73/210
f 55/73/211 8/21/212 49/20/213
f 55/73/214 49/20/215 25/29/216
f 25/29/217 9/28/218 55/73/219
f 9/28/220 10/9/221 55/73/222
f 10/9/223 11/11/224 56/74/225
f 11/14/226 7/24/227 56/75/228
f 56/75/229 7/24/230 57/76/231
f 57/76/232 7/24/233 54/71/234
f 54/72/235 55/73/236 57/77/237
f 55/73/238 10/9/239 57/77/240
f 57/77/241 10/9/242 56/74/243
f 19/36/244 21/39/245 58/78/246
f 58/78/247 21/39/248 13/34/249
f 58/78/250 13/34/251 59/79/252
f 59/79/253 13/34/254 14/33/255
f 59/80/256 14/31/257 15/16/258
f 59/80/259 15/16/260 60/81/261
f 60/81/262 15/16/263 16/18/264
f 16/18/265 17/19/266 60/81/267
f 60/81/268 17/19/269 18/38/270
f 60/81/271 18/38/272 19/36/273
f 19/36/274 58/78/275 59/80/276
f 59/80/277 60/81/278 19/36/279
f 61/82/280 25/29/281 20/42/282
f 61/82/283 20/40/284 22/37/285
f 22/37/286 20/40/287 21/39/288
f 24/27/289 22/37/290 18/38/291
f 24/27/292 18/38/293 23/26/294
f 9/28/295 25/29/296 61/82/297
f 61/82/298 22/37/299 24/27/300
f 61/82/301 24/27/302 9/28/303
f 62/83/304 31/49/305 26/46/306
f 62/83/307 26/46/308 63/84/309
f 63/85/310 26/44/311 27/30/312
f 63/85/313 27/30/314 28/32/315
f 63/85/316 28/32/317 64/86/318
f 28/35/319 13/34/320 64/87/321
f 64/87/322 13/34/323 65/88/324
f 13/34/325 29/53/326 65/88/327
f 29/53/328 30/51/329 65/88/330
f 30/51/331 62/83/332 65/88/333
f 65/88/334 62/83/335 66/89/336
f 66/89/337 62/83/338 63/84/339
f 66/90/340 63/85/341 64/86/342
f 64/87/343 65/88/344 66/89/345
f 36/43/346 32/58/347 33/59/348
f 33/56/349 34/50/350 67/92/351
f 21/39/352 36/41/353 35/52/354
f 35/52/355 36/41/356 68/93/357
f 68/94/358 36/43/359 33/59/360
f 68/94/361 33/59/362 69/95/363
f 69/95/364 33/59/365 67/91/366
f 34/50/367 35/52/368 67/92/369
f 67/92/370 35/52/371 69/96/372
f 35/52/373 68/93/374 69/96/375
f 43/61/376 37/2/377 70/97/378
f 70/97/379 37/2/380 38/3/381
f 38/5/382 39/6/383 70/98/384
f 39/6/385 27/30/386 71/99/387
f 71/99/388 27/30/389 40/45/390
f 40/47/391 41/48/392 71/100/393
f 41/48/394 42/63/395 43/61/396
f 72/101/397 43/61/398 70/97/399
f 70/98/400 39/6/401 72/102/402
f 72/102/403 39/6/404 71/99/405
f 71/100/406 41/48/407 72/101/408
f 72/101/409 41/48/410 43/61/411
f 73/103/412 49/20/413 74/104/414
f 74/104/415 49/20/416 44/22/417
f 44/25/418 45/62/419 74/105/420
f 47/54/421 45/62/422 46/55/423
f 75/106/424 47/54/425 48/57/426
f 48/60/427 73/103/428 75/107/429
f 75/107/430 73/103/431 76/108/432
f 76/108/433 73/103/434 74/104/435
f 74/105/436 45/62/437 76/109/438
f 76/109/439 45/62/440 47/54/441
f 76/109/442 47/54/443 75/106/444
