# Blender v2.78 (sub 0) OBJ File: 'IntactShip.blend'
# www.blender.org
mtllib Intact_Engines_OaC.mtl
o Intact_Engine_Intact_Engine_Cylinder
v -7.006438 0.671383 -2.225789
v -7.006438 0.182059 -2.464040
v -5.542549 0.242729 -1.967028
v -5.347087 -0.377807 -0.058931
v -5.281192 -0.377807 -0.058931
v -5.281192 0.176937 -0.056540
v -5.347087 0.176937 -0.056540
v -7.006438 -0.861777 -0.320175
v -7.006438 -0.372455 -0.081927
v -5.542549 -0.098524 -0.501049
v -5.542549 -0.700793 -0.794291
v -5.281192 0.677782 -0.295080
v -5.347087 0.677782 -0.295080
v -7.006438 1.008875 -1.798827
v -5.542549 0.658123 -1.441510
v -3.544037 1.030191 -1.808979
v -3.544037 1.025529 -0.727307
v -3.544037 1.027861 -1.268143
v -7.006436 -1.199269 -0.747140
v -5.347089 1.025529 -0.727307
v -3.544037 1.151303 -1.267611
v -5.347089 1.151303 -1.267611
v -7.006438 1.127691 -1.267712
v -5.347087 1.030191 -1.808979
v -7.006436 -1.318087 -1.278252
v -5.542549 -0.847036 -1.447998
v -7.006438 1.004301 -0.737643
v -5.542549 0.506252 -0.789090
v -5.347087 0.686182 -2.244188
v -5.281192 0.686182 -2.244188
v -5.281192 0.187413 -2.487036
v -5.347089 0.187413 -2.487036
v -7.006436 -1.194697 -1.808324
v -5.281192 -0.367331 -2.489426
v -5.347089 -0.367331 -2.489426
v -7.006438 0.663140 -0.313603
v -5.281192 -0.868178 -2.250885
v -5.347087 -0.868178 -2.250885
v -7.006436 -0.853537 -2.232364
v -5.542549 -0.427129 -1.969914
v -1.251206 1.030191 -1.808979
v -1.251206 1.027861 -1.268143
v -1.251206 1.153439 -1.268143
v -7.006438 0.171782 -0.079582
v -5.347087 -1.215925 -1.818659
v -3.253106 -1.215925 -1.818659
v -3.253106 -1.341697 -1.278356
v -5.347087 -1.341697 -1.278356
v -7.006438 -0.362178 -2.466385
v -3.253106 -1.220586 -0.736988
v -5.347089 -1.220586 -0.736988
v -3.253106 -1.218255 -1.277824
v -5.347089 -0.876578 -0.301779
v -5.281192 -0.876578 -0.301779
v -5.332751 -0.961380 -0.588313
v -5.332751 -0.099955 -0.168890
v -5.332751 -1.170550 -1.523306
v -5.332751 -0.569958 -2.269801
v -5.332751 0.388138 -2.265673
v -5.332751 0.982273 -1.514028
v -5.332751 0.765050 -0.580872
v -7.006438 -0.397673 0.026414
v -7.006438 1.104315 -0.688948
v -7.006438 1.238928 -1.267234
v -7.006438 1.109303 -1.846657
v -7.006438 0.207279 -2.572381
v -7.006438 -0.386463 -2.574940
v -7.006436 -0.922516 -2.319631
v -5.542549 -0.299441 -1.320528
v -5.542549 -0.259086 -1.140137
v -6.397604 -0.158032 -1.228452
v -6.397604 -0.172180 -1.291691
v -5.542549 -0.092892 -1.059219
v -5.542549 0.073996 -1.138703
v -6.397604 -0.041264 -1.227950
v -6.397604 -0.099770 -1.200085
v -5.542549 0.115905 -1.318737
v -5.542549 0.001277 -1.463754
v -6.397604 -0.066756 -1.341903
v -6.397604 -0.026570 -1.291064
v -5.542549 -0.183569 -1.464549
v -6.397604 -0.131557 -1.342183
v -6.397604 -0.099446 -1.274761
v -1.382724 -1.220586 -0.736988
v -1.382724 -1.218255 -1.277824
v -1.382724 -1.359886 -1.277824
v -5.347089 1.025529 0.740624
v -5.347089 1.151303 1.280927
v -3.544037 1.151303 1.280927
v -3.544037 1.025529 0.740624
v -1.382724 -1.215925 -1.818659
v -3.544037 1.030192 1.822295
v -3.544037 1.027861 1.281459
v -7.006438 1.008875 1.812143
v -5.542549 0.658123 1.454826
v -5.542549 0.242728 1.980344
v -7.006438 0.671383 2.239105
v -5.347087 0.176937 0.069856
v -5.347087 0.677782 0.308396
v -5.281192 0.677782 0.308396
v -5.281192 0.176937 0.069856
v -7.006438 -0.861777 0.333491
v -5.542549 -0.700792 0.807607
v -5.542549 -0.098524 0.514365
v -7.006438 -0.372455 0.095242
v -5.347087 -0.377807 0.072247
v -5.281192 -0.377807 0.072247
v -7.006438 0.182059 2.477356
v 0.072847 -1.359886 -1.277824
v 0.072845 -1.220586 -0.736988
v 0.072847 -1.215925 -1.818659
v -7.006436 -1.199269 0.760455
v -1.251206 1.025529 -0.727307
v 0.439890 1.025529 -0.727307
v 0.439890 1.153439 -1.268143
v 0.439890 1.030191 -1.808979
v -7.006438 1.127690 1.281028
v -5.347087 1.030192 1.822295
v -7.006436 -1.318087 1.291568
v -5.542549 -0.847037 1.461314
v -7.006438 1.004300 0.750959
v -5.542549 0.506251 0.802406
v -5.347087 0.686182 2.257504
v -5.347089 0.187413 2.500352
v -5.281192 0.187413 2.500352
v -5.281192 0.686182 2.257504
v -7.006436 -1.194696 1.821640
v -5.347089 -0.367332 2.502742
v -5.281192 -0.367332 2.502742
v -7.006438 0.663140 0.326919
v -5.347087 -0.868178 2.264202
v -5.281192 -0.868178 2.264202
v -7.006436 -0.853536 2.245679
v -5.542549 -0.427129 1.983230
v -1.251206 1.030192 1.822295
v -1.251206 1.153438 1.281459
v -1.251206 1.027861 1.281459
v -7.006438 0.171782 0.092897
v -5.347087 -1.215925 1.831975
v -5.347087 -1.341697 1.291671
v -3.253106 -1.341697 1.291671
v -3.253106 -1.215925 1.831975
v -7.006438 -0.362179 2.479701
v -5.347087 -1.220586 0.750303
v -3.253106 -1.220586 0.750303
v -3.253106 -1.218256 1.291139
v -5.347087 -0.876578 0.315095
v -5.281192 -0.876578 0.315095
v -5.332751 -0.961380 0.601628
v -5.332751 -0.099955 0.182206
v -5.332751 -1.170550 1.536621
v -5.332751 -0.569959 2.283116
v -5.332751 0.388139 2.278989
v -5.332751 0.982273 1.527345
v -5.332751 0.765050 0.594188
v -7.006438 -0.397673 -0.013098
v -7.006438 0.732122 0.239652
v -7.006438 1.109302 1.859974
v -7.006436 -0.922516 2.332947
v -7.006436 -1.429325 1.292048
v -7.006436 -1.299699 0.712623
v -5.542547 -0.299441 1.333844
v -6.397606 -0.172181 1.305007
v -6.397606 -0.158033 1.241768
v -5.542549 -0.259086 1.153453
v -5.542549 -0.092892 1.072535
v -6.397606 -0.099770 1.213401
v -6.397606 -0.041264 1.241265
v -5.542549 0.073996 1.152019
v -5.542549 0.115905 1.332053
v -6.397606 -0.026571 1.304380
v -6.397606 -0.066756 1.355219
v -5.542549 0.001277 1.477068
v -5.542549 -0.183570 1.477865
v -6.397606 -0.131557 1.355499
v -6.397606 -0.099447 1.288076
v -1.382724 -1.220586 0.750303
v -1.382724 -1.359887 1.291139
v -1.382724 -1.218256 1.291139
v -1.382724 -1.215925 1.831975
v 0.072845 -1.220586 0.750303
v 0.072847 -1.359887 1.291139
v 0.072847 -1.215925 1.831975
v -1.251206 1.025529 0.740624
v 0.439890 1.153438 1.281459
v 0.439890 1.025529 0.740624
v 0.439890 1.030192 1.822295
v -7.006436 -1.429325 -1.278733
v -7.006436 -1.299699 -0.699307
v -7.006438 -0.931506 0.246820
v -7.006438 0.732122 -0.226336
v -7.006438 0.196069 -0.015657
v -7.006438 0.207279 2.585697
v -7.006438 0.741112 2.325776
v -7.006436 -1.294709 1.870334
v -7.006438 -0.931506 -0.233505
v -7.006438 1.238928 1.280550
v -7.006438 0.196069 0.028973
v -7.006436 -1.294709 -1.857019
v -7.006438 1.104315 0.702264
v -7.006438 0.741112 -2.312460
v -7.006438 -0.386463 2.588255
vt 0.5332 0.3448
vt 0.5237 0.2953
vt 0.6588 0.2950
vt 0.4078 0.6549
vt 0.4046 0.6601
vt 0.3635 0.6344
vt 0.3673 0.6302
vt 0.6365 0.0321
vt 0.6784 0.0095
vt 0.7555 0.1155
vt 0.7083 0.1470
vt 0.3349 0.5979
vt 0.3393 0.5945
vt 0.5511 0.3904
vt 0.6773 0.3449
vt 0.6294 0.7312
vt 0.6086 0.8221
vt 0.6278 0.7309
vt 0.5993 0.0645
vt 0.7849 0.8269
vt 0.6294 0.8269
vt 0.6294 0.7791
vt 0.7849 0.7791
vt 0.5771 0.4322
vt 0.7849 0.7312
vt 0.5693 0.1035
vt 0.6750 0.1895
vt 0.6096 0.4692
vt 0.7111 0.3854
vt 0.2692 0.3825
vt 0.2606 0.3824
vt 0.2615 0.3150
vt 0.2687 0.3157
vt 0.5454 0.1474
vt 0.2723 0.2625
vt 0.2787 0.2639
vt 0.6473 0.4994
vt 0.2843 0.2055
vt 0.2911 0.2070
vt 0.5296 0.1949
vt 0.6579 0.2409
vt 0.6997 0.7302
vt 0.6542 0.7197
vt 0.6567 0.7091
vt 0.6891 0.5213
vt 0.7555 0.4118
vt 0.6080 0.5418
vt 0.6080 0.7228
vt 0.5601 0.7228
vt 0.5601 0.5418
vt 0.5218 0.2446
vt 0.5121 0.7228
vt 0.5121 0.5418
vt 0.7323 0.5326
vt 0.5624 0.7332
vt 0.5169 0.7436
vt 0.3774 0.0303
vt 0.3742 0.0269
vt 0.4032 0.0003
vt 0.4064 0.0038
vt 0.3697 0.0593
vt 0.4275 0.0056
vt 0.3426 0.0725
vt 0.3256 0.1426
vt 0.3250 0.1102
vt 0.3001 0.1641
vt 0.2989 0.2390
vt 0.2859 0.3482
vt 0.3005 0.4594
vt 0.2784 0.4296
vt 0.2911 0.4960
vt 0.3370 0.5610
vt 0.3105 0.5409
vt 0.3917 0.6332
vt 0.9340 0.7309
vt 0.9340 0.8788
vt 0.8835 0.7398
vt 0.5115 0.5698
vt 0.4940 0.5262
vt 0.4791 0.4854
vt 0.4649 0.4442
vt 0.4557 0.4029
vt 0.4479 0.3609
vt 0.4460 0.3200
vt 0.4458 0.2787
vt 0.4510 0.2403
vt 0.4576 0.2019
vt 0.4685 0.1663
vt 0.4807 0.1307
vt 0.4957 0.0987
vt 0.5115 0.0669
vt 0.7321 0.5412
vt 0.6860 0.5297
vt 0.6424 0.5072
vt 0.6032 0.4761
vt 0.5692 0.4380
vt 0.5430 0.3945
vt 0.5241 0.3476
vt 0.5137 0.2964
vt 0.5121 0.2439
vt 0.5203 0.1925
vt 0.5367 0.1434
vt 0.5615 0.0982
vt 0.5926 0.0582
vt 0.6309 0.0243
vt 0.6759 0.0003
vt 0.2092 0.7555
vt 0.2252 0.7551
vt 0.2216 0.8298
vt 0.2160 0.8300
vt 0.1382 0.7885
vt 0.1502 0.7779
vt 0.1953 0.8378
vt 0.1911 0.8415
vt 0.1636 0.7693
vt 0.1781 0.7626
vt 0.2051 0.8325
vt 0.2000 0.8348
vt 0.1934 0.7580
vt 0.2104 0.8309
vt 0.1278 0.8006
vt 0.1874 0.8458
vt 0.5292 0.8092
vt 0.5362 0.8236
vt 0.5063 0.8615
vt 0.4812 0.8093
vt 0.5362 0.7948
vt 0.5063 0.7571
vt 0.5517 0.7912
vt 0.5627 0.7442
vt 0.5642 0.8012
vt 0.6080 0.7803
vt 0.5642 0.8172
vt 0.6080 0.8382
vt 0.5517 0.8271
vt 0.5627 0.8743
vt 0.2189 0.8357
vt 0.2252 0.8341
vt 0.2241 0.8396
vt 0.2191 0.8422
vt 0.2140 0.8399
vt 0.2126 0.8344
vt 0.8081 0.5418
vt 0.8533 0.5536
vt 0.8501 0.5655
vt 0.2606 0.6607
vt 0.3085 0.6607
vt 0.3085 0.8162
vt 0.2606 0.8162
vt 0.8985 0.5655
vt 0.3563 0.8162
vt 0.2658 0.8385
vt 0.2654 0.8369
vt 0.7979 0.1459
vt 0.9220 0.1930
vt 0.9030 0.2425
vt 0.7787 0.1914
vt 0.1006 0.0312
vt 0.0735 0.0677
vt 0.0691 0.0644
vt 0.0968 0.0271
vt 0.8776 0.5077
vt 0.9519 0.3914
vt 0.9997 0.4240
vt 0.9201 0.5312
vt 0.1406 0.0055
vt 0.1372 0.0003
vt 0.7684 0.2406
vt 0.8019 0.5655
vt 0.8501 0.6913
vt 0.8019 0.6913
vt 0.8985 0.6913
vt 0.8081 0.7150
vt 0.8401 0.4741
vt 0.6086 0.7091
vt 0.6086 0.5629
vt 0.6567 0.5629
vt 0.7046 0.7091
vt 0.7046 0.5629
vt 0.6997 0.5418
vt 0.8240 0.1047
vt 0.3563 0.6607
vt 0.8103 0.4329
vt 0.9184 0.3479
vt 0.8567 0.0694
vt 0.9556 0.1535
vt 0.0089 0.2820
vt 0.0102 0.3490
vt 0.0029 0.3499
vt 0.0003 0.2823
vt 0.7868 0.3876
vt 0.0216 0.4006
vt 0.0151 0.4022
vt 0.8942 0.0403
vt 0.0354 0.4574
vt 0.0287 0.4590
vt 0.7721 0.3402
vt 0.9015 0.2964
vt 0.7102 0.7302
vt 0.7532 0.7091
vt 0.7557 0.7197
vt 0.9357 0.0193
vt 0.9997 0.1281
vt 0.2021 0.6586
vt 0.2021 0.7065
vt 0.0211 0.7065
vt 0.0211 0.6586
vt 0.7657 0.2910
vt 0.2021 0.7545
vt 0.0211 0.7545
vt 0.9785 0.0087
vt 0.0107 0.7089
vt 0.2027 0.7065
vt 0.2027 0.6586
vt 0.2084 0.6586
vt 0.2084 0.7065
vt 0.1182 0.6033
vt 0.1775 0.6555
vt 0.1563 0.6579
vt 0.1266 0.6321
vt 0.0906 0.5908
vt 0.0717 0.5209
vt 0.0720 0.5535
vt 0.0457 0.5000
vt 0.0424 0.4251
vt 0.0265 0.3159
vt 0.0382 0.2041
vt 0.0169 0.2346
vt 0.0279 0.1678
vt 0.0722 0.1014
vt 0.0461 0.1222
vt 0.1250 0.0276
vt 0.2600 0.0427
vt 0.2467 0.0879
vt 0.2304 0.1321
vt 0.2165 0.1734
vt 0.2033 0.2150
vt 0.1953 0.2567
vt 0.1885 0.2990
vt 0.1877 0.3400
vt 0.1886 0.3814
vt 0.1948 0.4198
vt 0.2024 0.4581
vt 0.2143 0.4934
vt 0.2274 0.5287
vt 0.2434 0.5604
vt 0.2600 0.5918
vt 0.9328 0.0110
vt 0.9784 0.0003
vt 0.8895 0.0326
vt 0.8506 0.0625
vt 0.8167 0.0989
vt 0.7896 0.1414
vt 0.7696 0.1884
vt 0.7585 0.2393
vt 0.7561 0.2916
vt 0.7631 0.3421
vt 0.7778 0.3911
vt 0.8018 0.4382
vt 0.8331 0.4804
vt 0.8718 0.5156
vt 0.9174 0.5406
vt 0.8669 0.7313
vt 0.8737 0.8057
vt 0.8681 0.8066
vt 0.8511 0.7337
vt 0.8358 0.7383
vt 0.8628 0.8082
vt 0.8577 0.8105
vt 0.8213 0.7450
vt 0.8079 0.7537
vt 0.8530 0.8136
vt 0.8488 0.8173
vt 0.7959 0.7643
vt 0.8829 0.7309
vt 0.8793 0.8056
vt 0.8451 0.8215
vt 0.7855 0.7764
vt 0.0713 0.8383
vt 0.0819 0.8852
vt 0.0254 0.8723
vt 0.0557 0.8348
vt 0.0838 0.8284
vt 0.1272 0.8491
vt 0.0838 0.8124
vt 0.1272 0.7912
vt 0.0713 0.8024
vt 0.0819 0.7551
vt 0.0557 0.8060
vt 0.0254 0.7680
vt 0.0488 0.8204
vt 0.0003 0.8202
vt 0.8766 0.8115
vt 0.8768 0.8179
vt 0.8717 0.8156
vt 0.8817 0.8154
vt 0.8829 0.8099
vt 0.8703 0.8102
vt 0.4536 0.6844
vt 0.4053 0.6844
vt 0.4084 0.6726
vt 0.0003 0.6633
vt 0.3631 0.6607
vt 0.4536 0.8102
vt 0.4053 0.8102
vt 0.3569 0.8102
vt 0.3569 0.6844
vt 0.3631 0.8340
vt 0.8012 0.7091
vt 0.7532 0.5629
vt 0.8012 0.5629
vt 0.7053 0.7091
vt 0.7053 0.5629
vt 0.7102 0.5418
vn -0.2760 -0.4208 0.8642
vn 0.0000 -0.0043 1.0000
vn -0.3213 0.4145 -0.8514
vn 0.0000 0.4300 0.9028
vn -0.3213 -0.7429 0.5872
vn -0.8812 0.4270 0.2029
vn -0.9751 0.2115 -0.0665
vn -0.6140 0.6232 0.4844
vn -0.2760 0.7540 -0.5960
vn 0.0000 0.9740 0.2267
vn -0.0632 0.9975 0.0307
vn -0.2760 -0.9380 0.2098
vn 0.0000 0.9759 -0.2183
vn -0.2064 0.9571 -0.2036
vn -0.3213 0.9241 -0.2067
vn 1.0000 -0.0000 0.0000
vn 0.9785 0.0101 -0.2060
vn 0.9784 0.0437 0.2020
vn -0.3213 -0.9223 -0.2147
vn 0.0000 0.4378 -0.8991
vn -0.2760 0.9361 0.2179
vn 0.0000 0.0043 -1.0000
vn -0.2760 -0.7489 -0.6025
vn 0.0000 -0.4300 -0.9028
vn -0.3213 0.7378 0.5936
vn -1.0000 0.0000 0.0000
vn -0.3213 -0.4072 -0.8549
vn 0.0000 -0.9740 -0.2267
vn -0.2760 0.4133 0.8678
vn 0.0000 -0.9759 0.2183
vn -0.2760 0.0041 -0.9612
vn -0.3213 -0.0041 0.9470
vn 0.0000 -0.4378 0.8991
vn -0.9979 0.0284 -0.0583
vn -0.9918 0.1004 -0.0793
vn -0.9979 0.0633 -0.0142
vn -0.9918 0.1246 0.0290
vn -0.9979 0.0506 0.0407
vn -0.9918 0.0550 0.1155
vn -0.9979 -0.0003 0.0649
vn -0.9918 -0.0560 0.1150
vn -0.9979 -0.0509 0.0402
vn -0.9918 -0.1248 0.0279
vn -0.9979 -0.0632 -0.0147
vn -0.9918 -0.0997 -0.0802
vn -0.9979 -0.0279 -0.0586
vn -0.9918 0.0006 -0.1279
vn 0.1167 -0.0043 0.9932
vn 0.1798 0.4230 0.8881
vn 0.1167 0.7738 0.6226
vn 0.1798 0.9581 0.2230
vn 0.1167 0.9692 -0.2168
vn 0.1798 0.7717 -0.6100
vn 0.1167 0.4348 -0.8930
vn 0.1798 0.0042 -0.9837
vn 0.1167 -0.4271 -0.8967
vn 0.1798 -0.7664 -0.6166
vn 0.1167 -0.9673 -0.2252
vn 0.1798 -0.9600 0.2148
vn 0.1167 -0.7792 0.6159
vn 0.1798 -0.4306 0.8844
vn -0.1366 -0.9667 0.2163
vn -0.1505 0.4251 0.8926
vn -0.1491 0.7757 -0.6132
vn -0.1358 -0.7719 -0.6210
vn -0.1431 -0.4333 0.8898
vn -0.1531 0.9625 0.2241
vn -0.1414 0.0043 -0.9899
vn 0.0000 0.9740 -0.2267
vn -0.2389 0.9673 -0.0846
vn -0.9613 -0.2373 -0.1397
vn -0.6697 -0.0254 0.7422
vn -0.9613 0.2397 -0.1356
vn -0.3213 -0.7429 -0.5872
vn 0.0000 0.4300 -0.9028
vn -0.3213 0.4145 0.8514
vn 0.0000 -0.0043 -1.0000
vn -0.2760 -0.4208 -0.8642
vn 0.0000 -0.9684 0.2494
vn 0.0000 -0.9664 -0.2572
vn -0.2760 0.7540 0.5960
vn 0.0000 0.9732 0.2302
vn 0.0000 0.9750 -0.2222
vn -0.2760 -0.9380 -0.2098
vn 0.0000 0.9759 0.2183
vn -0.0704 0.9963 -0.0499
vn -0.3213 0.9241 0.2067
vn 0.9613 0.0090 -0.2752
vn 0.9613 0.0423 0.2721
vn -0.3213 -0.9223 0.2147
vn 0.0000 0.4378 0.8991
vn -0.2760 0.9361 -0.2179
vn 0.0000 0.0043 1.0000
vn -0.2760 -0.7489 0.6025
vn 0.0000 -0.4300 0.9028
vn -0.3213 0.7378 -0.5936
vn -0.3213 -0.4072 0.8549
vn 0.0000 -0.9740 0.2267
vn -0.2760 0.4133 -0.8678
vn 0.0000 -0.9759 -0.2183
vn -0.2760 0.0041 0.9612
vn -0.3213 -0.0041 -0.9470
vn 0.0000 -0.4378 -0.8991
vn -0.9979 0.0284 0.0583
vn -0.9918 0.1004 0.0793
vn -0.9979 0.0633 0.0142
vn -0.9918 0.1246 -0.0290
vn -0.9979 0.0506 -0.0407
vn -0.9918 0.0550 -0.1155
vn -0.9979 -0.0003 -0.0649
vn -0.9918 -0.0560 -0.1150
vn -0.9979 -0.0509 -0.0402
vn -0.9918 -0.1248 -0.0279
vn -0.9979 -0.0632 0.0147
vn -0.9918 -0.0997 0.0802
vn -0.9979 -0.0279 0.0586
vn -0.9918 0.0006 0.1279
vn 0.1167 -0.0043 -0.9932
vn 0.1798 0.4230 -0.8881
vn 0.1167 0.7738 -0.6226
vn 0.1798 0.9581 -0.2230
vn 0.1167 0.9692 0.2168
vn 0.1798 0.7717 0.6100
vn 0.1167 0.4348 0.8930
vn 0.1798 0.0042 0.9837
vn 0.1167 -0.4271 0.8967
vn 0.1798 -0.7664 0.6166
vn 0.1167 -0.9673 0.2252
vn 0.1798 -0.9600 -0.2148
vn 0.1167 -0.7792 -0.6159
vn 0.1798 -0.4306 -0.8844
vn -0.1366 -0.9667 -0.2163
vn -0.1505 0.4251 -0.8926
vn -0.1491 0.7757 0.6132
vn -0.1358 -0.7719 0.6210
vn -0.1431 -0.4333 -0.8898
vn -0.1531 0.9625 -0.2241
vn -0.1414 0.0043 0.9899
vn 0.0000 -0.9684 -0.2494
vn 0.0000 -0.9664 0.2572
vn 0.0000 0.9732 -0.2302
vn 0.0000 0.9750 0.2222
usemtl None_IntactShip_copy.png
s off
f 1/1/1 2/2/1 3/3/1
f 4/4/2 5/5/2 6/6/2 7/7/2
f 8/8/3 9/9/3 10/10/3 11/11/3
f 7/7/4 6/6/4 12/12/4 13/13/4
f 14/14/5 1/1/5 3/3/5 15/15/5
f 16/16/6 17/17/7 18/18/8
f 19/19/9 8/8/9 11/11/9
f 20/20/10 17/21/11 21/22/10 22/23/10
f 23/24/12 14/14/12 15/15/12
f 22/23/13 21/22/13 16/16/14 24/25/13
f 25/26/15 19/19/15 11/11/15 26/27/15
f 21/22/16 17/17/17 16/16/18
f 27/28/19 23/24/19 15/15/19 28/29/19
f 29/30/20 30/31/20 31/32/20 32/33/20
f 33/34/21 25/26/21 26/27/21
f 32/33/22 31/32/22 34/35/22 35/36/22
f 36/37/23 27/28/23 28/29/23
f 35/36/24 34/35/24 37/38/24 38/39/24
f 39/40/25 33/34/25 26/27/25 40/41/25
f 41/42/26 42/43/26 43/44/26
f 44/45/27 36/37/27 28/29/27 10/46/27
f 45/47/28 46/48/28 47/49/28 48/50/28
f 49/51/29 39/40/29 40/41/29
f 48/50/30 47/49/30 50/52/30 51/53/30
f 9/54/31 44/45/31 10/46/31
f 47/49/16 52/55/16 50/56/16
f 2/2/32 49/51/32 40/41/32 3/3/32
f 53/57/33 54/58/33 5/59/33 4/60/33
f 55/61/34 53/57/34 4/60/34 56/62/34
f 55/61/35 51/63/35 53/57/35
f 57/64/36 48/65/36 51/63/36 55/61/36
f 57/64/37 45/66/37 48/65/37
f 58/67/38 38/39/38 45/66/38 57/64/38
f 58/67/39 35/36/39 38/39/39
f 59/68/40 32/33/40 35/36/40 58/67/40
f 59/68/41 29/30/41 32/33/41
f 60/69/42 24/70/42 29/30/42 59/68/42
f 60/69/43 22/71/43 24/70/43
f 61/72/44 20/73/44 22/71/44 60/69/44
f 61/72/45 13/13/45 20/73/45
f 56/74/46 7/7/46 13/13/46 61/72/46
f 56/74/47 4/4/47 7/7/47
f 62/75/48 56/76/48 198/77/48
f 198/78/49 56/74/49 61/72/49 191/79/49
f 191/79/50 61/72/50 63/80/50
f 63/80/51 61/72/51 60/69/51 64/81/51
f 64/81/52 60/69/52 65/82/52
f 65/82/53 60/69/53 59/68/53 201/83/53
f 201/83/54 59/68/54 66/84/54
f 66/84/55 59/68/55 58/67/55 67/85/55
f 67/85/56 58/67/56 68/86/56
f 68/86/57 58/67/57 57/64/57 199/87/57
f 199/87/58 57/64/58 188/88/58
f 188/88/59 57/64/59 55/61/59 189/89/59
f 189/89/60 55/61/60 196/90/60
f 196/90/61 55/61/61 56/62/61 62/91/61
f 44/45/26 9/54/26 62/92/26 198/93/26
f 36/37/26 44/45/26 198/93/26 191/94/26
f 27/28/26 36/37/26 191/94/26 63/95/26
f 23/24/26 27/28/26 63/95/26 64/96/26
f 14/14/26 23/24/26 64/96/26 65/97/26
f 1/1/26 14/14/26 65/97/26 201/98/26
f 2/2/26 1/1/26 201/98/26 66/99/26
f 49/51/26 2/2/26 66/99/26 67/100/26
f 39/40/26 49/51/26 67/100/26 68/101/26
f 33/34/26 39/40/26 68/101/26 199/102/26
f 25/26/26 33/34/26 199/102/26 188/103/26
f 19/19/26 25/26/26 188/103/26 189/104/26
f 8/8/26 19/19/26 189/104/26 196/105/26
f 9/9/26 8/8/26 196/105/26 62/106/26
f 69/107/62 70/108/62 71/109/62 72/110/62
f 73/111/63 74/112/63 75/113/63 76/114/63
f 77/115/64 78/116/64 79/117/64 80/118/64
f 81/119/65 69/107/65 72/110/65 82/120/65
f 70/121/66 73/111/66 76/114/66 71/122/66
f 74/112/67 77/115/67 80/118/67 75/113/67
f 78/116/68 81/119/68 82/120/68 79/117/68
f 74/123/26 73/124/26 10/125/26 28/126/26
f 77/127/26 74/123/26 28/126/26 15/128/26
f 78/129/26 77/127/26 15/128/26 3/130/26
f 81/131/26 78/129/26 3/130/26 40/132/26
f 69/133/26 81/131/26 40/132/26 26/134/26
f 70/135/26 69/133/26 26/134/26 11/136/26
f 73/124/26 70/135/26 11/136/26 10/125/26
f 83/137/26 76/138/26 75/139/26
f 83/137/26 75/139/26 80/140/26
f 83/137/26 80/140/26 79/141/26
f 83/137/26 79/141/26 82/142/26
f 83/137/26 82/142/26 72/110/26
f 83/137/26 72/110/26 71/109/26
f 83/137/26 71/109/26 76/138/26
f 84/143/26 85/144/26 86/145/26
f 52/55/16 47/49/16 46/48/16
f 87/146/69 88/147/69 89/148/69 90/149/70
f 85/144/26 91/150/26 86/145/26
f 92/151/71 93/152/72 90/153/73
f 94/154/74 95/155/74 96/156/74 97/157/74
f 98/158/75 99/159/75 100/160/75 101/161/75
f 102/162/76 103/163/76 104/164/76 105/165/76
f 106/166/77 98/158/77 101/161/77 107/167/77
f 97/157/78 96/156/78 108/168/78
f 84/169/79 86/145/79 109/170/79 110/171/79
f 86/145/80 91/150/80 111/172/80 109/170/80
f 109/170/16 111/172/16 110/173/16
f 112/174/81 103/163/81 102/162/81
f 42/43/26 113/175/26 43/44/26
f 43/44/82 113/175/82 114/176/82 115/177/82
f 41/178/83 43/44/83 115/177/83 116/179/83
f 115/177/16 114/176/16 116/180/16
f 117/181/84 95/155/84 94/154/84
f 88/147/85 118/182/85 92/151/86 89/148/85
f 119/183/87 120/184/87 103/163/87 112/174/87
f 89/148/16 92/151/88 90/153/89
f 121/185/90 122/186/90 95/155/90 117/181/90
f 123/187/91 124/188/91 125/189/91 126/190/91
f 127/191/92 120/184/92 119/183/92
f 124/188/93 128/192/93 129/193/93 125/189/93
f 130/194/94 122/186/94 121/185/94
f 128/192/95 131/195/95 132/196/95 129/193/95
f 133/197/96 134/198/96 120/184/96 127/191/96
f 135/199/26 136/200/26 137/201/26
f 138/202/97 104/203/97 122/186/97 130/194/97
f 139/204/98 140/205/98 141/206/98 142/207/98
f 143/208/99 134/198/99 133/197/99
f 140/205/100 144/209/100 145/210/100 141/206/100
f 105/211/101 104/203/101 138/202/101
f 141/206/16 145/210/16 146/212/16
f 108/168/102 96/156/102 134/198/102 143/208/102
f 147/213/103 106/214/103 107/215/103 148/216/103
f 149/217/104 150/218/104 106/219/104 147/220/104
f 149/217/105 147/220/105 144/221/105
f 151/222/106 149/217/106 144/221/106 140/223/106
f 151/222/107 140/223/107 139/224/107
f 152/225/108 151/222/108 139/224/108 131/195/108
f 152/225/109 131/195/109 128/192/109
f 153/226/110 152/225/110 128/192/110 124/188/110
f 153/226/111 124/188/111 123/187/111
f 154/227/112 153/226/112 123/187/112 118/228/112
f 154/227/113 118/228/113 88/229/113
f 155/230/114 154/227/114 88/229/114 87/231/114
f 155/230/115 87/231/115 99/159/115
f 150/232/116 155/230/116 99/159/116 98/158/116
f 150/232/117 98/158/117 106/166/117
f 156/233/118 192/234/118 150/232/118
f 192/234/119 157/235/119 155/230/119 150/232/119
f 157/235/120 200/236/120 155/230/120
f 200/236/121 197/237/121 154/227/121 155/230/121
f 197/237/122 158/238/122 154/227/122
f 158/238/123 194/239/123 153/226/123 154/227/123
f 194/239/124 193/240/124 153/226/124
f 193/240/125 202/241/125 152/225/125 153/226/125
f 202/241/126 159/242/126 152/225/126
f 159/242/127 195/243/127 151/222/127 152/225/127
f 195/243/128 160/244/128 151/222/128
f 160/244/129 161/245/129 149/217/129 151/222/129
f 161/245/130 190/246/130 149/217/130
f 190/246/131 156/247/131 150/218/131 149/217/131
f 138/202/26 192/248/26 156/249/26 105/211/26
f 130/194/26 157/250/26 192/248/26 138/202/26
f 121/185/26 200/251/26 157/250/26 130/194/26
f 117/181/26 197/252/26 200/251/26 121/185/26
f 94/154/26 158/253/26 197/252/26 117/181/26
f 97/157/26 194/254/26 158/253/26 94/154/26
f 108/168/26 193/255/26 194/254/26 97/157/26
f 143/208/26 202/256/26 193/255/26 108/168/26
f 133/197/26 159/257/26 202/256/26 143/208/26
f 127/191/26 195/258/26 159/257/26 133/197/26
f 119/183/26 160/259/26 195/258/26 127/191/26
f 112/174/26 161/260/26 160/259/26 119/183/26
f 102/162/26 190/261/26 161/260/26 112/174/26
f 105/165/26 156/262/26 190/261/26 102/162/26
f 162/263/132 163/264/132 164/265/132 165/266/132
f 166/267/133 167/268/133 168/269/133 169/270/133
f 170/271/134 171/272/134 172/273/134 173/274/134
f 174/275/135 175/276/135 163/264/135 162/263/135
f 165/266/136 164/265/136 167/268/136 166/267/136
f 169/270/137 168/269/137 171/272/137 170/271/137
f 173/274/138 172/273/138 175/277/138 174/278/138
f 169/279/26 122/280/26 104/281/26 166/282/26
f 170/283/26 95/284/26 122/280/26 169/279/26
f 173/285/26 96/286/26 95/284/26 170/283/26
f 174/287/26 134/288/26 96/286/26 173/285/26
f 162/289/26 120/290/26 134/288/26 174/287/26
f 165/291/26 103/292/26 120/290/26 162/289/26
f 166/282/26 104/281/26 103/292/26 165/291/26
f 176/293/26 168/294/26 167/295/26
f 176/293/26 171/296/26 168/294/26
f 176/293/26 172/297/26 171/296/26
f 176/293/26 175/276/26 172/297/26
f 176/293/26 163/264/26 175/276/26
f 176/293/26 164/298/26 163/264/26
f 176/293/26 167/295/26 164/298/26
f 177/299/26 178/300/26 179/301/26
f 146/212/16 142/302/16 141/206/16
f 179/301/26 178/300/26 180/303/26
f 177/299/139 181/304/139 182/305/139 178/300/139
f 178/300/140 182/305/140 183/306/140 180/307/140
f 182/305/16 181/304/16 183/308/16
f 137/201/26 136/200/26 184/309/26
f 136/200/141 185/310/141 186/311/141 184/309/141
f 135/312/142 187/313/142 185/310/142 136/200/142
f 185/310/16 187/314/16 186/311/16
