# Blender v2.78 (sub 0) OBJ File: 'IntactShip.blend'
# www.blender.org
mtllib Intact_Canapy_OaC.mtl
o Intact_Canapy_Intact_Canapy_Plane
v 4.020666 1.264717 0.937335
v 4.024365 1.239308 0.940366
v 4.097136 1.245903 0.938046
v 4.097469 1.247696 -0.576471
v 4.213365 1.247702 -0.570888
v 4.209187 1.274775 -0.581951
v 4.020174 1.266452 -0.587717
v 6.137677 1.247477 -0.881445
v 7.859735 0.190995 -0.997937
v 4.209187 1.274774 0.581953
v 4.020174 1.266452 0.587717
v 4.020288 1.265421 0.935387
v 4.209181 1.273556 0.917186
v 5.397396 0.473560 -1.001803
v 4.097136 1.245903 -0.938045
v 4.213483 1.248677 0.929278
v 4.213483 1.248677 -0.929277
v 5.397396 0.473560 1.001804
v 7.859735 0.190995 0.997937
v 6.137677 1.247476 0.881445
v 4.097469 1.247696 0.576471
v 4.213365 1.247702 0.570889
v 4.209181 1.273557 -0.917185
v 4.024275 1.239294 0.587335
v 4.024365 1.239308 -0.940365
v 4.024275 1.239294 -0.587335
v 4.020288 1.265421 -0.935386
v 4.020666 1.264717 -0.937335
v 4.181408 1.224238 0.900324
v 6.128715 1.224238 -0.842864
v 7.772276 0.215677 -0.952474
v 5.421980 0.484742 -0.951440
v 4.181408 1.224238 -0.900323
v 5.421980 0.484742 0.951441
v 7.772276 0.215677 0.952474
v 6.128715 1.224238 0.842864
vt 0.6556 0.6855
vt 0.6548 0.6802
vt 0.6697 0.6774
vt 0.7235 0.7396
vt 0.7033 0.7413
vt 0.7036 0.7361
vt 0.7368 0.7349
vt 0.1587 0.6379
vt 0.1533 0.4054
vt 0.1618 0.4027
vt 0.1666 0.6238
vt 0.6892 0.7360
vt 0.6562 0.7324
vt 0.6559 0.6863
vt 0.6939 0.6774
vt 0.1642 0.0002
vt 0.0002 0.3354
vt 0.5363 0.4054
vt 0.6895 0.3355
vt 0.5420 0.6214
vt 0.5308 0.6379
vt 0.1724 0.0166
vt 0.1476 0.6214
vt 0.5258 0.0003
vt 0.5175 0.0167
vt 0.7505 0.7373
vt 0.7408 0.7351
vt 0.7444 0.6881
vt 0.7541 0.6891
vt 0.6931 0.6717
vt 0.3133 0.6572
vt 0.3133 0.9441
vt 0.0002 0.8935
vt 0.0002 0.7078
vt 0.6988 0.7381
vt 0.6988 0.6752
vt 0.7033 0.6773
vt 0.6521 0.6851
vt 0.6522 0.7323
vt 0.0002 0.9518
vt 0.5279 0.4027
vt 0.5230 0.6238
vt 0.0002 0.6494
vt 0.6939 0.7383
vt 0.6985 0.6756
vt 0.6691 0.7380
vt 0.6892 0.7412
vt 0.6420 0.6383
vt 0.6420 0.9630
vt 0.7405 0.6889
vt 0.7409 0.6882
vt 0.7045 0.6717
vt 0.7274 0.6791
vt 0.7420 0.6830
vt 0.6424 0.6854
vt 0.6424 0.7338
vt 0.3087 0.3357
vt 0.3811 0.3356
vt 0.6485 0.6713
vt 0.6424 0.6572
vt 0.7012 0.6571
vt 0.7366 0.7397
vt 0.8888 0.6571
vt 0.9476 0.6572
vt 0.9415 0.6713
vt 0.6561 0.7372
vt 0.7077 0.3139
vt 0.6899 0.0002
vt 0.9998 0.0002
vt 0.9820 0.3139
vt 0.9913 0.6308
vt 0.6984 0.6308
vt 0.7021 0.6383
vt 0.8879 0.6383
vn 0.0206 0.1214 0.9924
vn -0.0447 0.3719 0.9272
vn -0.4408 -0.7752 0.4525
vn -0.4434 -0.7739 0.4522
vn -0.0432 0.9991 0.0043
vn 0.0154 0.1354 -0.9907
vn 0.0195 0.1393 -0.9901
vn 0.0188 0.1364 -0.9905
vn 0.0276 0.1362 0.9903
vn 0.0257 0.1340 0.9907
vn 0.0274 0.1345 0.9905
vn -0.1093 -0.9524 0.2847
vn -0.1065 -0.9526 0.2851
vn -0.1097 -0.9515 0.2873
vn -0.1116 -0.9517 0.2862
vn 0.0274 0.1345 -0.9905
vn 0.0261 0.1332 -0.9907
vn -0.2716 -0.9624 -0.0000
vn -0.2705 -0.9627 -0.0025
vn -0.2696 -0.9630 0.0019
vn 0.1020 -0.9948 0.0024
vn 0.0714 0.3998 0.9138
vn -0.0008 1.0000 -0.0015
vn -0.0016 1.0000 0.0004
vn 0.0001 1.0000 0.0000
vn 0.9869 0.1611 0.0001
vn -0.9884 -0.1517 0.0004
vn 0.0006 1.0000 0.0027
vn -0.0012 1.0000 0.0027
vn 0.0171 0.1357 0.9906
vn 0.0173 0.1374 0.9904
vn -0.1080 -0.9528 -0.2836
vn -0.1093 -0.9524 -0.2847
vn -0.4408 -0.7752 -0.4525
vn -0.4418 -0.7741 -0.4535
vn 0.0006 1.0000 -0.0027
vn -0.0012 1.0000 -0.0029
vn 0.9869 0.1611 -0.0001
vn -0.0447 0.3720 -0.9272
vn 0.5230 0.8523 0.0018
vn 0.5242 0.8516 -0.0009
vn 0.5229 0.8524 0.0000
vn 0.5211 0.8535 -0.0018
vn -0.9884 -0.1517 -0.0004
vn 0.0714 0.3998 -0.9138
vn -0.0432 0.9991 -0.0043
vn 0.0206 0.1214 -0.9924
vn 0.1020 -0.9948 -0.0024
vn -0.0146 -0.1316 0.9912
vn -0.0149 -0.1288 0.9916
vn -0.0158 -0.1329 0.9910
vn -0.0293 -0.1177 -0.9926
vn -0.0308 -0.1186 -0.9925
vn -0.2511 -0.9679 -0.0050
vn -0.0277 -0.1153 0.9929
vn -0.0311 -0.1178 0.9926
vn -0.0293 -0.1177 0.9926
vn -0.1459 -0.0081 0.9893
vn -0.2511 -0.9679 0.0050
vn -0.0140 -0.1332 -0.9910
vn -0.0146 -0.1316 -0.9912
vn -0.0131 -0.1307 -0.9913
vn -0.1459 -0.0081 -0.9893
vn -0.5215 -0.8532 0.0000
vn -0.5214 -0.8533 0.0020
vn -0.5230 -0.8523 -0.0000
vn -0.5222 -0.8528 -0.0015
vn 0.0000 -1.0000 0.0000
vn -0.0001 -1.0000 0.0018
vn -0.2691 -0.9631 0.0000
vn -0.0001 1.0000 0.0000
usemtl None
s off
f 1/1/1 2/2/1 3/3/1
f 4/4/2 5/5/2 6/6/2 7/7/2
f 15/8/3 14/9/3 32/10/4 33/11/3
f 10/12/5 11/13/5 12/14/5 1/1/5 13/15/5
f 9/16/6 14/9/7 8/17/8
f 18/18/9 20/19/10 16/20/11 3/21/11
f 32/10/12 14/9/13 9/16/14 31/22/15
f 17/23/16 8/17/17 14/9/16 15/8/16
f 19/24/18 35/25/18 31/22/19 9/16/20
f 4/26/21 26/27/21 25/28/21 15/29/21
f 16/30/22 13/15/22 1/1/22 3/3/22
f 20/31/23 8/32/24 5/33/25 22/34/25
f 5/35/26 17/36/26 23/37/26 6/6/26
f 2/38/27 1/1/27 12/14/27 11/13/27 24/39/27
f 17/40/28 5/33/28 8/32/29
f 20/19/30 18/18/31 19/24/31
f 34/41/32 35/25/33 19/24/33 18/18/33
f 34/41/34 18/18/35 3/21/34 29/42/34
f 16/43/36 20/31/37 22/34/36
f 22/44/38 10/12/38 13/15/38 16/45/38
f 21/46/39 11/13/39 10/12/39 22/47/39
f 8/32/40 20/31/41 19/48/42 9/49/43
f 25/28/44 26/27/44 7/7/44 27/50/44 28/51/44
f 17/52/45 15/53/45 28/51/45 23/37/45
f 6/6/46 23/37/46 28/51/46 27/50/46 7/7/46
f 28/51/47 15/53/47 25/54/47
f 3/55/48 2/38/48 24/39/48 21/56/48
f 32/10/49 31/22/50 30/57/51
f 34/41/52 29/42/52 36/58/53
f 29/59/54 3/60/54 21/61/54
f 32/10/55 30/57/56 33/11/57
f 7/7/58 26/62/58 4/4/58
f 4/63/59 15/64/59 33/65/59
f 36/58/60 35/25/61 34/41/62
f 24/66/63 11/13/63 21/46/63
f 30/67/64 31/68/65 35/69/66 36/70/67
f 36/70/68 29/71/68 33/72/68 30/67/69
f 21/61/70 4/63/70 33/65/70 29/59/70
f 22/73/71 5/74/71 4/63/71 21/61/71
