# Blender v2.78 (sub 0) OBJ File: 'Barricade.blend'
# www.blender.org
mtllib Barricade.mtl
o Cube
v 0.803046 -0.819913 -1.880480
v -1.230512 -0.819913 -1.880481
v 0.704721 1.440109 -1.529829
v 0.253500 1.440109 -1.529830
v 0.367080 0.034283 -1.740528
v -0.480515 0.034283 -1.738576
v 0.640092 -0.720372 -1.118717
v 0.639776 -0.719964 -0.372893
v -1.009715 -0.719962 -0.372972
v -1.010352 -0.720350 -1.118952
v 0.577978 1.340552 -0.927291
v 0.577873 1.340159 -0.309109
v 0.314110 1.340160 -0.309148
v 0.314208 1.340563 -0.927406
v -0.397424 -0.022611 -0.349537
v -0.397325 -0.022228 -1.048573
v 0.261269 0.021833 -1.045436
v 0.261225 0.021734 -0.348481
v 0.367080 0.034283 -0.348105
v 0.803046 -0.819913 -0.376096
v -0.480515 0.034283 -0.347716
v -1.230512 -0.819913 -0.376097
v 0.253500 1.440109 -0.305966
v 0.704721 1.440109 -0.305965
v 0.367080 0.034283 -1.044316
v 0.803046 -0.819913 -1.128288
v -0.480515 0.034283 -1.043146
v -1.230512 -0.819913 -1.128289
v 0.253500 1.440109 -0.917898
v 0.704721 1.440109 -0.917897
v 0.803046 -0.819913 1.880480
v -1.230512 -0.819913 1.880481
v 0.704721 1.440109 1.529829
v 0.253500 1.440109 1.529830
v 0.367080 0.034283 1.740528
v -0.480515 0.034283 1.738576
v 0.640092 -0.720372 1.118717
v 0.639776 -0.719964 0.372893
v -1.009715 -0.719962 0.372972
v -1.010352 -0.720350 1.118952
v 0.577978 1.340552 0.927291
v 0.577873 1.340159 0.309109
v 0.314110 1.340160 0.309148
v 0.314208 1.340563 0.927406
v -0.397424 -0.022611 0.349537
v -0.397325 -0.022228 1.048573
v 0.261269 0.021833 1.045436
v 0.261225 0.021734 0.348481
v 0.367080 0.034283 0.348105
v 0.803046 -0.819913 0.376096
v -0.480515 0.034283 0.347716
v -1.230512 -0.819913 0.376097
v 0.253500 1.440109 0.305966
v 0.704721 1.440109 0.305965
v 0.367080 0.034283 1.044316
v 0.803046 -0.819913 1.128288
v -0.480515 0.034283 1.043146
v -1.230512 -0.819913 1.128289
v 0.253500 1.440109 0.917898
v 0.704721 1.440109 0.917897
v 0.803046 -0.819913 0.000000
v -1.230512 -0.819913 0.000000
v 0.704721 1.440109 0.000000
v 0.253500 1.440109 0.000000
v -0.480515 0.034283 0.000000
v 0.367080 0.034283 0.000000
vt 0.6395 0.5695
vt 0.6290 0.9053
vt 0.5006 0.8911
vt 0.4935 0.5534
vt 0.4016 0.2176
vt 0.5111 0.0000
vt -0.0000 0.0000
vt 0.1885 0.2176
vt 0.4864 0.5749
vt 0.3730 0.5749
vt 0.6480 0.3290
vt 0.4901 0.3115
vt 0.2799 0.6734
vt 0.2609 0.8036
vt 0.1663 0.8036
vt 0.1777 0.6734
vt 0.7341 0.2673
vt 0.7341 0.5075
vt 0.6606 0.5075
vt 0.6546 0.2673
vt 0.7341 0.8427
vt 0.6694 0.8427
vt 0.2322 1.0000
vt 0.1491 1.0000
vt 0.4901 0.9858
vt 0.6185 1.0000
vt 0.1777 0.3972
vt 0.2799 0.3972
vt 0.1619 0.5852
vt 0.1464 0.9393
vt 0.0042 0.9294
vt 0.0012 0.5740
vt 0.1715 0.3714
vt -0.0000 0.3592
vt 0.4701 0.0317
vt 0.3750 0.2182
vt 0.4016 0.2214
vt 0.5111 0.0065
vt 0.2094 0.2071
vt 0.0555 0.0317
vt -0.0000 0.0065
vt 0.1885 0.2214
vt 0.3882 0.5497
vt 0.3730 0.5749
vt 0.4545 0.5497
vt 0.4864 0.5749
vt 0.3750 0.2170
vt 0.4702 0.0295
vt 0.5111 0.0043
vt 0.4016 0.2201
vt 0.0553 0.0295
vt 0.2094 0.2059
vt 0.1885 0.2201
vt -0.0000 0.0043
vt 0.3883 0.5497
vt 0.3730 0.5749
vt 0.4546 0.5497
vt 0.4864 0.5749
vt 0.8475 0.0002
vt 1.0000 0.0000
vt 1.0000 0.3375
vt 0.8475 0.3374
vt 0.9849 0.5078
vt 0.8423 0.5077
vt 0.9604 0.7851
vt 0.8340 0.7849
vt 0.1422 1.0000
vt -0.0000 0.9901
vt 0.8142 0.4298
vt 0.7347 0.4298
vt 0.7347 0.0000
vt 0.8142 0.0000
vt 0.6694 0.9381
vt 0.7341 0.9381
vt 0.8083 0.6325
vt 0.7994 0.9381
vt 0.7347 0.9381
vt 0.7347 0.6325
vt 0.6395 0.5695
vt 0.4935 0.5534
vt 0.5006 0.8911
vt 0.6290 0.9053
vt 0.4016 0.2176
vt 0.1885 0.2176
vt -0.0000 0.0000
vt 0.5111 0.0000
vt 0.4864 0.5749
vt 0.3730 0.5749
vt 0.6480 0.3290
vt 0.4901 0.3115
vt 0.2799 0.6734
vt 0.1777 0.6734
vt 0.1663 0.8036
vt 0.2609 0.8036
vt 0.6546 0.2673
vt 0.6606 0.5075
vt 0.6694 0.8427
vt 0.1491 1.0000
vt 0.2322 1.0000
vt 0.4901 0.9858
vt 0.6185 1.0000
vt 0.2799 0.3972
vt 0.1777 0.3972
vt 0.1619 0.5852
vt 0.0012 0.5740
vt 0.0042 0.9294
vt 0.1464 0.9393
vt 0.1715 0.3714
vt -0.0000 0.3592
vt 0.4701 0.0317
vt 0.5111 0.0065
vt 0.4016 0.2214
vt 0.3750 0.2182
vt 0.2094 0.2071
vt 0.1885 0.2214
vt -0.0000 0.0065
vt 0.0555 0.0317
vt 0.3882 0.5497
vt 0.3730 0.5749
vt 0.4864 0.5749
vt 0.4545 0.5497
vt 0.3750 0.2170
vt 0.4016 0.2201
vt 0.5111 0.0043
vt 0.4702 0.0295
vt 0.0553 0.0295
vt -0.0000 0.0043
vt 0.1885 0.2201
vt 0.2094 0.2059
vt 0.3730 0.5749
vt 0.3883 0.5497
vt 0.4546 0.5497
vt 0.4864 0.5749
vt 0.8475 0.0002
vt 0.8475 0.3374
vt 1.0000 0.3375
vt 1.0000 0.0000
vt 0.8423 0.5077
vt 0.9849 0.5078
vt 0.8340 0.7849
vt 0.9604 0.7851
vt 0.1422 1.0000
vt -0.0000 0.9901
vt 0.8142 0.4298
vt 0.8142 0.0000
vt 0.6694 0.9381
vt 0.8083 0.6325
vt 0.7994 0.9381
vn -0.8864 0.4628 0.0000
vn -0.0007 0.1629 -0.9866
vn -0.0015 0.1481 -0.9890
vn -0.7515 0.6598 -0.0000
vn 0.8907 0.4546 0.0000
vn 0.9723 -0.2335 0.0000
vn 0.0000 1.0000 0.0000
vn 0.0000 -1.0000 0.0000
vn -0.8865 0.4628 0.0001
vn -0.7514 0.6598 0.0003
vn 0.0002 0.0329 -0.9995
vn -0.0005 0.0338 -0.9994
vn -0.0016 0.0305 -0.9995
vn 0.0007 0.0297 -0.9996
vn 0.0001 0.0316 -0.9995
vn 0.0000 0.0316 -0.9995
vn -0.0006 -0.0983 0.9952
vn 0.0015 -0.1010 0.9949
vn 0.0046 -0.0910 0.9958
vn -0.0022 -0.0889 0.9960
vn -0.0002 -0.0945 0.9955
vn -0.0001 -0.0945 0.9955
vn -0.0000 -1.0000 0.0005
vn 0.8907 0.4546 0.0001
vn 0.0000 1.0000 0.0006
vn -0.0007 0.1629 0.9866
vn -0.0015 0.1481 0.9890
vn -0.8865 0.4628 -0.0001
vn -0.7514 0.6598 -0.0003
vn 0.0002 0.0329 0.9995
vn -0.0005 0.0338 0.9994
vn -0.0016 0.0305 0.9995
vn 0.0007 0.0297 0.9996
vn 0.0001 0.0316 0.9995
vn 0.0000 0.0316 0.9995
vn -0.0006 -0.0983 -0.9952
vn 0.0015 -0.1010 -0.9949
vn 0.0046 -0.0910 -0.9958
vn -0.0022 -0.0889 -0.9960
vn -0.0002 -0.0945 -0.9955
vn -0.0001 -0.0945 -0.9955
vn -0.0000 -1.0000 -0.0005
vn 0.8907 0.4546 -0.0001
vn 0.0000 1.0000 -0.0006
usemtl Material
s off
f 27/1/1 29/2/1 4/3/1 6/4/1
f 5/5/2 1/6/2 2/7/2 6/8/2
f 3/9/3 5/5/3 6/8/3 4/10/3
f 28/11/4 27/1/4 6/4/4 2/12/4
f 1/13/5 5/14/5 25/15/5 26/16/5
f 62/17/4 65/18/4 21/19/4 22/20/4
f 65/18/1 64/21/1 23/22/1 21/19/1
f 5/14/6 3/23/6 30/24/6 25/15/6
f 3/25/7 4/3/7 29/2/7 30/26/7
f 1/13/8 26/16/8 28/27/8 2/28/8
f 15/29/9 13/30/9 14/31/9 16/32/9
f 9/33/10 15/29/10 16/32/10 10/34/10
f 8/35/11 18/36/11 19/37/11 20/38/11
f 15/39/12 9/40/12 22/41/12 21/42/12
f 13/43/13 15/39/13 21/42/13 23/44/13
f 18/36/14 12/45/14 24/46/14 19/37/14
f 12/45/15 13/43/15 23/44/15 24/46/15
f 9/40/16 8/35/16 20/38/16 22/41/16
f 17/47/17 7/48/17 26/49/17 25/50/17
f 10/51/18 16/52/18 27/53/18 28/54/18
f 16/52/19 14/55/19 29/56/19 27/53/19
f 11/57/20 17/47/20 25/50/20 30/58/20
f 14/55/21 11/57/21 30/58/21 29/56/21
f 7/48/22 10/51/22 28/54/22 26/49/22
f 9/59/23 10/60/23 7/61/23 8/62/23
f 8/62/24 7/61/24 17/63/24 18/64/24
f 18/64/6 17/63/6 11/65/6 12/66/6
f 12/67/25 11/68/25 14/31/25 13/30/25
f 20/69/8 61/70/8 62/71/8 22/72/8
f 24/73/7 23/22/7 64/21/7 63/74/7
f 19/75/6 24/76/6 63/77/6 66/78/6
f 20/69/5 19/75/5 66/78/5 61/70/5
f 57/79/1 36/80/1 34/81/1 59/82/1
f 35/83/26 36/84/26 32/85/26 31/86/26
f 33/87/27 34/88/27 36/84/27 35/83/27
f 58/89/4 32/90/4 36/80/4 57/79/4
f 31/91/5 56/92/5 55/93/5 35/94/5
f 62/17/4 52/95/4 51/96/4 65/18/4
f 65/18/1 51/96/1 53/97/1 64/21/1
f 35/94/6 55/93/6 60/98/6 33/99/6
f 33/100/7 60/101/7 59/82/7 34/81/7
f 31/91/8 32/102/8 58/103/8 56/92/8
f 45/104/28 46/105/28 44/106/28 43/107/28
f 39/108/29 40/109/29 46/105/29 45/104/29
f 38/110/30 50/111/30 49/112/30 48/113/30
f 45/114/31 51/115/31 52/116/31 39/117/31
f 43/118/32 53/119/32 51/115/32 45/114/32
f 48/113/33 49/112/33 54/120/33 42/121/33
f 42/121/34 54/120/34 53/119/34 43/118/34
f 39/117/35 52/116/35 50/111/35 38/110/35
f 47/122/36 55/123/36 56/124/36 37/125/36
f 40/126/37 58/127/37 57/128/37 46/129/37
f 46/129/38 57/128/38 59/130/38 44/131/38
f 41/132/39 60/133/39 55/123/39 47/122/39
f 44/131/40 59/130/40 60/133/40 41/132/40
f 37/125/41 56/124/41 58/127/41 40/126/41
f 39/134/42 38/135/42 37/136/42 40/137/42
f 38/135/43 48/138/43 47/139/43 37/136/43
f 48/138/6 42/140/6 41/141/6 47/139/6
f 42/142/44 43/107/44 44/106/44 41/143/44
f 50/144/8 52/145/8 62/71/8 61/70/8
f 54/146/7 63/74/7 64/21/7 53/97/7
f 49/147/6 66/78/6 63/77/6 54/148/6
f 50/144/5 61/70/5 66/78/5 49/147/5
