# Blender v2.78 (sub 0) OBJ File: 'Bench.blend'
# www.blender.org
mtllib Bench.mtl
o Cube
v 0.688273 -0.607940 2.024582
v -0.124368 -0.626616 2.024581
v 0.671629 -0.482748 2.038459
v -0.018583 -0.482852 2.038461
v 0.688273 -0.607940 1.951779
v -0.125026 -0.626624 1.951778
v 0.674635 -0.482524 1.964839
v -0.011940 -0.482839 1.964844
v 0.575213 -0.258313 2.026520
v 0.575210 -0.258080 2.104425
v -0.091272 -0.258079 2.104421
v -0.092725 -0.258311 2.026510
v -0.582396 0.260305 1.951778
v -0.461425 0.240878 1.951778
v -0.232986 -0.499854 1.951778
v -0.334035 -0.370681 1.951778
v -0.415650 -0.215222 1.951778
v -0.500666 0.011608 1.951778
v -0.167548 -0.403732 1.951778
v -0.262038 -0.274083 1.951778
v -0.343653 -0.118624 1.951778
v -0.406404 0.056037 1.951778
v 0.712436 -0.530019 2.024582
v -0.060770 -0.530141 2.024581
v -0.060241 -0.530389 1.951778
v 0.714297 -0.530019 1.951781
v 0.618622 -0.210804 2.118301
v -0.133398 -0.210804 2.118299
v -0.134781 -0.210804 2.039573
v 0.618624 -0.210804 2.039575
v 0.617531 -0.609684 2.024582
v 0.649328 -0.530030 2.024582
v 0.651112 -0.530053 1.951780
v 0.617474 -0.609685 1.951779
v 0.611163 -0.482758 2.038459
v 0.614533 -0.482554 1.964840
v 0.410920 -1.079490 1.951779
v 0.410915 -1.079490 2.024582
v 0.330208 -1.081234 2.024582
v 0.330147 -1.081235 1.951779
v 0.602632 -0.677049 1.951779
v 0.578394 -0.744414 1.951779
v 0.546073 -0.811778 1.951779
v 0.505712 -0.879142 1.951779
v 0.456979 -0.946507 1.951779
v 0.396012 -1.013871 1.951779
v 0.396074 -1.013870 2.024582
v 0.457040 -0.946506 2.024582
v 0.505774 -0.879141 2.024582
v 0.546136 -0.811777 2.024582
v 0.578462 -0.744413 2.024582
v 0.602693 -0.677049 2.024582
v 0.474275 -1.012126 2.024582
v 0.529178 -0.944762 2.024582
v 0.577345 -0.877397 2.024582
v 0.617850 -0.810033 2.024582
v 0.649139 -0.742669 2.024582
v 0.671650 -0.675304 2.024582
v 0.474277 -1.012126 1.951779
v 0.529172 -0.944762 1.951779
v 0.577345 -0.877397 1.951779
v 0.617850 -0.810033 1.951779
v 0.649139 -0.742669 1.951779
v 0.671650 -0.675304 1.951779
v -0.374021 -1.081234 2.024582
v -0.374083 -1.081235 1.951779
v -0.245007 -1.013871 1.951779
v -0.244946 -1.013870 2.024582
v 0.688273 -0.607940 -2.024582
v -0.124368 -0.626616 -2.024581
v 0.671629 -0.482748 -2.038459
v -0.018583 -0.482852 -2.038461
v 0.688273 -0.607940 -1.951779
v -0.125026 -0.626624 -1.951778
v 0.674635 -0.482524 -1.964839
v -0.011940 -0.482839 -1.964844
v 0.575213 -0.258313 -2.026520
v 0.575210 -0.258080 -2.104425
v -0.091272 -0.258079 -2.104421
v -0.092725 -0.258311 -2.026510
v -0.582396 0.260305 -1.951778
v -0.461425 0.240878 -1.951778
v -0.232986 -0.499854 -1.951778
v -0.334035 -0.370681 -1.951778
v -0.415650 -0.215222 -1.951778
v -0.500666 0.011608 -1.951778
v -0.167548 -0.403732 -1.951778
v -0.262038 -0.274083 -1.951778
v -0.343653 -0.118624 -1.951778
v -0.406404 0.056037 -1.951778
v 0.712436 -0.530019 -2.024582
v -0.060770 -0.530141 -2.024581
v -0.060241 -0.530389 -1.951778
v 0.714297 -0.530019 -1.951781
v 0.618622 -0.210804 -2.118301
v -0.133398 -0.210804 -2.118299
v -0.134781 -0.210804 -2.039573
v 0.618624 -0.210804 -2.039575
v 0.617531 -0.609684 -2.024582
v 0.649328 -0.530030 -2.024582
v 0.651112 -0.530053 -1.951780
v 0.617474 -0.609685 -1.951779
v 0.611163 -0.482758 -2.038459
v 0.614533 -0.482554 -1.964840
v 0.410920 -1.079490 -1.951779
v 0.410915 -1.079490 -2.024582
v 0.330208 -1.081234 -2.024582
v 0.330147 -1.081235 -1.951779
v 0.602632 -0.677049 -1.951779
v 0.578394 -0.744414 -1.951779
v 0.546073 -0.811778 -1.951779
v 0.505712 -0.879142 -1.951779
v 0.456979 -0.946507 -1.951779
v 0.396012 -1.013871 -1.951779
v 0.396074 -1.013870 -2.024582
v 0.457040 -0.946506 -2.024582
v 0.505774 -0.879141 -2.024582
v 0.546136 -0.811777 -2.024582
v 0.578462 -0.744413 -2.024582
v 0.602693 -0.677049 -2.024582
v 0.474275 -1.012126 -2.024582
v 0.529178 -0.944762 -2.024582
v 0.577345 -0.877397 -2.024582
v 0.617850 -0.810033 -2.024582
v 0.649139 -0.742669 -2.024582
v 0.671650 -0.675304 -2.024582
v 0.474277 -1.012126 -1.951779
v 0.529172 -0.944762 -1.951779
v 0.577345 -0.877397 -1.951779
v 0.617850 -0.810033 -1.951779
v 0.649139 -0.742669 -1.951779
v 0.671650 -0.675304 -1.951779
v -0.374021 -1.081234 -2.024582
v -0.374083 -1.081235 -1.951779
v -0.245007 -1.013871 -1.951779
v -0.244946 -1.013870 -2.024582
v 0.651308 -0.607940 0.000000
v -0.125026 -0.626624 0.000000
v 0.706160 -0.530019 0.000000
v -0.060241 -0.530389 0.000000
v -0.582396 0.260305 0.000000
v -0.461425 0.240878 0.000000
v -0.167548 -0.403732 0.000000
v -0.262038 -0.274083 0.000000
v -0.343653 -0.118624 0.000000
v -0.406404 0.056037 0.000000
v -0.232986 -0.499854 0.000000
v -0.334035 -0.370681 0.000000
v -0.415650 -0.215222 0.000000
v -0.500666 0.011608 0.000000
v 0.570646 -0.609685 0.000000
v 0.635493 -0.530053 0.000000
vt 0.9289 0.1521
vt 0.9266 0.1851
vt 0.5902 0.1612
vt 0.5922 0.1282
vt 0.9907 0.1791
vt 1.0000 0.2153
vt 0.9679 0.2233
vt 0.9586 0.1874
vt 0.9392 0.2219
vt 0.6169 0.2064
vt 0.5885 0.2233
vt 0.5616 0.1779
vt 0.5493 0.3461
vt 0.0327 0.3461
vt 0.0327 0.2768
vt 0.5493 0.2768
vt 0.6931 0.6775
vt 0.6931 0.7114
vt 0.0003 0.7109
vt 0.0002 0.6775
vt 0.6931 0.7364
vt 0.6931 0.9808
vt 0.0000 0.9806
vt 0.0002 0.7364
vt 0.0002 0.7364
vt 0.6931 0.7364
vt 0.6931 1.0000
vt 0.0002 1.0000
vt 0.9059 0.8907
vt 0.9607 0.6408
vt 0.9867 0.6469
vt 0.9320 0.8964
vt 0.9579 0.5254
vt 0.9819 0.5314
vt 0.4630 0.6307
vt 0.4655 0.6685
vt 0.3423 0.6415
vt 0.3409 0.6015
vt 0.0000 0.6071
vt 0.0006 0.6470
vt 0.8768 1.0000
vt 0.8526 0.9949
vt 0.0038 0.1915
vt 0.0306 0.1937
vt 0.0327 0.2444
vt 0.0046 0.2593
vt 0.0048 0.0000
vt 0.0332 0.0096
vt 0.0311 0.0534
vt 0.0024 0.0430
vt 0.0294 0.0965
vt 0.0000 0.0848
vt 0.0291 0.1440
vt 0.0014 0.1292
vt 0.5493 0.5442
vt 0.0327 0.5442
vt 0.0327 0.5001
vt 0.5493 0.5001
vt 0.0327 0.4567
vt 0.5493 0.4567
vt 0.0327 0.4102
vt 0.5493 0.4102
vt 0.8670 0.2695
vt 0.5808 0.2695
vt 0.5616 0.2471
vt 0.8843 0.2471
vt 0.8683 0.2240
vt 0.8956 0.2240
vt 0.9136 0.2464
vt 0.8849 0.2464
vt 1.0000 0.6645
vt 0.9515 0.8856
vt 0.8927 0.8727
vt 0.9413 0.6511
vt 1.0000 0.5439
vt 0.9963 0.6271
vt 0.9500 0.6216
vt 0.9385 0.5386
vt 0.8542 0.9735
vt 0.8837 0.8928
vt 0.9429 0.9159
vt 0.8939 0.9866
vt 0.7850 0.6384
vt 0.8160 0.6391
vt 0.8166 0.6769
vt 0.7859 0.6762
vt 0.9411 0.6415
vt 0.9400 0.6015
vt 0.5836 0.2240
vt 0.5616 0.2464
vt 0.8944 0.2695
vt 0.9130 0.2471
vt 0.0003 0.7109
vt 0.6931 0.7112
vt 0.9626 0.0950
vt 0.9267 0.0945
vt 0.8965 0.0640
vt 0.9332 0.0643
vt 0.9267 0.1275
vt 0.6357 0.1275
vt 0.6358 0.0945
vt 0.9333 0.0309
vt 0.8964 0.0310
vt 0.9758 0.0310
vt 0.9757 0.0644
vt 0.9268 0.0006
vt 0.9628 0.0002
vt 0.5493 0.1446
vt 0.5493 0.1933
vt 0.5494 0.0990
vt 0.5497 0.0574
vt 0.5500 0.0139
vt 0.5493 0.2444
vt 0.9809 0.2799
vt 0.9997 0.3385
vt 0.9412 0.3401
vt 0.9212 0.2851
vt 0.8834 0.3407
vt 0.8589 0.2868
vt 0.8236 0.3404
vt 0.7939 0.2880
vt 0.7595 0.3392
vt 0.7256 0.2889
vt 0.6906 0.3371
vt 0.6535 0.2879
vt 0.6164 0.3339
vt 0.5747 0.2799
vt 1.0000 0.4015
vt 0.9408 0.4003
vt 0.8826 0.3995
vt 0.8227 0.3992
vt 0.7587 0.3992
vt 0.6894 0.3986
vt 0.6144 0.3973
vt 0.9813 0.4607
vt 0.9772 0.5236
vt 0.9176 0.5200
vt 0.9207 0.4562
vt 0.8551 0.5172
vt 0.8575 0.4535
vt 0.7900 0.5148
vt 0.7920 0.4511
vt 0.7215 0.5127
vt 0.7229 0.4487
vt 0.6487 0.5116
vt 0.6488 0.4468
vt 0.5685 0.5121
vt 0.5681 0.4479
vt 0.6204 0.1239
vt 0.5616 0.0931
vt 0.5770 0.0638
vt 0.5770 0.0306
vt 0.6358 0.0000
vt 0.9289 0.1521
vt 0.5922 0.1282
vt 0.5902 0.1612
vt 0.9266 0.1851
vt 0.9907 0.1791
vt 0.9586 0.1874
vt 0.9679 0.2233
vt 1.0000 0.2153
vt 0.6169 0.2064
vt 0.9392 0.2219
vt 0.5616 0.1779
vt 0.5885 0.2233
vt 0.0327 0.2768
vt 0.0327 0.3461
vt 0.0002 0.6775
vt 0.0003 0.7109
vt 0.0002 0.7364
vt 0.0000 0.9806
vt 0.6931 1.0000
vt 0.6931 0.7364
vt 0.9059 0.8907
vt 0.9320 0.8964
vt 0.9867 0.6469
vt 0.9607 0.6408
vt 0.9579 0.5254
vt 0.9819 0.5314
vt 0.4630 0.6307
vt 0.3409 0.6015
vt 0.3423 0.6415
vt 0.4655 0.6685
vt 0.0000 0.6071
vt 0.0006 0.6470
vt 0.8768 1.0000
vt 0.8526 0.9949
vt 0.0038 0.1915
vt 0.0046 0.2593
vt 0.0327 0.2444
vt 0.0306 0.1937
vt 0.0048 0.0000
vt 0.0024 0.0430
vt 0.0311 0.0534
vt 0.0332 0.0096
vt 0.0000 0.0848
vt 0.0294 0.0965
vt 0.0014 0.1292
vt 0.0291 0.1440
vt 0.0327 0.5001
vt 0.0327 0.5442
vt 0.0327 0.4567
vt 0.0327 0.4102
vt 0.8670 0.2695
vt 0.8843 0.2471
vt 0.5616 0.2471
vt 0.5808 0.2695
vt 0.8683 0.2240
vt 0.8849 0.2464
vt 0.9136 0.2464
vt 0.8956 0.2240
vt 1.0000 0.6645
vt 0.9515 0.8856
vt 0.8927 0.8727
vt 0.9413 0.6511
vt 1.0000 0.5439
vt 0.9963 0.6271
vt 0.9500 0.6216
vt 0.9385 0.5386
vt 0.8542 0.9735
vt 0.8837 0.8928
vt 0.9429 0.9159
vt 0.8939 0.9866
vt 0.7850 0.6384
vt 0.7859 0.6762
vt 0.8166 0.6769
vt 0.8160 0.6391
vt 0.9411 0.6415
vt 0.9400 0.6015
vt 0.5836 0.2240
vt 0.5616 0.2464
vt 0.8944 0.2695
vt 0.9130 0.2471
vt 0.6931 0.7112
vt 0.9626 0.0950
vt 0.9332 0.0643
vt 0.8965 0.0640
vt 0.9267 0.0945
vt 0.6358 0.0945
vt 0.6357 0.1275
vt 0.9267 0.1275
vt 0.9333 0.0309
vt 0.8964 0.0310
vt 0.9758 0.0310
vt 0.9757 0.0644
vt 0.9268 0.0006
vt 0.9628 0.0002
vt 0.9809 0.2799
vt 0.9212 0.2851
vt 0.9412 0.3401
vt 0.9997 0.3385
vt 0.8589 0.2868
vt 0.8834 0.3407
vt 0.7939 0.2880
vt 0.8236 0.3404
vt 0.7256 0.2889
vt 0.7595 0.3392
vt 0.6535 0.2879
vt 0.6906 0.3371
vt 0.5747 0.2799
vt 0.6164 0.3339
vt 0.9408 0.4003
vt 1.0000 0.4015
vt 0.8826 0.3995
vt 0.8227 0.3992
vt 0.7587 0.3992
vt 0.6894 0.3986
vt 0.6144 0.3973
vt 0.9813 0.4607
vt 0.9207 0.4562
vt 0.9176 0.5200
vt 0.9772 0.5236
vt 0.8575 0.4535
vt 0.8551 0.5172
vt 0.7920 0.4511
vt 0.7900 0.5148
vt 0.7229 0.4487
vt 0.7215 0.5127
vt 0.6488 0.4468
vt 0.6487 0.5116
vt 0.5681 0.4479
vt 0.5685 0.5121
vt 0.5770 0.0638
vt 0.5616 0.0931
vt 0.6204 0.1239
vt 0.6358 0.0000
vt 0.5770 0.0306
vn 0.0228 -0.9997 -0.0001
vn 0.9518 -0.3065 0.0122
vn -0.0000 -0.0000 1.0000
vn -0.8322 0.5544 -0.0002
vn -0.9500 -0.3122 0.0000
vn 0.8875 -0.4606 -0.0103
vn -0.0005 1.0000 0.0000
vn 0.0236 -0.9997 -0.0003
vn 0.0000 1.0000 0.0000
vn -0.9741 -0.2260 0.0059
vn 0.9486 0.3149 0.0320
vn -0.0000 -1.0000 0.0030
vn 0.9595 0.2814 0.0118
vn -0.7613 -0.6484 -0.0000
vn -0.7876 -0.6161 -0.0000
vn -0.8854 -0.4648 -0.0000
vn -0.9364 -0.3510 0.0000
vn 0.0000 -0.2817 0.9595
vn -0.0001 0.2650 -0.9642
vn 0.0000 0.2650 -0.9642
vn 0.0000 -0.2816 0.9595
vn -0.0001 0.2649 -0.9643
vn -0.0001 0.2652 -0.9642
vn -0.0003 1.0000 0.0029
vn -0.9183 -0.3955 -0.0182
vn -0.0003 1.0000 0.0014
vn -0.0001 0.2651 -0.9642
vn 0.0230 -0.9997 -0.0005
vn 0.0216 -0.9998 -0.0000
vn 0.7284 -0.6851 0.0000
vn 0.0000 0.0000 -1.0000
vn 0.9411 0.3381 0.0000
vn 0.8854 0.4648 0.0000
vn 0.8081 0.5890 0.0000
vn 0.7630 0.6464 0.0000
vn 0.9584 0.2853 0.0000
vn 0.1586 0.9873 0.0000
vn 0.9709 -0.2396 0.0000
vn 0.9484 -0.3169 0.0000
vn 0.9069 -0.4213 0.0000
vn 0.8570 -0.5153 0.0000
vn 0.8134 -0.5817 -0.0000
vn 0.7752 -0.6317 -0.0000
vn -0.9766 0.2151 0.0008
vn -0.9410 0.3385 0.0008
vn -0.9016 0.4326 0.0008
vn -0.8578 0.5140 0.0007
vn -0.8102 0.5861 0.0007
vn -0.7414 0.6710 0.0006
vn -0.4627 0.8865 0.0004
vn 0.0000 -1.0000 0.0000
vn 0.0228 -0.9997 0.0001
vn 0.9518 -0.3065 -0.0122
vn -0.8322 0.5544 0.0002
vn 0.8875 -0.4606 0.0103
vn 0.0236 -0.9997 0.0003
vn -0.9741 -0.2260 -0.0059
vn 0.9486 0.3149 -0.0320
vn -0.0000 -1.0000 -0.0030
vn 0.9595 0.2814 -0.0118
vn 0.0000 -0.2817 -0.9595
vn -0.0001 0.2650 0.9642
vn 0.0000 0.2650 0.9642
vn 0.0000 -0.2816 -0.9595
vn -0.0001 0.2649 0.9643
vn -0.0001 0.2652 0.9642
vn -0.0003 1.0000 -0.0029
vn -0.9183 -0.3955 0.0182
vn -0.0003 1.0000 -0.0014
vn -0.0001 0.2651 0.9642
vn 0.0230 -0.9997 0.0005
vn -0.9766 0.2151 -0.0008
vn -0.9410 0.3385 -0.0008
vn -0.9016 0.4326 -0.0008
vn -0.8578 0.5140 -0.0007
vn -0.8102 0.5861 -0.0007
vn -0.7414 0.6710 -0.0006
vn -0.4627 0.8865 -0.0004
usemtl Material
s off
f 34/1/1 31/2/1 2/3/1 6/4/1
f 5/5/2 26/6/2 23/7/2 1/8/2
f 31/2/3 32/9/3 24/10/3 2/3/3
f 2/3/4 24/10/4 25/11/4 6/12/4
f 150/13/5 18/14/5 13/15/5 141/16/5
f 137/17/6 139/18/6 26/19/6 5/20/6
f 152/21/7 140/22/7 25/23/7 33/24/7
f 151/25/8 34/26/8 6/27/8 138/28/8
f 30/29/9 29/30/9 28/31/9 27/32/9
f 25/33/10 24/34/10 28/31/10 29/30/10
f 4/35/11 8/36/11 12/37/11 11/38/11
f 10/39/12 11/38/12 12/37/12 9/40/12
f 23/41/13 26/42/13 30/29/13 27/32/13
f 18/43/3 22/44/3 14/45/3 13/46/3
f 6/47/3 25/48/3 19/49/3 15/50/3
f 15/50/3 19/49/3 20/51/3 16/52/3
f 16/52/3 20/51/3 21/53/3 17/54/3
f 17/54/3 21/53/3 22/44/3 18/43/3
f 138/55/14 6/56/14 15/57/14 147/58/14
f 147/58/15 15/57/15 16/59/15 148/60/15
f 148/60/16 16/59/16 17/61/16 149/62/16
f 149/62/17 17/61/17 18/14/17 150/13/17
f 35/63/18 4/64/18 24/65/18 32/66/18
f 36/67/19 7/68/19 26/69/19 33/70/19
f 11/71/18 10/72/18 27/32/18 28/31/18
f 9/73/20 12/74/20 29/30/20 30/29/20
f 4/75/21 11/76/21 28/31/21 24/34/21
f 12/77/22 8/78/22 25/33/22 29/30/22
f 7/79/23 9/80/23 30/29/23 26/42/23
f 10/81/18 3/82/18 23/41/18 27/32/18
f 35/83/24 3/84/24 7/85/24 36/86/24
f 9/87/25 7/85/25 3/84/25 10/88/25
f 4/35/26 35/83/26 36/86/26 8/36/26
f 8/89/27 36/67/27 33/70/27 25/90/27
f 3/91/21 35/63/21 32/66/21 23/92/21
f 137/93/28 5/94/28 34/26/28 151/25/28
f 53/95/3 47/96/3 39/97/3 38/98/3
f 139/18/7 152/21/7 33/24/7 26/19/7
f 1/8/3 23/7/3 32/9/3 31/2/3
f 47/96/9 46/99/9 67/100/9 68/101/9
f 37/102/29 38/98/29 39/97/29 40/103/29
f 59/104/30 53/105/30 38/98/30 37/102/30
f 46/106/31 59/107/31 37/102/31 40/103/31
f 21/53/32 145/108/32 146/109/32 22/44/32
f 20/51/33 144/110/33 145/108/33 21/53/33
f 19/49/34 143/111/34 144/110/34 20/51/34
f 25/48/35 140/112/35 143/111/35 19/49/35
f 22/44/36 146/109/36 142/113/36 14/45/36
f 13/15/37 14/45/37 142/113/37 141/16/37
f 34/114/31 5/115/31 64/116/31 41/117/31
f 41/117/31 64/116/31 63/118/31 42/119/31
f 42/119/31 63/118/31 62/120/31 43/121/31
f 43/121/31 62/120/31 61/122/31 44/123/31
f 44/123/31 61/122/31 60/124/31 45/125/31
f 45/125/31 60/124/31 59/126/31 46/127/31
f 5/115/38 1/128/38 58/129/38 64/116/38
f 64/116/39 58/129/39 57/130/39 63/118/39
f 63/118/40 57/130/40 56/131/40 62/120/40
f 62/120/41 56/131/41 55/132/41 61/122/41
f 61/122/42 55/132/42 54/133/42 60/124/42
f 60/124/43 54/133/43 53/134/43 59/126/43
f 31/135/44 34/136/44 41/137/44 52/138/44
f 52/138/45 41/137/45 42/139/45 51/140/45
f 51/140/46 42/139/46 43/141/46 50/142/46
f 50/142/47 43/141/47 44/143/47 49/144/47
f 49/144/48 44/143/48 45/145/48 48/146/48
f 48/146/49 45/145/49 46/147/49 47/148/49
f 1/128/3 31/135/3 52/138/3 58/129/3
f 58/129/3 52/138/3 51/140/3 57/130/3
f 57/130/3 51/140/3 50/142/3 56/131/3
f 56/131/3 50/142/3 49/144/3 55/132/3
f 55/132/3 49/144/3 48/146/3 54/133/3
f 54/133/3 48/146/3 47/148/3 53/134/3
f 68/101/50 67/149/50 66/150/50 65/151/50
f 39/97/3 47/96/3 68/101/3 65/151/3
f 46/106/31 40/103/31 66/152/31 67/153/31
f 40/103/51 39/97/51 65/151/51 66/152/51
f 102/154/52 74/155/52 70/156/52 99/157/52
f 73/158/53 69/159/53 91/160/53 94/161/53
f 99/157/31 70/156/31 92/162/31 100/163/31
f 70/156/54 74/164/54 93/165/54 92/162/54
f 150/13/5 141/16/5 81/166/5 86/167/5
f 137/17/55 73/168/55 94/169/55 139/18/55
f 152/21/7 101/170/7 93/171/7 140/22/7
f 151/25/56 138/28/56 74/172/56 102/173/56
f 98/174/9 95/175/9 96/176/9 97/177/9
f 93/178/57 97/177/57 96/176/57 92/179/57
f 72/180/58 79/181/58 80/182/58 76/183/58
f 78/184/59 77/185/59 80/182/59 79/181/59
f 91/186/60 95/175/60 98/174/60 94/187/60
f 86/188/31 81/189/31 82/190/31 90/191/31
f 74/192/31 83/193/31 87/194/31 93/195/31
f 83/193/31 84/196/31 88/197/31 87/194/31
f 84/196/31 85/198/31 89/199/31 88/197/31
f 85/198/31 86/188/31 90/191/31 89/199/31
f 138/55/14 147/58/14 83/200/14 74/201/14
f 147/58/15 148/60/15 84/202/15 83/200/15
f 148/60/16 149/62/16 85/203/16 84/202/16
f 149/62/17 150/13/17 86/167/17 85/203/17
f 103/204/61 100/205/61 92/206/61 72/207/61
f 104/208/62 101/209/62 94/210/62 75/211/62
f 79/212/61 96/176/61 95/175/61 78/213/61
f 77/214/63 98/174/63 97/177/63 80/215/63
f 72/216/64 92/179/64 96/176/64 79/217/64
f 80/218/65 97/177/65 93/178/65 76/219/65
f 75/220/66 94/187/66 98/174/66 77/221/66
f 78/222/61 95/175/61 91/186/61 71/223/61
f 103/224/67 104/225/67 75/226/67 71/227/67
f 77/228/68 78/229/68 71/227/68 75/226/68
f 72/180/69 76/183/69 104/225/69 103/224/69
f 76/230/70 93/231/70 101/209/70 104/208/70
f 71/232/64 91/233/64 100/205/64 103/204/64
f 137/93/71 151/25/71 102/173/71 73/234/71
f 121/235/31 106/236/31 107/237/31 115/238/31
f 139/18/7 94/169/7 101/170/7 152/21/7
f 69/159/31 99/157/31 100/163/31 91/160/31
f 115/238/9 136/239/9 135/240/9 114/241/9
f 105/242/29 108/243/29 107/237/29 106/236/29
f 127/244/30 105/242/30 106/236/30 121/245/30
f 114/246/3 108/243/3 105/242/3 127/247/3
f 89/199/32 90/191/32 146/109/32 145/108/32
f 88/197/33 89/199/33 145/108/33 144/110/33
f 87/194/34 88/197/34 144/110/34 143/111/34
f 93/195/35 87/194/35 143/111/35 140/112/35
f 90/191/36 82/190/36 142/113/36 146/109/36
f 81/166/37 141/16/37 142/113/37 82/190/37
f 102/248/3 109/249/3 132/250/3 73/251/3
f 109/249/3 110/252/3 131/253/3 132/250/3
f 110/252/3 111/254/3 130/255/3 131/253/3
f 111/254/3 112/256/3 129/257/3 130/255/3
f 112/256/3 113/258/3 128/259/3 129/257/3
f 113/258/3 114/260/3 127/261/3 128/259/3
f 73/251/38 132/250/38 126/262/38 69/263/38
f 132/250/39 131/253/39 125/264/39 126/262/39
f 131/253/40 130/255/40 124/265/40 125/264/40
f 130/255/41 129/257/41 123/266/41 124/265/41
f 129/257/42 128/259/42 122/267/42 123/266/42
f 128/259/43 127/261/43 121/268/43 122/267/43
f 99/269/72 120/270/72 109/271/72 102/272/72
f 120/270/73 119/273/73 110/274/73 109/271/73
f 119/273/74 118/275/74 111/276/74 110/274/74
f 118/275/75 117/277/75 112/278/75 111/276/75
f 117/277/76 116/279/76 113/280/76 112/278/76
f 116/279/77 115/281/77 114/282/77 113/280/77
f 69/263/31 126/262/31 120/270/31 99/269/31
f 126/262/31 125/264/31 119/273/31 120/270/31
f 125/264/31 124/265/31 118/275/31 119/273/31
f 124/265/31 123/266/31 117/277/31 118/275/31
f 123/266/31 122/267/31 116/279/31 117/277/31
f 122/267/31 121/268/31 115/281/31 116/279/31
f 136/239/78 133/283/78 134/284/78 135/285/78
f 107/237/31 133/283/31 136/239/31 115/238/31
f 114/246/3 135/286/3 134/287/3 108/243/3
f 108/243/51 134/287/51 133/283/51 107/237/51
