# Blender v2.78 (sub 0) OBJ File: 'Broken_Fuse.obj'
# www.blender.org
mtllib Broken_Fuse_Bottom.mtl
o Broken_Fuse_Cube
v 0.050340 -0.653519 -0.326135
v 0.071873 -0.559846 -0.356727
v 0.097986 -0.553866 -0.329194
v 0.076409 -0.644991 -0.298639
v 0.094554 -0.553442 -0.300615
v 0.073495 -0.644274 -0.270098
v 0.061928 -0.559111 -0.273076
v 0.041938 -0.651915 -0.242603
v 0.023162 -0.567241 -0.277492
v -0.002283 -0.665552 -0.265690
v 0.009696 -0.570533 -0.300615
v 0.013033 -0.570479 -0.329194
v 0.068039 -0.560229 -0.348408
v 0.036025 -0.566299 -0.344867
v 0.020847 -0.568811 -0.326324
v 0.018160 -0.568816 -0.303401
v 0.028960 -0.566158 -0.284856
v 0.060060 -0.559669 -0.281313
v 0.086223 -0.555116 -0.303402
v 0.088971 -0.555418 -0.326324
v 0.031947 -0.567340 -0.352312
v 0.011197 -0.664014 -0.321726
v 0.114872 -0.501478 -0.345030
v 0.115537 -0.511266 -0.369698
v 0.134378 -0.489474 -0.401258
v 0.134447 -0.477235 -0.377722
v 0.086589 -0.525217 -0.393379
v 0.091176 -0.508743 -0.427360
v 0.117849 -0.501464 -0.420199
v 0.038124 -0.522124 -0.367203
v 0.051655 -0.526483 -0.383174
v 0.069592 -0.504614 -0.414009
v 0.056413 -0.498344 -0.398796
v 0.111311 -0.494134 -0.296931
v 0.119654 -0.464796 -0.282919
v 0.096351 -0.481517 -0.263754
v 0.074466 -0.506979 -0.279573
v 0.043518 -0.510737 -0.282764
v 0.050600 -0.483882 -0.269872
v 0.081393 -0.481478 -0.266916
v 0.036880 -0.514709 -0.276148
v 0.043447 -0.489469 -0.263754
v 0.083535 -0.522773 -0.386210
v 0.106744 -0.511568 -0.367203
v 0.125597 -0.489347 -0.398866
v 0.101646 -0.501904 -0.416949
v 0.029977 -0.524404 -0.369698
v 0.048119 -0.500680 -0.401161
v 0.111755 -0.464166 -0.285203
v 0.067291 -0.491066 -0.256354
v 0.103232 -0.494301 -0.299412
v 0.075446 -0.509893 -0.272164
v 0.068801 -0.534223 -0.276535
v 0.030103 -0.540691 -0.280757
v 0.094710 -0.524689 -0.305501
v 0.102932 -0.523752 -0.302845
v 0.067342 -0.533104 -0.284404
v 0.036290 -0.538224 -0.287789
v 0.125648 -0.479518 -0.379992
v 0.064552 -0.508497 -0.420124
v 0.106210 -0.503712 -0.347435
v 0.046842 -0.529844 -0.389595
v 0.020774 -0.548895 -0.349229
v 0.040011 -0.546030 -0.372387
v 0.102266 -0.533538 -0.320597
v 0.093943 -0.535059 -0.323383
v 0.080128 -0.539311 -0.376809
v 0.106035 -0.533939 -0.349229
v 0.076194 -0.539664 -0.368458
v 0.044026 -0.545115 -0.364913
v 0.096961 -0.535341 -0.346346
v 0.028589 -0.547406 -0.346345
v 0.145025 -1.149249 -0.143530
v 0.087247 -1.056204 -0.152767
v 0.121335 -1.035039 -0.157112
v 0.178701 -1.127436 -0.147876
v 0.045972 -0.973750 -0.176253
v 0.080919 -0.954037 -0.180599
v 0.019773 -0.897694 -0.208856
v 0.055764 -0.879838 -0.213208
v 0.005982 -0.823980 -0.246393
v 0.043092 -0.808318 -0.250768
v 0.003088 -0.747896 -0.285202
v 0.041266 -0.734677 -0.289596
v 0.138087 -1.153742 -0.088305
v 0.080225 -1.060564 -0.097541
v 0.038488 -0.977684 -0.120974
v 0.011109 -0.900870 -0.153417
v -0.004265 -0.826279 -0.190730
v -0.008793 -0.749669 -0.229338
v 0.178701 -1.127436 -0.065551
v 0.121335 -1.035039 -0.074787
v 0.080782 -0.953964 -0.098251
v 0.054326 -0.879419 -0.130699
v 0.039217 -0.806826 -0.167860
v 0.035007 -0.732788 -0.206338
v 0.203802 -1.111177 -0.092651
v 0.146742 -1.019263 -0.101887
v 0.106526 -0.939058 -0.125296
v 0.081011 -0.865702 -0.157741
v 0.067634 -0.795148 -0.195073
v 0.065163 -0.723104 -0.233703
v 0.203802 -1.111177 -0.120776
v 0.146742 -1.019263 -0.130012
v 0.106687 -0.939185 -0.153454
v 0.081666 -0.865978 -0.185955
v 0.069183 -0.795853 -0.223432
v 0.067392 -0.724023 -0.262186
v 0.167686 -0.474427 0.454851
v 0.207275 -0.379217 0.562468
v 0.114354 -0.373903 0.565296
v 0.074695 -0.467328 0.460273
v 0.102817 -0.344620 0.493729
v 0.062909 -0.443310 0.387395
v 0.149365 -0.335053 0.462435
v 0.109389 -0.436906 0.354071
v 0.205025 -0.348404 0.487568
v 0.165188 -0.449325 0.378213
v 0.196581 -0.366890 0.538068
v 0.184305 -0.345100 0.482717
v 0.151410 -0.339991 0.474785
v 0.114409 -0.358958 0.529199
v 0.189103 -0.338229 0.656226
v 0.245617 -0.358277 0.607652
v 0.266695 -0.346066 0.701203
v 0.315261 -0.339201 0.637860
v 0.298379 -0.350358 0.675062
v 0.239974 -0.305956 0.549738
v 0.249340 -0.340492 0.606615
v 0.290309 -0.332271 0.652560
v 0.281811 -0.294947 0.597717
v 0.106973 -0.317379 0.627905
v 0.097071 -0.288233 0.679065
v 0.074624 -0.288087 0.633104
v 0.108404 -0.304509 0.588919
v 0.115124 -0.285056 0.548489
v 0.094559 -0.255536 0.576186
v 0.082841 -0.276583 0.615382
v 0.098282 -0.292510 0.550306
v 0.087325 -0.256025 0.561665
v 0.258113 -0.314032 0.548581
v 0.070773 -0.275969 0.588205
v 0.116511 -0.346033 0.597579
v 0.106253 -0.318780 0.523179
v 0.117183 -0.332037 0.560132
v 0.237673 -0.323967 0.694184
v 0.232240 -0.327808 0.706380
v 0.311065 -0.316831 0.603863
v 0.287263 -0.291586 0.586118
v 0.194701 -0.334454 0.644266
v 0.162453 -0.360650 0.599130
v 0.156378 -0.364994 0.610025
v 0.232472 -0.330561 0.518572
v 0.223969 -0.355430 0.577674
v 0.211743 -0.327178 0.513483
v -0.127961 -1.141643 0.117464
v -0.100554 -0.980844 0.123091
v -0.096585 -0.983028 0.202251
v -0.123862 -1.142342 0.196644
v -0.056239 -0.847749 0.143271
v -0.052536 -0.853248 0.222346
v -0.002209 -0.735412 0.178641
v 0.001189 -0.745176 0.257523
v 0.056080 -0.636600 0.228402
v 0.059169 -0.651130 0.306862
v 0.113631 -0.543646 0.293627
v 0.116413 -0.563269 0.371395
v -0.184097 -1.136596 0.097352
v -0.156670 -0.975564 0.102982
v -0.112329 -0.841555 0.122962
v -0.058239 -0.727760 0.157676
v 0.000093 -0.626974 0.206493
v 0.057692 -0.532405 0.270762
v -0.229777 -1.132723 0.135818
v -0.202424 -0.972537 0.141436
v -0.158219 -0.840775 0.161557
v -0.104239 -0.729195 0.195674
v -0.046088 -0.629451 0.243254
v 0.011373 -0.536495 0.305836
v -0.216522 -1.134211 0.210074
v -0.189288 -0.975392 0.215674
v -0.145333 -0.846243 0.235500
v -0.091675 -0.738056 0.269548
v -0.033784 -0.643221 0.317120
v 0.023405 -0.555336 0.379468
v -0.038192 -1.701602 -0.586644
v -0.210213 -1.197954 -0.530751
v 0.412165 -1.197954 -0.328528
v 0.305850 -1.701602 -0.474858
v 0.518480 -1.701602 -0.182198
v 0.518480 -1.197954 0.179550
v 0.518480 -1.701602 0.179550
v 0.305850 -1.197954 0.472210
v 0.305850 -1.701602 0.472210
v -0.210213 -1.197954 0.528103
v -0.038192 -1.701602 0.583996
v -0.382234 -1.701602 0.472210
v -0.594864 -1.197954 -0.001324
v -0.594864 -1.701602 0.179550
v -0.594864 -1.701602 -0.182198
v -0.382234 -1.701602 -0.474858
v -0.167351 -1.116282 -0.398836
v 0.299952 -1.116282 -0.247000
v 0.379777 -1.116282 0.134482
v 0.220127 -1.116282 0.354222
v -0.167352 -1.116282 0.396188
v -0.456161 -1.116282 -0.001324
v -0.136450 -0.997282 -0.303730
v -0.236656 -0.997282 -0.269123
v -0.234708 -1.084594 -0.271805
v 0.277829 -0.997282 0.104672
v 0.279777 -0.997282 0.101990
v 0.279777 -1.084594 0.101990
v 0.277829 -1.084594 0.104672
v 0.299952 -0.997282 -0.247000
v 0.379777 -0.997282 0.134482
v -0.167352 -0.997282 0.396188
v -0.456161 -0.997282 -0.001324
v 0.299952 -0.997282 0.244352
v 0.220127 -0.997282 0.354222
v -0.167351 -0.997282 -0.398836
v -0.136450 -0.997282 0.301082
v 0.158324 -0.997282 0.269157
v -0.038192 -1.084594 0.333008
v -0.376336 -0.997282 -0.247000
v -0.594864 -2.286922 -0.182198
v -0.382234 -2.286922 -0.474858
v -0.382234 -2.286922 0.472210
v -0.594864 -2.286922 0.179550
v 0.305850 -2.286922 0.472210
v -0.038192 -2.286922 0.583996
v 0.518480 -2.286922 -0.182198
v 0.518480 -2.286922 0.179550
v -0.038192 -2.286922 -0.586644
v 0.305850 -2.286922 -0.474858
v -0.468165 -2.286922 -0.739324
v -0.468165 -2.127478 -0.739324
v -0.124122 -2.127478 -0.851110
v -0.124122 -2.286922 -0.851110
v -0.872941 -2.286922 0.179550
v -0.872941 -2.127478 0.179550
v -0.872941 -2.127478 -0.182198
v -0.872941 -2.286922 -0.182198
v -0.124123 -2.286922 0.848462
v -0.124123 -2.127478 0.848462
v -0.468165 -2.127478 0.736676
v -0.468165 -2.286922 0.736676
v 0.743449 -2.286922 0.342999
v 0.743449 -2.127478 0.342999
v 0.530819 -2.127478 0.635659
v 0.530819 -2.286922 0.635659
v 0.530819 -2.286922 -0.638307
v 0.530819 -2.127478 -0.638307
v 0.743449 -2.127478 -0.345647
v 0.743449 -2.286922 -0.345647
v -0.356161 -0.997282 -0.001324
v -0.234708 -1.084594 0.269157
v -0.356161 -1.084594 0.101990
v 0.279777 -1.084594 -0.104638
v -0.354213 -0.997282 -0.107320
v 0.160272 -0.997282 0.266475
v 0.219050 -0.997282 -0.188221
v -0.354213 -1.084594 -0.107320
v -0.356161 -1.084594 -0.104638
v 0.158324 -1.084594 -0.271804
v -0.038192 -1.084594 -0.335656
v -0.236656 -1.084594 -0.269123
v 0.160272 -1.084594 0.266475
v 0.158324 -1.084594 0.269157
vn 0.7220 -0.3633 -0.5889
vn 0.9752 -0.1909 0.1122
vn 0.6332 0.1128 0.7657
vn -0.1767 0.3412 0.9232
vn -0.8475 0.2739 0.4546
vn -0.9899 0.0824 -0.1154
vn -0.1950 0.9804 -0.0291
vn -0.7711 -0.0356 -0.6357
vn -0.0387 -0.2980 -0.9538
vn 0.8748 -0.4365 0.2103
vn 0.3362 -0.8645 -0.3737
vn 0.7768 0.2002 0.5971
vn 0.7373 -0.4502 0.5037
vn 0.0472 0.4278 -0.9026
vn -0.7548 0.4358 -0.4903
vn -0.2061 0.9783 -0.0197
vn -0.2064 0.9782 -0.0204
vn -0.2041 0.9787 -0.0229
vn -0.2034 0.9788 -0.0227
vn -0.5679 0.7951 0.2127
vn -0.3584 0.8334 0.4208
vn -0.1132 0.8106 0.5745
vn -0.1153 0.8075 0.5785
vn -0.1181 0.8095 0.5751
vn -0.1200 0.8086 0.5760
vn -0.1216 0.8064 0.5787
vn -0.6342 0.4719 -0.6124
vn 0.3645 -0.5012 0.7848
vn 0.2773 0.3466 -0.8961
vn -0.2575 -0.6844 0.6821
vn -0.1400 0.1652 0.9763
vn -0.0821 -0.1538 0.9847
vn 0.3310 -0.1598 -0.9300
vn 0.2922 0.1078 -0.9503
vn -0.6399 0.1078 -0.7608
vn -0.6336 0.3122 -0.7079
vn -0.7776 0.1338 -0.6144
vn -0.7617 0.3027 -0.5729
vn 0.1363 -0.1449 -0.9800
vn 0.0816 0.1590 -0.9839
vn 0.6392 -0.0991 0.7627
vn 0.6335 -0.3115 0.7083
vn -0.1154 0.8807 -0.4594
vn -0.1159 0.8801 -0.4604
vn -0.1163 0.8798 -0.4609
vn -0.1115 0.8816 -0.4586
vn -0.1129 0.8814 -0.4586
vn -0.1113 0.8817 -0.4585
vn -0.1158 0.8790 -0.4626
vn -0.1164 0.8793 -0.4618
vn -0.1163 0.8793 -0.4618
vn -0.8765 0.4335 -0.2093
vn -0.0312 0.8296 0.5575
vn 0.5974 -0.8018 -0.0138
vn 0.0438 -0.8305 -0.5553
vn -0.3318 0.8415 0.4263
vn -0.7767 -0.2025 -0.5964
vn -0.7087 -0.3246 -0.6264
vn -0.7457 -0.2702 -0.6091
vn -0.3392 0.7275 0.5965
vn -0.3498 0.6518 0.6729
vn 0.0459 -0.7009 -0.7117
vn 0.0391 -0.7516 -0.6584
vn 0.6033 -0.6708 -0.4313
vn 0.6237 -0.6985 -0.3509
vn -0.0474 0.7014 0.7112
vn -0.0313 0.7181 0.6953
vn -0.9597 0.2523 -0.1238
vn -0.9527 0.2741 -0.1314
vn -0.3667 0.7015 0.6111
vn -0.3741 0.6717 0.6394
vn -0.6054 0.6677 0.4332
vn -0.6241 0.6599 0.4183
vn 0.7076 0.3275 0.6261
vn 0.7486 0.2532 0.6127
vn 0.9590 -0.2545 0.1244
vn 0.9520 -0.2762 0.1320
vn -0.0463 -0.1274 -0.9908
vn 0.0330 -0.2608 -0.9648
vn 0.0839 -0.3724 -0.9243
vn 0.0968 -0.4432 -0.8912
vn 0.0722 -0.4573 -0.8864
vn 0.0207 -0.4065 -0.9134
vn -0.8335 -0.5323 -0.1480
vn -0.8660 -0.4772 -0.1495
vn -0.9092 -0.3856 -0.1574
vn -0.9458 -0.2741 -0.1745
vn -0.9691 -0.1473 -0.1977
vn -0.9751 -0.0112 -0.2213
vn -0.4012 -0.1593 0.9020
vn -0.4825 0.0084 0.8759
vn -0.5302 0.1677 0.8311
vn -0.5479 0.2846 0.7867
vn -0.5466 0.3561 0.7579
vn -0.5289 0.3776 0.7601
vn 0.5359 0.4068 0.7398
vn 0.4985 0.4627 0.7331
vn 0.4830 0.4885 0.7267
vn 0.4955 0.4765 0.7262
vn 0.5355 0.4132 0.7365
vn 0.5902 0.2869 0.7545
vn 0.8496 0.5274 0.0000
vn 0.8940 0.4482 0.0015
vn 0.9438 0.3304 0.0113
vn 0.9795 0.1985 0.0347
vn 0.9959 0.0641 0.0644
vn 0.9935 -0.0670 0.0915
vn 0.6029 0.3002 -0.7392
vn 0.6828 0.1318 -0.7186
vn 0.7366 -0.0473 -0.6747
vn 0.7556 -0.1968 -0.6248
vn 0.7505 -0.2964 -0.5907
vn 0.7373 -0.3473 -0.5795
vn -0.0201 -0.7442 0.6677
vn -0.9630 0.1620 0.2153
vn -0.4726 0.7249 -0.5012
vn 0.4387 0.5717 -0.6933
vn 0.0516 0.9297 0.3647
vn 0.0525 0.9300 0.3639
vn 0.0594 0.9319 0.3577
vn 0.0527 0.9301 0.3635
vn 0.9598 -0.2524 -0.1232
vn -0.1962 -0.9657 0.1703
vn 0.3168 -0.9385 -0.1377
vn -0.6704 0.5706 0.4742
vn -0.6141 -0.7310 0.2976
vn 0.8628 0.3410 0.3732
vn -0.2060 0.2339 -0.9502
vn 0.0613 0.9323 0.3566
vn 0.0614 0.9324 0.3561
vn 0.3321 0.8141 -0.4764
vn -0.5411 0.7975 0.2668
vn -0.5425 0.7969 0.2657
vn -0.5467 0.7951 0.2626
vn -0.5483 0.7944 0.2614
vn -0.5514 0.7934 0.2576
vn 0.8585 0.5126 0.0154
vn -0.6675 -0.7290 -0.1518
vn -0.8217 -0.0707 -0.5656
vn -0.9904 -0.0463 0.1300
vn -0.9494 -0.3139 0.0107
vn 0.9974 -0.0696 -0.0175
vn 0.9723 0.2109 0.1009
vn -0.3500 0.6194 -0.7027
vn 0.9583 0.1590 -0.2374
vn 0.9986 0.0338 -0.0400
vn 0.4727 0.7604 0.4454
vn 0.4721 0.7621 0.4431
vn 0.4726 0.7619 0.4430
vn 0.4704 0.7622 0.4447
vn 0.4716 0.7609 0.4457
vn 0.4753 0.7599 0.4435
vn 0.4731 0.7614 0.4431
vn -0.0063 0.9825 -0.1862
vn -0.0232 -0.9906 0.1345
vn 0.4522 -0.7571 -0.4715
vn -0.3670 0.9220 0.1231
vn 0.7127 0.1992 -0.6726
vn -0.6074 0.7939 -0.0282
vn 0.7145 -0.6350 -0.2937
vn 0.7383 -0.6055 -0.2973
vn -0.1437 0.9732 -0.1798
vn -0.1802 0.9127 -0.3667
vn 0.2705 0.7092 -0.6510
vn 0.2768 0.7207 -0.6356
vn -0.7638 0.5245 0.3761
vn -0.7514 0.5392 0.3804
vn 0.0795 -0.9285 0.3628
vn 0.0788 -0.8858 0.4573
vn 0.9846 -0.1663 -0.0532
vn 0.9489 -0.3096 -0.0610
vn 0.9054 -0.4167 -0.0810
vn 0.8751 -0.4716 -0.1089
vn 0.8773 -0.4610 -0.1337
vn 0.9130 -0.3823 -0.1420
vn 0.3352 -0.0242 -0.9418
vn 0.3413 0.0280 -0.9395
vn 0.3558 0.1172 -0.9272
vn 0.3783 0.2227 -0.8985
vn 0.4032 0.3393 -0.8499
vn 0.4253 0.4587 -0.7802
vn -0.6319 0.1345 -0.7633
vn -0.6038 0.3119 -0.7336
vn -0.5649 0.4766 -0.6736
vn -0.5208 0.5962 -0.6110
vn -0.4822 0.6742 -0.5593
vn -0.4666 0.7128 -0.5236
vn -0.9711 0.1599 0.1773
vn -0.9398 0.2898 0.1813
vn -0.9035 0.3828 0.1927
vn -0.8815 0.4215 0.2129
vn -0.8861 0.3997 0.2346
vn -0.9208 0.3077 0.2397
vn 0.1382 -0.0585 0.9887
vn 0.1243 -0.1923 0.9734
vn 0.0999 -0.3480 0.9321
vn 0.0651 -0.4868 0.8711
vn 0.0282 -0.5971 0.8017
vn -0.0018 -0.6800 0.7332
vn 0.3024 0.2065 -0.9306
vn 0.8090 0.0000 -0.5878
vn 0.9684 0.1455 -0.2026
vn 0.8090 -0.0000 0.5878
vn 0.1077 -0.0000 0.9942
vn -0.3090 -0.0000 0.9511
vn -0.7916 0.2065 0.5751
vn -1.0000 0.0000 0.0000
vn -0.7916 0.2065 -0.5751
vn -0.3090 0.0000 -0.9511
vn 0.1818 0.8085 -0.5597
vn -0.8184 0.4214 0.3906
vn 0.5308 0.8402 -0.1111
vn 0.4105 0.8617 0.2982
vn 0.0584 0.8402 0.5392
vn -0.4761 0.8085 0.3459
vn 0.3264 -0.0217 0.9450
vn -0.4761 0.8085 -0.3459
vn 1.0000 0.0000 0.0000
vn -0.8091 0.0000 -0.5877
vn 0.9788 0.0000 -0.2048
vn 0.3024 0.2065 0.9306
vn -0.8090 -0.0000 0.5878
vn 0.3090 0.0000 -0.9511
vn -0.0969 -0.4362 -0.8946
vn -0.5878 0.0000 -0.8090
vn -0.8090 0.0000 -0.5878
vn 0.3090 -0.0000 0.9511
vn -0.9511 -0.0000 0.3090
vn -0.2587 0.5467 -0.7963
vn 0.9511 0.0000 -0.3090
vn 0.0000 -0.0000 1.0000
vn -0.8373 0.5467 0.0000
vn 0.0000 0.0000 -1.0000
vn 0.9511 -0.0000 0.3090
vn -0.2587 0.5467 0.7963
vn -0.9511 0.0000 -0.3090
vn 0.5878 0.0000 -0.8090
vn 0.6774 0.5467 0.4922
vn -0.5878 -0.0000 0.8090
vn 0.6774 0.5467 -0.4922
vn 0.5878 -0.0000 0.8090
vn 0.6642 -0.5710 -0.4825
vn -0.6719 -0.5571 -0.4881
vn 0.0000 1.0000 -0.0000
vn 0.8091 0.0000 0.5877
vn 0.9996 -0.0217 0.0184
vn -0.2537 -0.5710 0.7808
vn -0.8808 -0.4362 0.1843
vn -0.3660 0.9165 0.1613
vn 0.4306 -0.7286 -0.5326
vn -0.5797 0.8140 -0.0366
vn 0.6047 0.7268 -0.3257
vn -0.3558 -0.8057 0.4735
vn 0.6093 -0.6566 -0.4445
vn -0.1296 -0.8853 -0.4467
vn 0.5617 -0.7986 -0.2161
vn -0.0391 -0.4322 0.9009
vn 0.6153 -0.6036 0.5070
vn -0.9723 0.0004 -0.2339
vn -0.5053 0.2306 0.8316
vn -0.0482 -0.9699 0.2385
usemtl Material.001
s 1
f 1//1 2//1 3//1 4//1
f 4//2 3//2 5//2 6//2
f 6//3 5//3 7//3 8//3
f 8//4 7//4 9//4
f 10//5 9//5 11//5
f 10//6 11//6 12//6
f 13//7 14//7 15//7 16//7 17//7 18//7 19//7 20//7
f 12//8 21//8 22//8
f 22//9 21//9 2//9 1//9
f 23//10 24//10 25//10 26//10
f 27//11 28//11 29//11
f 30//12 31//12 32//12 33//12
f 34//13 35//13 36//13
f 37//14 38//14 39//14 40//14
f 38//15 41//15 42//15 39//15
f 17//16 16//17 11//18 9//16
f 16//17 15//19 12//19 11//18
f 43//20 44//20 45//20 46//20
f 47//21 30//21 33//21 48//21
f 49//22 40//23 36//24 35//22
f 40//23 50//25 36//24
f 40//23 39//26 42//26 50//25
f 51//27 37//27 40//27 49//27
f 52//28 36//28 50//28
f 34//29 51//29 49//29 35//29
f 52//30 50//30 42//30
f 9//31 7//31 53//31 54//31
f 54//32 53//32 52//32 41//32
f 5//33 19//33 55//33 56//33
f 56//34 55//34 51//34 34//34
f 19//35 18//35 57//35 55//35
f 55//36 57//36 37//36 51//36
f 17//37 9//37 54//37 58//37
f 58//38 54//38 41//38 38//38
f 18//39 17//39 58//39 57//39
f 57//40 58//40 38//40 37//40
f 7//41 5//41 56//41 53//41
f 53//42 56//42 34//42 52//42
f 46//43 29//44 28//45
f 46//43 45//46 25//47 29//44
f 45//46 59//48 26//48 25//47
f 33//49 32//50 60//51 48//49
f 32//50 46//43 28//45 60//51
f 44//52 61//52 59//52 45//52
f 31//53 43//53 46//53 32//53
f 27//54 29//54 25//54
f 27//55 62//55 60//55
f 61//56 23//56 26//56 59//56
f 62//57 47//57 48//57 60//57
f 21//58 12//58 63//58 64//58
f 64//59 63//59 47//59 62//59
f 19//60 5//60 65//60 66//60
f 66//61 65//61 23//61 61//61
f 2//62 21//62 64//62 67//62
f 67//63 64//63 62//63 27//63
f 3//64 2//64 67//64 68//64
f 67//65 27//65 24//65
f 14//66 13//66 69//66 70//66
f 70//67 69//67 43//67 31//67
f 20//68 19//68 66//68 71//68
f 71//69 66//69 61//69 44//69
f 12//70 15//70 72//70 63//70
f 63//71 72//71 30//71 47//71
f 13//72 20//72 71//72 69//72
f 69//73 71//73 44//73 43//73
f 15//74 14//74 70//74 72//74
f 72//75 70//75 31//75 30//75
f 5//76 3//76 68//76 65//76
f 65//77 68//77 24//77 23//77
f 73//78 74//78 75//78 76//78
f 74//79 77//79 78//79 75//79
f 77//80 79//80 80//80 78//80
f 79//81 81//81 82//81 80//81
f 81//82 83//82 84//82 82//82
f 83//83 22//83 1//83 84//83
f 85//84 86//84 74//84 73//84
f 86//85 87//85 77//85 74//85
f 87//86 88//86 79//86 77//86
f 88//87 89//87 81//87 79//87
f 89//88 90//88 83//88 81//88
f 90//89 10//89 22//89 83//89
f 91//90 92//90 86//90 85//90
f 92//91 93//91 87//91 86//91
f 93//92 94//92 88//92 87//92
f 94//93 95//93 89//93 88//93
f 95//94 96//94 90//94 89//94
f 96//95 8//95 10//95 90//95
f 97//96 98//96 92//96 91//96
f 98//97 99//97 93//97 92//97
f 99//98 100//98 94//98 93//98
f 100//99 101//99 95//99 94//99
f 101//100 102//100 96//100 95//100
f 102//101 6//101 8//101 96//101
f 103//102 104//102 98//102 97//102
f 104//103 105//103 99//103 98//103
f 105//104 106//104 100//104 99//104
f 106//105 107//105 101//105 100//105
f 107//106 108//106 102//106 101//106
f 108//107 4//107 6//107 102//107
f 76//108 75//108 104//108 103//108
f 75//109 78//109 105//109 104//109
f 78//110 80//110 106//110 105//110
f 80//111 82//111 107//111 106//111
f 82//112 84//112 108//112 107//112
f 84//113 1//113 4//113 108//113
f 109//114 110//114 111//114 112//114
f 112//115 111//115 113//115 114//115
f 114//116 113//116 115//116 116//116
f 116//117 115//117 117//117 118//117
f 119//118 120//119 121//120 113//121 122//118 111//118
f 118//122 117//122 110//122 109//122
f 123//123 124//123 125//123
f 124//124 126//124 127//124
f 128//125 129//125 130//125 131//125
f 132//126 133//126 134//126
f 135//127 136//127 137//127 138//127
f 136//128 139//128 140//128
f 113//121 121//120 115//129
f 121//120 120//119 117//130 115//129
f 141//131 128//131 131//131
f 133//132 138//133 134//134
f 138//133 142//135 134//134
f 138//136 137//136 140//136 142//136
f 132//137 135//137 138//137 133//137
f 139//138 132//138 134//138 142//138
f 139//139 142//139 140//139
f 113//140 111//140 143//140 144//140
f 144//141 143//141 132//141 139//141
f 111//142 122//142 145//142 143//142
f 143//143 145//143 135//143 132//143
f 144//144 139//144 136//144
f 122//145 113//145 144//145 145//145
f 145//146 144//146 136//146 135//146
f 130//147 127//148 126//149
f 130//147 125//150 127//148
f 130//147 146//151 147//151 125//150
f 131//152 130//147 148//153 149//152
f 130//147 126//149 148//153
f 129//154 150//154 146//154 130//154
f 124//155 127//155 125//155
f 124//156 141//156 148//156
f 150//157 123//157 147//157 146//157
f 141//158 149//158 148//158
f 151//159 152//159 123//159 150//159
f 110//160 117//160 153//160 124//160
f 153//161 141//161 124//161
f 119//162 111//162 151//162 154//162
f 154//163 151//163 150//163 129//163
f 117//164 120//164 155//164 153//164
f 153//165 155//165 128//165 141//165
f 120//166 119//166 154//166 155//166
f 155//167 154//167 129//167
f 110//168 124//168 152//168
f 152//169 124//169 123//169
f 156//170 157//170 158//170 159//170
f 157//171 160//171 161//171 158//171
f 160//172 162//172 163//172 161//172
f 162//173 164//173 165//173 163//173
f 164//174 166//174 167//174 165//174
f 166//175 118//175 109//175 167//175
f 168//176 169//176 157//176 156//176
f 169//177 170//177 160//177 157//177
f 170//178 171//178 162//178 160//178
f 171//179 172//179 164//179 162//179
f 172//180 173//180 166//180 164//180
f 173//181 116//181 118//181 166//181
f 174//182 175//182 169//182 168//182
f 175//183 176//183 170//183 169//183
f 176//184 177//184 171//184 170//184
f 177//185 178//185 172//185 171//185
f 178//186 179//186 173//186 172//186
f 179//187 114//187 116//187 173//187
f 180//188 181//188 175//188 174//188
f 181//189 182//189 176//189 175//189
f 182//190 183//190 177//190 176//190
f 183//191 184//191 178//191 177//191
f 184//192 185//192 179//192 178//192
f 185//193 112//193 114//193 179//193
f 159//194 158//194 181//194 180//194
f 158//195 161//195 182//195 181//195
f 161//196 163//196 183//196 182//196
f 163//197 165//197 184//197 183//197
f 165//198 167//198 185//198 184//198
f 167//199 109//199 112//199 185//199
f 186//200 187//200 188//200 189//200
f 189//201 188//201 190//201
f 190//202 188//202 191//202
f 192//203 191//203 193//203 194//203
f 194//204 193//204 195//204
f 196//205 195//205 197//205
f 197//206 195//206 198//206 199//206
f 199//207 198//207 200//207
f 200//208 198//208 187//208 201//208
f 201//209 187//209 186//209
f 202//210 203//210 188//210 187//210
f 128//211 155//211 129//211
f 203//212 204//212 191//212 188//212
f 204//213 205//213 193//213 191//213
f 205//214 206//214 195//214 193//214
f 206//215 207//215 198//215 195//215
f 208//216 209//216 210//216
f 207//217 202//217 187//217 198//217
f 192//218 190//218 191//218
f 211//219 212//219 213//219 214//219
f 204//220 203//220 215//220 216//220
f 196//221 194//221 195//221
f 207//222 206//222 217//222 218//222
f 205//203 219//203 220//203
f 203//223 202//223 221//223 215//223
f 222//224 223//224 224//224
f 206//204 205//204 220//204 217//204
f 202//225 225//225 221//225
f 226//226 200//226 201//226 227//226
f 228//222 197//222 199//222 229//222
f 230//227 194//227 196//227 231//227
f 232//218 190//218 192//218 233//218
f 234//223 186//223 189//223 235//223
f 236//209 237//209 238//209 239//209
f 201//228 237//228 236//228 227//228
f 186//229 238//229 237//229 201//229
f 234//230 239//230 238//230 186//230
f 240//207 241//207 242//207 243//207
f 199//231 241//231 240//231 229//231
f 200//232 242//232 241//232 199//232
f 226//233 243//233 242//233 200//233
f 244//205 245//205 246//205 247//205
f 196//234 245//234 244//234 231//234
f 197//235 246//235 245//235 196//235
f 228//236 247//236 246//236 197//236
f 248//203 249//203 250//203 251//203
f 192//237 249//237 248//237 233//237
f 194//238 250//238 249//238 192//238
f 230//239 251//239 250//239 194//239
f 252//201 253//201 254//201 255//201
f 189//225 253//225 252//225 235//225
f 190//240 254//240 253//240 189//240
f 232//241 255//241 254//241 190//241
f 256//242 222//242 257//242 258//242
f 219//203 204//203 216//203
f 219//203 205//203 204//203
f 225//236 207//236 218//236
f 207//243 225//243 202//243
f 223//244 222//244 217//244 220//244
f 222//244 256//244 218//244 217//244
f 213//207 212//207 259//207
f 256//244 260//244 225//244 218//244
f 261//244 223//244 220//244 219//244
f 260//244 261//244 219//244 225//244
f 208//244 262//244 215//244 221//244
f 262//244 212//244 216//244 215//244
f 212//244 211//244 219//244 216//244
f 263//245 260//245 264//245
f 209//244 208//244 221//244 225//244
f 211//244 209//244 225//244 219//244
f 265//244 266//244 210//244 267//244 214//244 213//244 259//244
f 268//244 263//244 264//244 258//244 257//244 224//244 269//244
f 256//218 258//218 264//218
f 208//227 210//227 266//227
f 260//246 256//246 264//246
f 209//245 267//245 210//245
f 223//219 261//219 268//219 269//219
f 209//237 211//237 214//237 267//237
f 261//239 260//239 263//239 268//239
f 262//247 208//247 266//247 265//247
f 223//209 269//209 224//209
f 262//222 265//222 259//222
f 222//223 224//223 257//223
f 212//248 262//248 259//248
f 151//249 111//249 152//249
f 126//250 124//250 148//250
f 149//251 141//251 131//251
f 137//252 136//252 140//252
f 147//253 123//253 125//253
f 68//254 67//254 24//254
f 28//255 27//255 60//255
f 24//256 27//256 25//256
f 41//257 52//257 42//257
f 52//258 34//258 36//258
f 10//259 12//259 22//259
f 10//260 8//260 9//260
f 111//261 110//261 152//261
