# Blender v2.78 (sub 0) OBJ File: 'Industrial__Light.blend'
# www.blender.org
mtllib Industrial_Light.mtl
o Cube
v 0.999999 0.264304 -4.138230
v -1.000000 0.264304 -4.138226
v 0.794977 -0.264304 -4.088227
v -0.794977 -0.264304 -4.088226
v 0.156801 0.264304 -3.256133
v -0.156806 0.264304 -3.256133
v 1.000000 -0.118719 -4.138228
v -1.000000 -0.118719 -4.138227
v 0.844976 -0.118719 -4.138227
v -0.844978 -0.118719 -4.138227
v -0.156805 0.264304 -2.951209
v 1.000000 0.264304 -2.069116
v 0.156802 0.264304 -2.951209
v 0.794977 -0.264304 -2.019113
v -0.794977 -0.264304 -2.019113
v -1.000000 0.264304 -2.069113
v -1.000000 -0.118719 -2.069113
v 1.000000 -0.118719 -2.069115
v 0.794977 -0.264304 -2.119113
v -0.794977 -0.264304 -0.049999
v 0.794977 -0.264304 -0.050000
v -0.794977 -0.264304 -2.119113
v 0.844977 -0.264304 -4.138227
v -0.844977 -0.264304 -4.138227
v 0.844977 -0.264304 -2.069113
v -0.844977 -0.264304 -2.069113
v -0.794977 -0.205751 -0.049999
v 0.794977 -0.205751 -0.050000
v 0.794977 -0.205751 -2.019113
v -0.794977 -0.205751 -2.019113
v 0.794977 -0.205751 -4.088227
v -0.794977 -0.205751 -4.088226
v 0.794977 -0.205751 -2.119113
v -0.794977 -0.205751 -2.119113
v 0.844976 0.264304 -4.138228
v -0.844978 0.264304 -4.138227
v -0.156804 0.264304 -1.187020
v 0.156804 0.264304 -1.187019
v -0.844978 0.264304 -2.069114
v 0.844976 0.264304 -2.069115
v -0.156804 0.264304 -0.882096
v 0.156804 1.441925 -0.882096
v 0.156804 0.264304 -0.882096
v -0.156804 1.441925 -0.882096
v 0.156801 1.441925 -3.256133
v -0.156806 1.441925 -3.256133
v -0.156805 1.441925 -2.951209
v 0.156802 1.441925 -2.951209
v -0.156804 1.441925 -1.187020
v 0.156804 1.441925 -1.187019
v -0.844978 0.354618 -2.069114
v 1.000000 0.354618 -2.069116
v 0.999999 0.354618 -4.138230
v -0.844978 0.354618 -4.138227
v -1.000000 0.354618 -4.138226
v 0.844976 0.354618 -2.069115
v 0.844976 0.354618 -4.138228
v -1.000000 0.354618 -2.069113
v -1.000000 0.264304 0.000000
v 1.000000 0.264304 0.000000
v 0.999999 0.264304 4.138230
v -1.000000 0.264304 4.138226
v 0.794977 -0.264304 4.088227
v -0.794977 -0.264304 4.088226
v 0.156801 0.264304 3.256133
v -0.156806 0.264304 3.256133
v 1.000000 -0.118719 4.138228
v -1.000000 -0.118719 4.138227
v 0.844976 -0.118719 4.138227
v -0.844978 -0.118719 4.138227
v 0.844977 0.264304 0.000000
v -0.844977 0.264304 0.000000
v 0.844977 -0.264304 0.000000
v -0.844977 -0.264304 0.000000
v -1.000000 -0.118719 0.000000
v 1.000000 -0.118719 0.000000
v -0.156805 0.264304 2.951209
v 1.000000 0.264304 2.069116
v 0.156802 0.264304 2.951209
v 0.794977 -0.264304 2.019113
v -0.794977 -0.264304 2.019113
v -1.000000 0.264304 2.069113
v -1.000000 -0.118719 2.069113
v 1.000000 -0.118719 2.069115
v 0.794977 -0.264304 2.119113
v -0.794977 -0.264304 0.049999
v 0.794977 -0.264304 0.050000
v -0.794977 -0.264304 2.119113
v 0.844977 -0.264304 4.138227
v -0.844977 -0.264304 4.138227
v 0.844977 -0.264304 2.069113
v -0.844977 -0.264304 2.069113
v -0.794977 -0.205751 0.049999
v 0.794977 -0.205751 0.050000
v 0.794977 -0.205751 2.019113
v -0.794977 -0.205751 2.019113
v 0.794977 -0.205751 4.088227
v -0.794977 -0.205751 4.088226
v 0.794977 -0.205751 2.119113
v -0.794977 -0.205751 2.119113
v 0.844976 0.264304 4.138228
v -0.844978 0.264304 4.138227
v -0.156804 0.264304 1.187020
v 0.156804 0.264304 1.187019
v -0.844978 0.264304 2.069114
v 0.844976 0.264304 2.069115
v -0.156804 0.264304 0.882096
v 0.156804 1.441925 0.882096
v 0.156804 0.264304 0.882096
v -0.156804 1.441925 0.882096
v 0.156801 1.441925 3.256133
v -0.156806 1.441925 3.256133
v -0.156805 1.441925 2.951209
v 0.156802 1.441925 2.951209
v -0.156804 1.441925 1.187020
v 0.156804 1.441925 1.187019
v -0.844978 0.354618 2.069114
v -0.844977 0.354618 0.000000
v 1.000000 0.354618 2.069116
v 0.999999 0.354618 4.138230
v -0.844978 0.354618 4.138227
v -1.000000 0.354618 4.138226
v 0.844976 0.354618 2.069115
v 0.844977 0.354618 0.000000
v 0.844976 0.354618 4.138228
v -1.000000 0.354618 2.069113
v -1.000000 0.354618 0.000000
v 1.000000 0.354618 0.000000
vt 0.6815 0.8028
vt 0.6287 0.8028
vt 0.6287 0.7721
vt 0.6815 0.7721
vt 0.6571 0.0435
vt 1.0000 0.0435
vt 1.0000 0.1070
vt 0.6571 0.1070
vt 0.0528 0.9334
vt 0.0000 0.9334
vt 0.0000 0.8028
vt 0.0528 0.8028
vt 0.6815 0.9334
vt 0.6287 0.9334
vt 0.3143 0.4426
vt 0.6571 0.4426
vt 0.6571 0.4576
vt 0.3143 0.4576
vt 0.8466 0.6100
vt 0.9244 0.6100
vt 0.9244 0.9020
vt 0.8466 0.9020
vt 0.2971 0.3907
vt 0.2971 0.7335
vt 0.2869 0.7335
vt 0.2869 0.3907
vt 0.6287 0.9830
vt 0.0528 0.9830
vt 0.6571 0.0083
vt 1.0000 0.0083
vt 0.6571 0.5970
vt 0.3143 0.5970
vt 0.3143 0.5617
vt 0.6571 0.5617
vt 0.3143 0.4983
vt 0.6571 0.4983
vt 1.0000 0.5617
vt 1.0000 0.4983
vt 1.0000 0.5970
vt 0.3143 0.0083
vt 0.3143 0.0435
vt 0.0102 0.3805
vt 0.2869 0.3805
vt 0.0102 0.3907
vt 0.9244 0.6100
vt 1.0000 0.6100
vt 1.0000 0.9020
vt 0.9244 0.9020
vt 0.3143 0.1070
vt 1.0000 0.1220
vt 0.6571 0.1220
vt 0.0102 0.7437
vt 0.2869 0.7437
vt 0.2956 0.7524
vt 0.0015 0.7524
vt 0.3226 0.0000
vt 0.6489 0.0000
vt 0.6489 0.6052
vt 0.3226 0.6052
vt 0.0015 0.3718
vt 0.2956 0.3718
vt 0.6116 1.0000
vt 0.0699 1.0000
vt 0.6654 0.0000
vt 0.9917 0.0000
vt 0.9917 0.6052
vt 0.6654 0.6052
vt 0.0102 0.3631
vt 0.2869 0.3631
vt 0.2869 0.3529
vt 0.0102 0.3529
vt 0.0102 0.0102
vt 0.2869 0.0102
vt 0.0102 0.7335
vt 0.0000 0.3529
vt 0.0000 0.0102
vt 0.0102 0.0000
vt 0.2869 0.0000
vt 0.0000 0.7335
vt 0.0000 0.3907
vt 0.2971 0.0102
vt 0.2971 0.3529
vt 0.8538 0.3286
vt 0.8538 0.2766
vt 1.0000 0.1626
vt 1.0000 0.4426
vt 0.8033 0.3286
vt 0.8033 0.2766
vt 0.6571 0.1626
vt 0.4605 0.3286
vt 0.5110 0.3286
vt 0.5110 0.2766
vt 0.4605 0.2766
vt 0.3143 0.1626
vt 0.8466 0.9797
vt 0.7710 0.9797
vt 0.7710 0.9020
vt 0.8466 0.9797
vt 0.7710 0.9797
vt 0.7710 0.9020
vt 0.8466 0.9020
vt 0.7710 0.6100
vt 0.7710 0.6100
vt 0.8466 0.6100
vt 1.0000 0.6100
vt 1.0000 0.9020
vt 0.6932 0.6100
vt 0.6932 0.9020
vt 0.6932 0.6100
vt 0.6932 0.9020
vt 1.0000 0.4576
vt 1.0000 0.4833
vt 0.6571 0.4833
vt 1.0000 0.1476
vt 0.6571 0.1476
vt 0.3143 0.1220
vt 0.3143 0.1476
vt 0.3143 0.4833
vt 0.0000 0.7721
vt 0.0528 0.7721
vt 0.6815 0.8028
vt 0.6815 0.7721
vt 0.6287 0.7721
vt 0.6287 0.8028
vt 0.6571 0.0435
vt 0.6571 0.1070
vt 1.0000 0.1070
vt 1.0000 0.0435
vt 0.0528 0.9334
vt 0.0528 0.8028
vt 0.0000 0.8028
vt 0.0000 0.9334
vt 0.6815 0.9334
vt 0.6287 0.9334
vt 0.6571 0.4576
vt 0.6571 0.4426
vt 0.8466 0.6100
vt 0.8466 0.9020
vt 0.9244 0.9020
vt 0.9244 0.6100
vt 0.2971 0.3907
vt 0.2869 0.3907
vt 0.2869 0.7335
vt 0.2971 0.7335
vt 0.6287 0.9830
vt 0.0528 0.9830
vt 0.6571 0.0083
vt 1.0000 0.0083
vt 0.6571 0.5970
vt 0.6571 0.5617
vt 0.6571 0.4983
vt 1.0000 0.5617
vt 1.0000 0.4983
vt 1.0000 0.5970
vt 0.0102 0.3805
vt 0.0102 0.3907
vt 0.2869 0.3805
vt 0.9244 0.6100
vt 0.9244 0.9020
vt 1.0000 0.9020
vt 1.0000 0.6100
vt 0.2886 0.1070
vt 0.2886 0.1220
vt 0.6571 0.1220
vt 1.0000 0.1220
vt 0.0102 0.7437
vt 0.2869 0.7437
vt 0.3226 0.0000
vt 0.6489 0.0000
vt 0.6489 0.6052
vt 0.3226 0.6052
vt 0.2956 0.3718
vt 0.0015 0.3718
vt 0.6116 1.0000
vt 0.0699 1.0000
vt 0.6654 0.0000
vt 0.9917 0.0000
vt 0.9917 0.6052
vt 0.6654 0.6052
vt 0.0102 0.3631
vt 0.2869 0.3631
vt 0.2869 0.3529
vt 0.2869 0.0102
vt 0.0102 0.0102
vt 0.0102 0.3529
vt 0.0102 0.7335
vt 0.0000 0.3529
vt 0.0000 0.0102
vt 0.0102 0.0000
vt 0.2869 0.0000
vt 0.0000 0.7335
vt 0.0000 0.3907
vt 0.2971 0.0102
vt 0.2971 0.3529
vt 0.8538 0.3286
vt 1.0000 0.4426
vt 1.0000 0.1626
vt 0.8538 0.2766
vt 0.8033 0.3286
vt 0.6571 0.1626
vt 0.8033 0.2766
vt 0.4605 0.3286
vt 0.5110 0.3286
vt 0.5110 0.2766
vt 0.4605 0.2766
vt 0.8466 0.9797
vt 0.7710 0.9020
vt 0.7710 0.9797
vt 0.8466 0.9797
vt 0.8466 0.9020
vt 0.7710 0.9020
vt 0.7710 0.9797
vt 0.7710 0.6100
vt 0.7710 0.6100
vt 0.8466 0.6100
vt 1.0000 0.9020
vt 1.0000 0.6100
vt 0.6932 0.6100
vt 0.6932 0.9020
vt 0.6932 0.6100
vt 0.6932 0.9020
vt 0.6571 0.4833
vt 1.0000 0.4833
vt 1.0000 0.4576
vt 0.6571 0.1476
vt 1.0000 0.1476
vt 0.0528 0.7721
vt 0.0000 0.7721
vt 0.2886 0.4833
vt 0.2886 0.4983
vn -0.0000 0.0000 -1.0000
vn 1.0000 0.0000 -0.0000
vn 0.0000 0.0000 1.0000
vn -1.0000 0.0000 0.0000
vn 0.6846 -0.7289 -0.0000
vn -0.6846 -0.7289 0.0000
vn 0.0000 -1.0000 0.0000
vn 0.0000 1.0000 0.0000
usemtl Material
s off
f 1/1/1 35/2/1 57/3/1 53/4/1
f 18/5/2 7/6/2 1/7/2 12/8/2
f 10/9/1 8/10/1 2/11/1 36/12/1
f 7/13/1 9/14/1 35/2/1 1/1/1
f 9/14/1 10/9/1 36/12/1 35/2/1
f 72/15/2 39/16/2 51/17/2 118/18/2
f 11/19/3 13/20/3 48/21/3 47/22/3
f 14/23/4 21/24/4 28/25/4 29/26/4
f 23/27/1 24/28/1 10/9/1 9/14/1
f 24/28/1 8/10/1 10/9/1
f 7/13/1 23/27/1 9/14/1
f 25/29/5 23/30/5 7/6/5 18/5/5
f 26/31/6 74/32/6 75/33/6 17/34/6
f 17/34/4 75/33/4 59/35/4 16/36/4
f 8/37/4 17/34/4 16/36/4 2/38/4
f 24/39/6 26/31/6 17/34/6 8/37/6
f 73/40/5 25/29/5 18/5/5 76/41/5
f 15/42/3 14/43/3 29/26/3 30/44/3
f 43/45/2 38/46/2 50/47/2 42/48/2
f 76/41/2 18/5/2 12/8/2 60/49/2
f 12/8/2 1/7/2 53/50/2 52/51/2
f 20/52/7 21/53/7 73/54/7 74/55/7
f 21/56/7 14/57/7 25/29/7 73/40/7
f 15/58/7 20/59/7 74/32/7 26/31/7
f 14/43/7 15/42/7 26/60/7 25/61/7
f 3/62/7 4/63/7 24/28/7 23/27/7
f 19/64/7 3/65/7 23/30/7 25/29/7
f 4/66/7 22/67/7 26/31/7 24/39/7
f 22/68/7 19/69/7 25/61/7 26/60/7
f 33/70/7 34/71/7 32/72/7 31/73/7
f 28/25/7 27/74/7 30/44/7 29/26/7
f 22/75/2 4/76/2 32/72/2 34/71/2
f 4/77/3 3/78/3 31/73/3 32/72/3
f 20/79/2 15/80/2 30/44/2 27/74/2
f 19/69/1 22/68/1 34/71/1 33/70/1
f 21/53/1 20/52/1 27/74/1 28/25/1
f 3/81/4 19/82/4 33/70/4 31/73/4
f 6/83/8 5/84/8 35/85/8 36/86/8
f 11/87/8 6/83/8 36/86/8 39/16/8
f 5/84/8 13/88/8 40/89/8 35/85/8
f 13/88/8 11/87/8 39/16/8 40/89/8
f 41/90/8 37/91/8 39/16/8 72/15/8
f 38/92/8 43/93/8 71/94/8 40/89/8
f 43/93/8 41/90/8 72/15/8 71/94/8
f 37/91/8 38/92/8 40/89/8 39/16/8
f 48/95/8 45/96/8 46/97/8 47/22/8
f 42/98/8 50/99/8 49/100/8 44/101/8
f 6/102/4 11/19/4 47/22/4 46/97/4
f 37/103/4 41/104/4 44/101/4 49/100/4
f 41/104/3 43/45/3 42/48/3 44/101/3
f 13/20/2 5/105/2 45/106/2 48/21/2
f 38/107/1 37/103/1 49/100/1 50/108/1
f 5/109/1 6/102/1 46/97/1 45/110/1
f 51/17/8 54/111/8 55/112/8 58/113/8
f 52/51/8 53/50/8 57/114/8 56/115/8
f 128/116/8 52/51/8 56/115/8 124/117/8
f 118/18/8 51/17/8 58/113/8 127/118/8
f 39/16/2 36/86/2 54/111/2 51/17/2
f 36/12/1 2/11/1 55/119/1 54/120/1
f 60/49/2 12/8/2 52/51/2 128/116/2
f 40/89/4 71/94/4 124/117/4 56/115/4
f 2/38/4 16/36/4 58/113/4 55/112/4
f 35/85/4 40/89/4 56/115/4 57/114/4
f 16/36/4 59/35/4 127/118/4 58/113/4
f 61/121/3 120/122/3 125/123/3 101/124/3
f 84/125/2 78/126/2 61/127/2 67/128/2
f 70/129/3 102/130/3 62/131/3 68/132/3
f 67/133/3 61/121/3 101/124/3 69/134/3
f 69/134/3 101/124/3 102/130/3 70/129/3
f 72/15/2 118/18/2 117/135/2 105/136/2
f 77/137/1 113/138/1 114/139/1 79/140/1
f 80/141/4 95/142/4 94/143/4 87/144/4
f 89/145/3 69/134/3 70/129/3 90/146/3
f 90/146/3 70/129/3 68/132/3
f 67/133/3 69/134/3 89/145/3
f 91/147/5 84/125/5 67/128/5 89/148/5
f 92/149/6 83/150/6 75/33/6 74/32/6
f 83/150/4 82/151/4 59/35/4 75/33/4
f 68/152/4 62/153/4 82/151/4 83/150/4
f 90/154/6 68/152/6 83/150/6 92/149/6
f 73/40/5 76/41/5 84/125/5 91/147/5
f 81/155/1 96/156/1 95/142/1 80/157/1
f 109/158/2 108/159/2 116/160/2 104/161/2
f 71/162/1 124/163/1 128/116/1 60/49/1
f 76/41/2 60/49/2 78/126/2 84/125/2
f 78/126/2 119/164/2 120/165/2 61/127/2
f 86/166/7 74/55/7 73/54/7 87/167/7
f 87/168/7 73/40/7 91/147/7 80/169/7
f 81/170/7 92/149/7 74/32/7 86/171/7
f 80/157/7 91/172/7 92/173/7 81/155/7
f 63/174/7 89/145/7 90/146/7 64/175/7
f 85/176/7 91/147/7 89/148/7 63/177/7
f 64/178/7 90/154/7 92/149/7 88/179/7
f 88/180/7 92/173/7 91/172/7 85/181/7
f 99/182/7 97/183/7 98/184/7 100/185/7
f 94/143/7 95/142/7 96/156/7 93/186/7
f 88/187/2 100/185/2 98/184/2 64/188/2
f 64/189/1 98/184/1 97/183/1 63/190/1
f 86/191/2 93/186/2 96/156/2 81/192/2
f 85/181/3 99/182/3 100/185/3 88/180/3
f 87/167/3 94/143/3 93/186/3 86/166/3
f 63/193/4 97/183/4 99/182/4 85/194/4
f 66/195/8 102/196/8 101/197/8 65/198/8
f 77/199/8 105/136/8 102/196/8 66/195/8
f 65/198/8 101/197/8 106/200/8 79/201/8
f 79/201/8 106/200/8 105/136/8 77/199/8
f 107/202/8 72/15/8 105/136/8 103/203/8
f 104/204/8 106/200/8 71/94/8 109/205/8
f 109/205/8 71/94/8 72/15/8 107/202/8
f 103/203/8 105/136/8 106/200/8 104/204/8
f 114/206/8 113/138/8 112/207/8 111/208/8
f 108/209/8 110/210/8 115/211/8 116/212/8
f 66/213/4 112/207/4 113/138/4 77/137/4
f 103/214/4 115/211/4 110/210/4 107/215/4
f 107/215/1 110/210/1 108/159/1 109/158/1
f 79/140/2 114/139/2 111/216/2 65/217/2
f 104/218/3 116/219/3 115/211/3 103/214/3
f 65/220/3 111/221/3 112/207/3 66/213/3
f 117/135/8 126/222/8 122/223/8 121/224/8
f 119/164/8 123/225/8 125/226/8 120/165/8
f 128/116/8 124/117/8 123/225/8 119/164/8
f 118/18/8 127/118/8 126/222/8 117/135/8
f 105/136/2 117/135/2 121/224/2 102/196/2
f 102/130/3 121/227/3 122/228/3 62/131/3
f 60/49/2 128/116/2 119/164/2 78/126/2
f 106/200/4 123/225/4 124/117/4 71/94/4
f 62/153/4 122/223/4 126/222/4 82/151/4
f 101/197/4 125/226/4 123/225/4 106/200/4
f 82/151/4 126/222/4 127/118/4 59/35/4
f 59/35/1 127/118/1 118/229/1 72/230/1
