# Blender v2.79 (sub 0) OBJ File: 'Cable.blend'
# www.blender.org
mtllib LongCable.mtl
o Cylinder.001
v -0.000000 0.200153 -7.145137
v -0.442494 0.200160 6.377737
v 0.038433 0.184234 -7.145137
v -0.446379 0.185309 6.416400
v 0.054353 0.145801 -7.145137
v -0.448067 0.147330 6.433291
v 0.038433 0.107366 -7.145137
v -0.446566 0.108471 6.418516
v -0.000000 0.091447 -7.145137
v -0.442757 0.091495 6.380728
v -0.038433 0.107366 -7.145137
v -0.438872 0.106348 6.342064
v -0.054353 0.145801 -7.145137
v -0.437062 0.144293 6.323949
v -0.038434 0.184234 -7.145137
v -0.438685 0.183185 6.339949
v 0.148263 0.200202 -6.164909
v 0.582591 0.200346 -5.271390
v 1.187597 0.200549 -4.481273
v 1.890853 0.200785 -3.776191
v 2.643241 0.201041 -3.123213
v 3.409533 0.201304 -2.486442
v 4.154763 0.201557 -1.825401
v 4.845423 0.201798 -1.107922
v 5.441078 0.202009 -0.310520
v 5.905674 0.202181 0.569262
v 6.201048 0.202295 1.518935
v 6.307118 0.202350 2.507253
v 6.179277 0.202329 3.492414
v 5.807388 0.202225 4.412551
v 5.197579 0.202039 5.195917
v 4.410279 0.201790 5.802511
v 3.505921 0.201496 6.216416
v 2.537768 0.201180 6.444506
v 1.544588 0.200853 6.511571
v 0.549413 0.200516 6.471045
v 0.546476 0.184586 6.509014
v 1.545005 0.184920 6.549895
v 2.543666 0.185249 6.482481
v 3.518922 0.185569 6.252581
v 4.431256 0.185864 5.834713
v 5.223808 0.186116 5.224005
v 5.840334 0.186303 4.432339
v 6.216484 0.186409 3.502045
v 6.345535 0.186430 2.506162
v 6.238678 0.186375 1.511115
v 5.941558 0.186259 0.555498
v 5.473390 0.186087 -0.331329
v 4.874086 0.185874 -1.133523
v 4.181445 0.185633 -1.853061
v 3.434392 0.185379 -2.515751
v 2.667819 0.185117 -3.152757
v 1.916885 0.184861 -3.804464
v 1.216515 0.184626 -4.506586
v 0.615091 0.184425 -5.291904
v 0.184981 0.184284 -6.176262
v 0.545257 0.146146 6.524874
v 1.545186 0.146481 6.565801
v 2.546118 0.146812 6.498199
v 3.524314 0.147133 6.267550
v 4.439949 0.147429 5.848043
v 5.234676 0.147682 5.235632
v 5.853983 0.147868 4.440530
v 6.231896 0.147975 3.506032
v 6.361448 0.147997 2.505711
v 6.254265 0.147941 1.507878
v 5.956422 0.147826 0.549801
v 5.486775 0.147653 -0.339942
v 4.885961 0.147439 -1.144120
v 4.192501 0.147198 -1.864510
v 3.444691 0.146942 -2.527884
v 2.678004 0.146680 -3.164987
v 1.927671 0.146426 -3.816167
v 1.228496 0.146190 -4.517064
v 0.628555 0.145990 -5.300396
v 0.200190 0.145849 -6.180963
v 0.546502 0.107717 6.508990
v 1.545030 0.108053 6.549870
v 2.543687 0.108383 6.482456
v 3.518939 0.108704 6.252557
v 4.431266 0.108997 5.834692
v 5.223816 0.109249 5.223988
v 5.840338 0.109437 4.432327
v 6.216485 0.109542 3.502040
v 6.345536 0.109563 2.506164
v 6.238678 0.109508 1.511122
v 5.941560 0.109393 0.555508
v 5.473395 0.109220 -0.331314
v 4.874092 0.109007 -1.133505
v 4.181452 0.108766 -1.853041
v 3.434401 0.108512 -2.515731
v 2.667828 0.108250 -3.152737
v 1.916893 0.107994 -3.804445
v 1.216521 0.107760 -4.506569
v 0.615095 0.107558 -5.291890
v 0.184982 0.107417 -6.176254
v 0.549482 0.091813 6.470666
v 1.544600 0.092147 6.511854
v 2.537797 0.092473 6.444473
v 3.505945 0.092790 6.216383
v 4.410294 0.093083 5.802484
v 5.197589 0.093333 5.195892
v 5.807392 0.093518 4.412534
v 6.179277 0.093622 3.492408
v 6.307117 0.093644 2.507257
v 6.201049 0.093588 1.518945
v 5.905677 0.093474 0.569277
v 5.441085 0.093303 -0.310498
v 4.845431 0.093091 -1.107896
v 4.154774 0.092851 -1.825374
v 3.409546 0.092597 -2.486413
v 2.643255 0.092335 -3.123184
v 1.890865 0.092079 -3.776164
v 1.187606 0.091843 -4.481248
v 0.582597 0.091641 -5.271370
v 0.148264 0.091497 -6.164898
v 0.552452 0.107704 6.432702
v 1.544217 0.108077 6.473007
v 2.531896 0.108402 6.406500
v 3.492945 0.108719 6.180219
v 4.389317 0.109008 5.770282
v 5.171359 0.109256 5.167803
v 5.774446 0.109439 4.392745
v 6.142071 0.109543 3.482777
v 6.268700 0.109565 2.508349
v 6.163420 0.109509 1.526765
v 5.869794 0.109395 0.583041
v 5.408774 0.109225 -0.289688
v 4.816768 0.109014 -1.082295
v 4.128092 0.108775 -1.797714
v 3.384688 0.108522 -2.457104
v 2.618677 0.108259 -3.093639
v 1.864833 0.108003 -3.747892
v 1.158688 0.107766 -4.455935
v 0.550098 0.107562 -5.250856
v 0.111547 0.107418 -6.153543
v 0.553674 0.146168 6.416588
v 1.544036 0.146516 6.457101
v 2.529443 0.146841 6.390780
v 3.487553 0.147155 6.165248
v 4.380622 0.147446 5.756953
v 5.160491 0.147692 5.156175
v 5.760797 0.147873 4.384553
v 6.126657 0.147976 3.478790
v 6.252786 0.147997 2.508800
v 6.147832 0.147944 1.530000
v 5.854929 0.147828 0.588738
v 5.395389 0.147659 -0.281075
v 4.804892 0.147450 -1.071698
v 4.117037 0.147210 -1.786264
v 3.374387 0.146957 -2.444972
v 2.608492 0.146695 -3.081410
v 1.854047 0.146438 -3.736188
v 1.146707 0.146200 -4.445456
v 0.536634 0.145996 -5.242363
v 0.096337 0.145852 -6.148844
v 0.552426 0.184597 6.432480
v 1.544193 0.184945 6.473032
v 2.531875 0.185270 6.406524
v 3.492927 0.185587 6.180242
v 4.389305 0.185876 5.770302
v 5.171352 0.186123 5.167820
v 5.774441 0.186306 4.392757
v 6.142069 0.186409 3.482782
v 6.268700 0.186430 2.508347
v 6.163419 0.186377 1.526758
v 5.869792 0.186262 0.583031
v 5.408769 0.186091 -0.289703
v 4.816762 0.185881 -1.082313
v 4.128084 0.185642 -1.797733
v 3.384679 0.185389 -2.457124
v 2.618667 0.185126 -3.093659
v 1.864825 0.184870 -3.747910
v 1.158682 0.184632 -4.455952
v 0.550094 0.184429 -5.250869
v 0.111546 0.184285 -6.153551
v -0.415051 0.196816 6.380591
v -0.469903 0.214707 6.374574
v -0.418698 0.182881 6.416869
v -0.474830 0.195876 6.423596
v -0.420281 0.147246 6.432718
v -0.476970 0.147722 6.445013
v -0.418874 0.110785 6.418854
v -0.475068 0.098453 6.426278
v -0.415299 0.094858 6.383398
v -0.470239 0.076930 6.378366
v -0.411654 0.108793 6.347120
v -0.465312 0.095761 6.329344
v -0.410071 0.144428 6.331272
v -0.463172 0.143914 6.307928
v -0.411479 0.180889 6.345135
v -0.465075 0.193184 6.326663
v -0.415007 0.214726 6.380098
v -0.419934 0.195894 6.429121
v -0.422074 0.147741 6.450537
v -0.420173 0.098471 6.431803
v -0.415343 0.076948 6.383891
v -0.410416 0.095779 6.334869
v -0.408276 0.143933 6.313453
v -0.410180 0.193203 6.332188
v -0.344226 0.214750 6.387221
v -0.349152 0.195919 6.436244
v -0.351292 0.147764 6.457661
v -0.349391 0.098495 6.438926
v -0.344561 0.076973 6.391014
v -0.339635 0.095803 6.341992
v -0.337495 0.143957 6.320576
v -0.339398 0.193227 6.339310
v -0.344270 0.196840 6.387715
v -0.347916 0.182905 6.423993
v -0.349500 0.147269 6.439841
v -0.348092 0.110809 6.425977
v -0.344518 0.094882 6.390522
v -0.340873 0.108816 6.354244
v -0.339289 0.144452 6.338395
v -0.340697 0.180912 6.352259
v 0.000000 0.094801 -7.146314
v 0.000000 0.076885 -7.201487
v 0.036062 0.109739 -7.146314
v 0.048730 0.097071 -7.201487
v 0.050999 0.145801 -7.146313
v 0.068915 0.145801 -7.201487
v 0.036062 0.181861 -7.146313
v 0.048730 0.194530 -7.201487
v -0.000000 0.196800 -7.146313
v -0.000000 0.214715 -7.201487
v -0.036062 0.181861 -7.146313
v -0.048730 0.194530 -7.201487
v -0.050999 0.145801 -7.146313
v -0.068915 0.145801 -7.201487
v -0.036062 0.109739 -7.146314
v -0.048730 0.097071 -7.201487
v 0.000000 0.076885 -7.146314
v 0.048730 0.097071 -7.146314
v 0.068915 0.145801 -7.146313
v 0.048730 0.194530 -7.146313
v -0.000000 0.214715 -7.146313
v -0.048730 0.194530 -7.146313
v -0.068915 0.145801 -7.146313
v -0.048730 0.097071 -7.146314
v 0.000000 0.076885 -7.075173
v 0.048730 0.097071 -7.075173
v 0.068915 0.145801 -7.075173
v 0.048730 0.194530 -7.075173
v -0.000000 0.214715 -7.075173
v -0.048730 0.194530 -7.075173
v -0.068915 0.145801 -7.075173
v -0.048730 0.097071 -7.075173
v 0.000000 0.094801 -7.075173
v 0.036062 0.109739 -7.075173
v 0.050999 0.145801 -7.075173
v 0.036062 0.181861 -7.075173
v -0.000000 0.196800 -7.075173
v -0.036062 0.181861 -7.075173
v -0.050999 0.145801 -7.075173
v -0.036062 0.109739 -7.075173
vn 0.0345 -0.9284 -0.3699
vn 0.0844 -0.3952 -0.9147
vn 0.0852 0.3700 -0.9251
vn 0.0360 0.9186 -0.3936
vn -0.0344 0.9286 0.3695
vn -0.0846 0.4102 0.9081
vn -0.0853 -0.3826 0.9200
vn -0.0360 -0.9190 0.3927
vn 0.0000 0.0000 1.0000
vn 0.3820 -0.9223 -0.0577
vn 0.3468 -0.9227 -0.1684
vn 0.3047 -0.9235 -0.2331
vn 0.2714 -0.9237 -0.2704
vn 0.2510 -0.9239 -0.2889
vn 0.2447 -0.9239 -0.2941
vn 0.2542 -0.9239 -0.2862
vn 0.2759 -0.9238 -0.2653
vn 0.3075 -0.9235 -0.2294
vn 0.3400 -0.9232 -0.1794
vn 0.3665 -0.9234 -0.1139
vn 0.3818 -0.9233 -0.0409
vn 0.3828 -0.9225 0.0497
vn 0.3580 -0.9225 0.1446
vn 0.3046 -0.9226 0.2369
vn 0.2344 -0.9234 0.3039
vn 0.1604 -0.9230 0.3499
vn 0.0883 -0.9233 0.3737
vn 0.0261 -0.9238 0.3820
vn -0.0152 -0.9244 0.3811
vn 0.9150 -0.3790 -0.1384
vn 0.8321 -0.3798 -0.4042
vn 0.7339 -0.3817 -0.5618
vn 0.6543 -0.3823 -0.6524
vn 0.6056 -0.3827 -0.6977
vn 0.5905 -0.3828 -0.7105
vn 0.6131 -0.3826 -0.6911
vn 0.6657 -0.3826 -0.6407
vn 0.7406 -0.3817 -0.5530
vn 0.8176 -0.3809 -0.4318
vn 0.8826 -0.3816 -0.2746
vn 0.9191 -0.3814 -0.0985
vn 0.9175 -0.3794 0.1193
vn 0.8579 -0.3793 0.3465
vn 0.7302 -0.3795 0.5681
vn 0.5642 -0.3816 0.7322
vn 0.3847 -0.3805 0.8410
vn 0.2120 -0.3814 0.8998
vn 0.0622 -0.3821 0.9220
vn -0.0376 -0.3827 0.9231
vn 0.9150 0.3790 -0.1384
vn 0.8321 0.3798 -0.4043
vn 0.7339 0.3816 -0.5619
vn 0.6543 0.3821 -0.6526
vn 0.6055 0.3825 -0.6979
vn 0.5904 0.3826 -0.7107
vn 0.6131 0.3824 -0.6913
vn 0.6656 0.3824 -0.6409
vn 0.7405 0.3816 -0.5532
vn 0.8175 0.3809 -0.4320
vn 0.8826 0.3816 -0.2747
vn 0.9191 0.3814 -0.0986
vn 0.9175 0.3794 0.1193
vn 0.8579 0.3793 0.3466
vn 0.7302 0.3794 0.5682
vn 0.5641 0.3813 0.7324
vn 0.3845 0.3801 0.8412
vn 0.2118 0.3809 0.9000
vn 0.0620 0.3815 0.9223
vn -0.0377 0.3845 0.9223
vn 0.3820 0.9223 -0.0578
vn 0.3468 0.9227 -0.1687
vn 0.3046 0.9234 -0.2335
vn 0.2712 0.9236 -0.2708
vn 0.2508 0.9238 -0.2893
vn 0.2445 0.9238 -0.2946
vn 0.2540 0.9238 -0.2867
vn 0.2758 0.9237 -0.2658
vn 0.3074 0.9234 -0.2298
vn 0.3399 0.9231 -0.1797
vn 0.3665 0.9234 -0.1141
vn 0.3818 0.9233 -0.0410
vn 0.3828 0.9225 0.0497
vn 0.3580 0.9224 0.1448
vn 0.3045 0.9225 0.2372
vn 0.2342 0.9233 0.3044
vn 0.1600 0.9228 0.3504
vn 0.0878 0.9231 0.3743
vn 0.0255 0.9242 0.3812
vn -0.0160 0.9239 0.3822
vn -0.3820 0.9223 0.0577
vn -0.3468 0.9227 0.1685
vn -0.3047 0.9235 0.2331
vn -0.2714 0.9237 0.2704
vn -0.2510 0.9239 0.2889
vn -0.2447 0.9239 0.2941
vn -0.2542 0.9239 0.2862
vn -0.2760 0.9238 0.2653
vn -0.3075 0.9235 0.2294
vn -0.3400 0.9232 0.1793
vn -0.3665 0.9234 0.1139
vn -0.3818 0.9233 0.0409
vn -0.3828 0.9225 -0.0496
vn -0.3580 0.9225 -0.1446
vn -0.3046 0.9225 -0.2369
vn -0.2344 0.9234 -0.3039
vn -0.1605 0.9230 -0.3499
vn -0.0884 0.9233 -0.3737
vn -0.0263 0.9229 -0.3842
vn 0.0155 0.9231 -0.3842
vn -0.9150 0.3790 0.1384
vn -0.8319 0.3798 0.4046
vn -0.7338 0.3817 0.5619
vn -0.6543 0.3823 0.6525
vn -0.6056 0.3827 0.6977
vn -0.5905 0.3828 0.7105
vn -0.6132 0.3826 0.6911
vn -0.6657 0.3826 0.6407
vn -0.7405 0.3817 0.5531
vn -0.8177 0.3809 0.4316
vn -0.8827 0.3816 0.2744
vn -0.9191 0.3814 0.0987
vn -0.9176 0.3794 -0.1189
vn -0.8578 0.3793 -0.3468
vn -0.7300 0.3795 -0.5684
vn -0.5643 0.3816 -0.7321
vn -0.3852 0.3805 -0.8407
vn -0.2122 0.3814 -0.8997
vn -0.0624 0.3821 -0.9220
vn 0.0377 0.3827 -0.9231
vn -0.9150 -0.3790 0.1384
vn -0.8319 -0.3797 0.4047
vn -0.7338 -0.3816 0.5621
vn -0.6542 -0.3821 0.6527
vn -0.6055 -0.3825 0.6979
vn -0.5904 -0.3825 0.7107
vn -0.6131 -0.3824 0.6913
vn -0.6656 -0.3824 0.6409
vn -0.7404 -0.3816 0.5533
vn -0.8177 -0.3809 0.4317
vn -0.8826 -0.3816 0.2745
vn -0.9191 -0.3814 0.0987
vn -0.9176 -0.3794 -0.1189
vn -0.8578 -0.3793 -0.3469
vn -0.7299 -0.3794 -0.5686
vn -0.5642 -0.3813 -0.7323
vn -0.3851 -0.3801 -0.8409
vn -0.2121 -0.3809 -0.9000
vn -0.0621 -0.3815 -0.9223
vn 0.0379 -0.3820 -0.9234
vn -0.3820 -0.9223 0.0578
vn -0.3467 -0.9227 0.1687
vn -0.3046 -0.9234 0.2335
vn -0.2712 -0.9236 0.2708
vn -0.2508 -0.9238 0.2893
vn -0.2445 -0.9238 0.2946
vn -0.2540 -0.9238 0.2867
vn -0.2758 -0.9237 0.2658
vn -0.3073 -0.9234 0.2298
vn -0.3400 -0.9231 0.1797
vn -0.3665 -0.9234 0.1141
vn -0.3818 -0.9233 0.0410
vn -0.3828 -0.9225 -0.0497
vn -0.3580 -0.9224 -0.1448
vn -0.3045 -0.9225 -0.2373
vn -0.2342 -0.9233 -0.3044
vn -0.1601 -0.9228 -0.3504
vn -0.0879 -0.9231 -0.3743
vn -0.0256 -0.9232 -0.3834
vn 0.0160 -0.9228 -0.3849
vn 0.0361 -0.9341 -0.3552
vn 0.0916 -0.4081 -0.9084
vn 0.0934 0.3570 -0.9294
vn 0.0406 0.9130 -0.4060
vn -0.0360 0.9341 0.3552
vn -0.0916 0.4081 0.9084
vn 0.9950 0.0003 0.1001
vn -0.0934 -0.3570 0.9294
vn -0.0406 -0.9130 0.4060
vn -0.9950 -0.0003 -0.1001
vn -0.0725 -0.6873 0.7227
vn -0.9950 -0.0003 -0.1002
vn 0.1001 -0.0276 -0.9946
vn 0.0024 0.9996 -0.0275
vn -0.0361 0.9341 0.3552
vn 0.0691 -0.7263 -0.6839
vn 0.0725 0.6873 -0.7227
vn -0.1001 0.0277 0.9946
vn -0.0024 -0.9996 0.0275
vn -0.0691 0.7264 0.6838
vn -0.3827 0.9239 0.0000
vn -0.9239 0.3827 0.0000
vn -0.9239 -0.3827 0.0000
vn -0.3827 -0.9239 0.0000
vn 0.3827 -0.9239 0.0000
vn 0.9239 -0.3827 0.0000
vn 0.9239 0.3827 0.0000
vn 0.3827 0.9239 0.0000
vn 0.0000 0.0000 -1.0000
vn 0.7071 0.7071 -0.0000
vn -1.0000 -0.0000 -0.0000
vn 0.0000 -1.0000 0.0000
vn -0.7071 0.7071 0.0000
vn -0.7071 -0.7071 0.0000
vn 1.0000 0.0000 0.0000
vn 0.0000 1.0000 0.0000
vn 0.7071 -0.7071 0.0000
usemtl None
s off
f 36//1 37//1 4//1 2//1
f 37//2 57//2 6//2 4//2
f 57//3 77//3 8//3 6//3
f 77//4 97//4 10//4 8//4
f 97//5 117//5 12//5 10//5
f 117//6 137//6 14//6 12//6
f 137//7 157//7 16//7 14//7
f 157//8 36//8 2//8 16//8
f 1//9 15//9 13//9 11//9 9//9 7//9 5//9 3//9
f 15//10 1//10 17//10 176//10
f 176//11 17//11 18//11 175//11
f 175//12 18//12 19//12 174//12
f 174//13 19//13 20//13 173//13
f 173//14 20//14 21//14 172//14
f 172//15 21//15 22//15 171//15
f 171//16 22//16 23//16 170//16
f 170//17 23//17 24//17 169//17
f 169//18 24//18 25//18 168//18
f 168//19 25//19 26//19 167//19
f 167//20 26//20 27//20 166//20
f 166//21 27//21 28//21 165//21
f 165//22 28//22 29//22 164//22
f 164//23 29//23 30//23 163//23
f 163//24 30//24 31//24 162//24
f 162//25 31//25 32//25 161//25
f 161//26 32//26 33//26 160//26
f 160//27 33//27 34//27 159//27
f 159//28 34//28 35//28 158//28
f 158//29 35//29 36//29 157//29
f 13//30 15//30 176//30 156//30
f 156//31 176//31 175//31 155//31
f 155//32 175//32 174//32 154//32
f 154//33 174//33 173//33 153//33
f 153//34 173//34 172//34 152//34
f 152//35 172//35 171//35 151//35
f 151//36 171//36 170//36 150//36
f 150//37 170//37 169//37 149//37
f 149//38 169//38 168//38 148//38
f 148//39 168//39 167//39 147//39
f 147//40 167//40 166//40 146//40
f 146//41 166//41 165//41 145//41
f 145//42 165//42 164//42 144//42
f 144//43 164//43 163//43 143//43
f 143//44 163//44 162//44 142//44
f 142//45 162//45 161//45 141//45
f 141//46 161//46 160//46 140//46
f 140//47 160//47 159//47 139//47
f 139//48 159//48 158//48 138//48
f 138//49 158//49 157//49 137//49
f 11//50 13//50 156//50 136//50
f 136//51 156//51 155//51 135//51
f 135//52 155//52 154//52 134//52
f 134//53 154//53 153//53 133//53
f 133//54 153//54 152//54 132//54
f 132//55 152//55 151//55 131//55
f 131//56 151//56 150//56 130//56
f 130//57 150//57 149//57 129//57
f 129//58 149//58 148//58 128//58
f 128//59 148//59 147//59 127//59
f 127//60 147//60 146//60 126//60
f 126//61 146//61 145//61 125//61
f 125//62 145//62 144//62 124//62
f 124//63 144//63 143//63 123//63
f 123//64 143//64 142//64 122//64
f 122//65 142//65 141//65 121//65
f 121//66 141//66 140//66 120//66
f 120//67 140//67 139//67 119//67
f 119//68 139//68 138//68 118//68
f 118//69 138//69 137//69 117//69
f 9//70 11//70 136//70 116//70
f 116//71 136//71 135//71 115//71
f 115//72 135//72 134//72 114//72
f 114//73 134//73 133//73 113//73
f 113//74 133//74 132//74 112//74
f 112//75 132//75 131//75 111//75
f 111//76 131//76 130//76 110//76
f 110//77 130//77 129//77 109//77
f 109//78 129//78 128//78 108//78
f 108//79 128//79 127//79 107//79
f 107//80 127//80 126//80 106//80
f 106//81 126//81 125//81 105//81
f 105//82 125//82 124//82 104//82
f 104//83 124//83 123//83 103//83
f 103//84 123//84 122//84 102//84
f 102//85 122//85 121//85 101//85
f 101//86 121//86 120//86 100//86
f 100//87 120//87 119//87 99//87
f 99//88 119//88 118//88 98//88
f 98//89 118//89 117//89 97//89
f 7//90 9//90 116//90 96//90
f 96//91 116//91 115//91 95//91
f 95//92 115//92 114//92 94//92
f 94//93 114//93 113//93 93//93
f 93//94 113//94 112//94 92//94
f 92//95 112//95 111//95 91//95
f 91//96 111//96 110//96 90//96
f 90//97 110//97 109//97 89//97
f 89//98 109//98 108//98 88//98
f 88//99 108//99 107//99 87//99
f 87//100 107//100 106//100 86//100
f 86//101 106//101 105//101 85//101
f 85//102 105//102 104//102 84//102
f 84//103 104//103 103//103 83//103
f 83//104 103//104 102//104 82//104
f 82//105 102//105 101//105 81//105
f 81//106 101//106 100//106 80//106
f 80//107 100//107 99//107 79//107
f 79//108 99//108 98//108 78//108
f 78//109 98//109 97//109 77//109
f 5//110 7//110 96//110 76//110
f 76//111 96//111 95//111 75//111
f 75//112 95//112 94//112 74//112
f 74//113 94//113 93//113 73//113
f 73//114 93//114 92//114 72//114
f 72//115 92//115 91//115 71//115
f 71//116 91//116 90//116 70//116
f 70//117 90//117 89//117 69//117
f 69//118 89//118 88//118 68//118
f 68//119 88//119 87//119 67//119
f 67//120 87//120 86//120 66//120
f 66//121 86//121 85//121 65//121
f 65//122 85//122 84//122 64//122
f 64//123 84//123 83//123 63//123
f 63//124 83//124 82//124 62//124
f 62//125 82//125 81//125 61//125
f 61//126 81//126 80//126 60//126
f 60//127 80//127 79//127 59//127
f 59//128 79//128 78//128 58//128
f 58//129 78//129 77//129 57//129
f 3//130 5//130 76//130 56//130
f 56//131 76//131 75//131 55//131
f 55//132 75//132 74//132 54//132
f 54//133 74//133 73//133 53//133
f 53//134 73//134 72//134 52//134
f 52//135 72//135 71//135 51//135
f 51//136 71//136 70//136 50//136
f 50//137 70//137 69//137 49//137
f 49//138 69//138 68//138 48//138
f 48//139 68//139 67//139 47//139
f 47//140 67//140 66//140 46//140
f 46//141 66//141 65//141 45//141
f 45//142 65//142 64//142 44//142
f 44//143 64//143 63//143 43//143
f 43//144 63//144 62//144 42//144
f 42//145 62//145 61//145 41//145
f 41//146 61//146 60//146 40//146
f 40//147 60//147 59//147 39//147
f 39//148 59//148 58//148 38//148
f 38//149 58//149 57//149 37//149
f 1//150 3//150 56//150 17//150
f 17//151 56//151 55//151 18//151
f 18//152 55//152 54//152 19//152
f 19//153 54//153 53//153 20//153
f 20//154 53//154 52//154 21//154
f 21//155 52//155 51//155 22//155
f 22//156 51//156 50//156 23//156
f 23//157 50//157 49//157 24//157
f 24//158 49//158 48//158 25//158
f 25//159 48//159 47//159 26//159
f 26//160 47//160 46//160 27//160
f 27//161 46//161 45//161 28//161
f 28//162 45//162 44//162 29//162
f 29//163 44//163 43//163 30//163
f 30//164 43//164 42//164 31//164
f 31//165 42//165 41//165 32//165
f 32//166 41//166 40//166 33//166
f 33//167 40//167 39//167 34//167
f 34//168 39//168 38//168 35//168
f 35//169 38//169 37//169 36//169
f 193//170 194//170 180//170 178//170
f 194//171 195//171 182//171 180//171
f 195//172 196//172 184//172 182//172
f 196//173 197//173 186//173 184//173
f 197//174 198//174 188//174 186//174
f 198//175 199//175 190//175 188//175
f 180//176 182//176 184//176 186//176 188//176 190//176 192//176 178//176
f 199//177 200//177 192//177 190//177
f 200//178 193//178 178//178 192//178
f 177//179 191//179 189//179 187//179 185//179 183//179 181//179 179//179
f 193//170 201//170 202//170 194//170
f 181//179 195//179 194//179 179//179
f 198//180 206//180 214//180 187//180
f 185//179 197//179 196//179 183//179
f 195//172 203//172 204//172 196//172
f 189//181 199//181 198//181 187//181
f 185//182 213//182 205//182 197//182
f 177//179 193//179 200//179 191//179
f 210//179 202//179 201//179 209//179
f 212//179 204//179 203//179 211//179
f 214//179 206//179 205//179 213//179
f 216//181 208//181 207//181 215//181
f 191//172 216//172 215//172 189//172
f 189//183 215//183 207//183 199//183
f 179//184 210//184 209//184 177//184
f 200//185 208//185 216//185 191//185
f 194//186 202//186 210//186 179//186
f 177//187 209//187 201//187 193//187
f 183//177 212//177 211//177 181//177
f 199//177 207//177 208//177 200//177
f 181//188 211//188 203//188 195//188
f 196//189 204//189 212//189 183//189
f 197//184 205//184 206//184 198//184
f 187//170 214//170 213//170 185//170
f 233//190 234//190 220//190 218//190
f 234//191 235//191 222//191 220//191
f 235//192 236//192 224//192 222//192
f 236//193 237//193 226//193 224//193
f 237//194 238//194 228//194 226//194
f 238//195 239//195 230//195 228//195
f 220//9 222//9 224//9 226//9 228//9 230//9 232//9 218//9
f 239//196 240//196 232//196 230//196
f 240//197 233//197 218//197 232//197
f 233//190 241//190 242//190 234//190
f 221//198 235//198 234//198 219//198
f 238//199 246//199 254//199 227//199
f 225//198 237//198 236//198 223//198
f 235//192 243//192 244//192 236//192
f 229//198 239//198 238//198 227//198
f 225//200 253//200 245//200 237//200
f 217//198 233//198 240//198 231//198
f 250//198 242//198 241//198 249//198
f 252//198 244//198 243//198 251//198
f 254//198 246//198 245//198 253//198
f 256//198 248//198 247//198 255//198
f 231//192 256//192 255//192 229//192
f 229//201 255//201 247//201 239//201
f 219//194 250//194 249//194 217//194
f 240//202 248//202 256//202 231//202
f 234//203 242//203 250//203 219//203
f 217//204 249//204 241//204 233//204
f 223//196 252//196 251//196 221//196
f 239//196 247//196 248//196 240//196
f 221//205 251//205 243//205 235//205
f 236//206 244//206 252//206 223//206
f 237//194 245//194 246//194 238//194
f 227//190 254//190 253//190 225//190
