# Blender v2.79 (sub 0) OBJ File: 'Prop-Fuse.blend'
# www.blender.org
mtllib Prop-Fuse.mtl
o Cube
v -4.000000 8.892900 4.000000
v -4.000000 8.892900 -4.000000
v 4.000000 8.892900 4.000000
v 4.000000 8.892900 -4.000000
v -4.000000 -2.733179 2.400000
v -2.400000 -2.733179 4.000000
v -4.000000 -0.004547 4.000000
v -2.400000 -2.733179 -4.000000
v -4.000000 -2.733179 -2.400000
v -4.000000 -0.004547 -4.000000
v 2.400000 -2.733179 4.000000
v 4.000000 -2.733179 2.400000
v 4.000000 -0.004547 4.000000
v 4.000000 -2.733179 -2.400000
v 2.400000 -2.733179 -4.000000
v 4.000000 -0.004547 -4.000000
v 1.200000 -13.357048 2.000000
v 2.400000 -10.036447 4.000000
v 2.400000 -10.036447 -4.000000
v 1.200000 -13.357048 -2.000000
v 2.000000 -13.357048 -1.200000
v 4.000000 -10.036447 -2.400000
v 4.000000 -10.036447 2.400000
v 2.000000 -13.357048 1.200000
v -1.200000 -13.357048 2.000000
v -4.000000 -10.036447 2.400000
v -2.000000 -13.357048 1.200000
v -2.000000 -13.357048 -1.200000
v -4.000000 -10.036447 -2.400000
v -1.200000 -13.357048 -2.000000
v -2.400000 -10.036447 4.000000
v -2.400000 -10.036447 -4.000000
vt 0.612695 0.305427
vt 0.656372 0.379913
vt 0.656372 0.622796
vt 0.437988 0.622796
vt 0.437988 0.379913
vt 0.481665 0.305427
vt 0.174951 0.305427
vt 0.218628 0.379913
vt 0.218628 0.622796
vt 0.000244 0.622796
vt 0.000244 0.379913
vt 0.043921 0.305427
vt 0.218628 0.841668
vt 0.000244 0.841668
vt 0.000244 0.623284
vt 0.218628 0.623284
vt 0.393823 0.106062
vt 0.393823 0.305427
vt 0.262793 0.305427
vt 0.262793 0.106062
vt 0.831567 0.305427
vt 0.875244 0.379913
vt 0.875244 0.622796
vt 0.656860 0.622796
vt 0.656860 0.379913
vt 0.700537 0.305427
vt 0.437500 0.379913
vt 0.437500 0.622796
vt 0.219116 0.622796
vt 0.219116 0.379913
vt 0.937988 0.309299
vt 0.999756 0.309299
vt 0.968872 0.389935
vt 0.937988 0.699478
vt 0.999756 0.699478
vt 0.968872 0.780113
vt 0.875732 0.309299
vt 0.937500 0.309299
vt 0.906616 0.389935
vt 0.875732 0.699478
vt 0.937500 0.699478
vt 0.906616 0.780113
vt 0.999756 0.500113
vt 0.937988 0.500113
vt 0.612695 0.106062
vt 0.481665 0.106062
vt 0.999756 0.109934
vt 0.937988 0.109934
vt 0.953430 0.000244
vt 0.984314 0.000244
vt 0.219116 0.700494
vt 0.219116 0.669610
vt 0.265442 0.623284
vt 0.296326 0.623284
vt 0.342653 0.669610
vt 0.342653 0.700494
vt 0.296326 0.746821
vt 0.265442 0.746821
vt 0.953430 0.390422
vt 0.984314 0.390422
vt 0.295550 0.000244
vt 0.361066 0.000244
vt 0.937500 0.500113
vt 0.875732 0.500113
vt 0.891174 0.390422
vt 0.922058 0.390422
vt 0.937500 0.109934
vt 0.875732 0.109934
vt 0.891174 0.000244
vt 0.922058 0.000244
vt 0.798810 0.000244
vt 0.831567 0.106062
vt 0.700537 0.106062
vt 0.733294 0.000244
vt 0.514422 0.000244
vt 0.579938 0.000244
vt 0.174951 0.106062
vt 0.043921 0.106062
vt 0.076678 0.000244
vt 0.142194 0.000244
vn 0.0000 0.0000 1.0000
vn -1.0000 0.0000 0.0000
vn 0.0000 1.0000 0.0000
vn 0.0000 0.0000 -1.0000
vn 1.0000 0.0000 0.0000
vn -0.6532 -0.3830 0.6532
vn -0.6532 -0.3830 -0.6532
vn 0.6532 -0.3830 0.6532
vn 0.6532 -0.3830 -0.6532
vn -0.7071 0.0000 -0.7071
vn -0.5843 -0.5631 0.5843
vn 0.0000 -1.0000 0.0000
vn -0.5843 -0.5631 -0.5843
vn 0.0000 -0.5159 -0.8566
vn 0.5843 -0.5631 -0.5843
vn 0.5843 -0.5631 0.5843
vn 0.8566 -0.5159 0.0000
vn 0.0000 -0.5159 0.8566
vn -0.8566 -0.5159 0.0000
vn 0.7071 0.0000 0.7071
vn -0.7071 0.0000 0.7071
vn 0.7071 0.0000 -0.7071
usemtl None
s off
f 11/1/1 13/2/1 3/3/1 1/4/1 7/5/1 6/6/1
f 5/7/2 7/8/2 1/9/2 2/10/2 10/11/2 9/12/2
f 4/13/3 2/14/3 1/15/3 3/16/3
f 32/17/4 8/18/4 15/19/4 19/20/4
f 14/21/5 16/22/5 4/23/5 3/24/5 13/25/5 12/26/5
f 8/18/4 10/27/4 2/28/4 4/29/4 16/30/4 15/19/4
f 5/31/6 6/32/6 7/33/6
f 8/34/7 9/35/7 10/36/7
f 11/37/8 12/38/8 13/39/8
f 14/40/9 15/41/9 16/42/9
f 29/43/10 9/35/10 8/34/10 32/44/10
f 18/45/1 11/1/1 6/6/1 31/46/1
f 31/47/11 26/48/11 27/49/11 25/50/11
f 28/51/12 30/52/12 20/53/12 21/54/12 24/55/12 17/56/12 25/57/12 27/58/12
f 29/43/13 32/44/13 30/59/13 28/60/13
f 20/61/14 30/62/14 32/17/14 19/20/14
f 19/63/15 22/64/15 21/65/15 20/66/15
f 23/67/16 18/68/16 17/69/16 24/70/16
f 21/71/17 22/72/17 23/73/17 24/74/17
f 18/45/18 31/46/18 25/75/18 17/76/18
f 26/77/19 29/78/19 28/79/19 27/80/19
f 18/68/20 23/67/20 12/38/20 11/37/20
f 29/78/2 26/77/2 5/7/2 9/12/2
f 6/32/21 5/31/21 26/48/21 31/47/21
f 22/72/5 14/21/5 12/26/5 23/73/5
f 22/64/22 19/63/22 15/41/22 14/40/22
