# Blender v2.79 (sub 0) OBJ File: 'Prop-Pillar.blend'
# www.blender.org
mtllib Prop-Pillar.mtl
o Wall_Cube.001
v 0.142500 -7.965081 2.099993
v 0.142500 -4.250000 2.099999
v -0.142500 -4.249998 2.099999
v -0.142500 -7.965078 2.099993
v 0.142500 1.625000 1.000000
v -0.142500 1.625001 1.000000
v -0.142500 -1.624998 1.000000
v 0.142500 -1.624999 1.000000
v 0.142500 4.249999 2.100005
v -0.142500 4.250000 2.100005
v 0.142500 7.965081 2.119771
v -0.142500 7.965084 2.119771
v 0.500000 2.099416 0.687949
v 0.500000 4.500000 1.693909
v 0.500000 -4.500000 1.693901
v 0.500000 -2.099412 0.687944
v -0.500000 -2.099411 0.687944
v -0.500000 -4.499999 1.693901
v -0.500000 4.500000 1.693909
v -0.500000 2.099416 0.687949
v 0.500000 7.965079 1.693907
v -0.500000 7.965081 1.693907
v 0.500000 -7.965080 1.693893
v -0.500000 -7.965077 1.693893
v -0.142499 -7.965081 -2.099990
v -0.142499 -4.250000 -2.099997
v 0.142501 -4.249998 -2.099998
v 0.142501 -7.965077 -2.099990
v -0.142499 1.625000 -1.000001
v 0.142501 1.625001 -1.000001
v 0.142501 -1.624997 -0.999999
v -0.142499 -1.624999 -0.999999
v -0.142499 4.250000 -2.100005
v 0.142501 4.250000 -2.100006
v -0.142499 7.965082 -2.119774
v 0.142501 7.965085 -2.119775
v -0.499999 2.099416 -0.687949
v -0.499999 4.500000 -1.693910
v -0.499999 -4.500000 -1.693899
v -0.499999 -2.099412 -0.687942
v 0.500001 -2.099411 -0.687943
v 0.500001 -4.499999 -1.693900
v 0.500001 4.500000 -1.693911
v 0.500001 2.099416 -0.687950
v -0.499999 7.965079 -1.693909
v 0.500001 7.965082 -1.693910
v -0.499999 -7.965079 -1.693889
v 0.500001 -7.965076 -1.693890
vn 0.0000 -0.0000 1.0000
vn -0.0000 -0.3865 0.9223
vn 0.0000 0.3865 0.9223
vn 0.0000 -0.0053 1.0000
vn 0.7966 -0.2336 0.5575
vn 0.7966 0.2336 0.5575
vn -0.7966 0.2336 0.5575
vn -0.7966 -0.2336 0.5575
vn 0.6576 -0.0000 0.7534
vn -0.6576 -0.0000 0.7534
vn 0.7587 -0.0018 0.6515
vn -0.7587 -0.0018 0.6515
vn 0.7506 -0.0000 0.6608
vn -0.7506 -0.0000 0.6608
vn 0.0000 1.0000 -0.0000
vn -1.0000 0.0000 -0.0000
vn 1.0000 0.0000 0.0000
vn 0.7071 0.7071 0.0000
vn -0.7071 0.7071 -0.0000
vn 0.5445 -0.8388 -0.0000
vn -0.5445 -0.8388 -0.0000
vn -0.0000 -1.0000 -0.0000
vn -0.0000 -0.0000 -1.0000
vn -0.0000 -0.3865 -0.9223
vn -0.0000 0.3865 -0.9223
vn -0.0000 -0.0053 -1.0000
vn -0.7966 -0.2336 -0.5575
vn -0.7966 0.2336 -0.5575
vn 0.7966 0.2336 -0.5575
vn 0.7966 -0.2336 -0.5575
vn -0.6576 -0.0000 -0.7534
vn 0.6576 -0.0000 -0.7534
vn -0.7587 -0.0018 -0.6515
vn 0.7587 -0.0018 -0.6515
vn -0.7506 -0.0000 -0.6608
vn 0.7506 -0.0000 -0.6608
usemtl Material.003
s 1
f 1//1 2//1 3//1 4//1
f 5//1 6//1 7//1 8//1
f 9//2 10//2 6//2 5//2
f 8//3 7//3 3//3 2//3
f 11//4 12//4 10//4 9//4
f 9//5 5//5 13//5 14//5
f 8//6 2//6 15//6 16//6
f 3//7 7//7 17//7 18//7
f 6//8 10//8 19//8 20//8
f 16//9 13//9 5//9 8//9
f 20//10 17//10 7//10 6//10
f 14//11 21//11 11//11 9//11
f 22//12 19//12 10//12 12//12
f 2//13 1//13 23//13 15//13
f 18//14 24//14 4//14 3//14
f 12//15 11//15 21//15 22//15
f 17//16 20//16 37//16 40//16
f 13//17 16//17 41//17 44//17
f 21//18 14//17 43//17 46//18
f 22//19 45//19 38//16 19//16
f 21//18 46//18 45//19 22//19
f 19//16 38//16 37//16 20//16
f 13//17 44//17 43//17 14//17
f 23//20 48//20 42//17 15//17
f 24//21 18//16 39//16 47//21
f 23//20 1//22 4//22 24//21
f 15//17 42//17 41//17 16//17
f 17//16 40//16 39//16 18//16
f 48//20 23//20 24//21 47//21
usemtl Material.004
f 25//23 26//23 27//23 28//23
f 29//23 30//23 31//23 32//23
f 33//24 34//24 30//24 29//24
f 32//25 31//25 27//25 26//25
f 35//26 36//26 34//26 33//26
f 33//27 29//27 37//27 38//27
f 32//28 26//28 39//28 40//28
f 27//29 31//29 41//29 42//29
f 30//30 34//30 43//30 44//30
f 40//31 37//31 29//31 32//31
f 44//32 41//32 31//32 30//32
f 38//33 45//33 35//33 33//33
f 46//34 43//34 34//34 36//34
f 26//35 25//35 47//35 39//35
f 42//36 48//36 28//36 27//36
f 36//15 35//15 45//15 46//15
f 47//21 25//22 28//22 48//20
