# Blender v2.78 (sub 0) OBJ File: 'Railing.blend'
# www.blender.org
mtllib Railing.mtl
o Cube
v -0.224202 -0.174703 4.000750
v -1.123205 -0.174703 4.000749
v -1.123205 -0.174703 -4.000751
v 0.299072 0.563377 -3.935149
v 0.299071 0.563377 3.935152
v -0.336254 -0.174703 -4.000751
v -0.336254 0.504653 4.000750
v -0.336254 0.315305 -4.000749
v -0.336254 0.315305 4.000750
v 0.955725 1.882464 3.935152
v 0.269838 0.504653 -4.000748
v 0.269837 0.504653 4.000751
v 1.165818 1.851155 4.000751
v 0.984960 1.941189 -4.000748
v 0.984959 1.941189 4.000751
v 1.026005 2.010284 -4.035981
v 1.026005 2.010284 4.043858
v 1.107746 1.988382 -4.035981
v 1.167584 1.928543 -4.035981
v 1.167584 1.928543 4.043858
v 1.189487 1.846802 -4.035981
v 1.189487 1.846802 4.043858
v 0.944264 1.705223 -4.035981
v 0.862523 1.846802 -4.035981
v 0.862523 1.846802 4.043858
v 0.884425 1.928543 -4.035981
v 0.884425 1.928543 4.043858
v 0.944263 1.988382 -4.035981
v 0.944263 1.988382 4.043858
v -0.224202 -0.174703 -4.000750
v -0.336254 -0.174703 4.000749
v 0.450698 0.414619 -4.000748
v 0.450697 0.414619 4.000751
v -0.336253 0.504653 -4.000749
v -1.123205 0.315305 4.000748
v -1.123205 0.315305 -4.000750
v 1.165820 1.851155 -4.000748
v 0.479932 0.473343 -3.935149
v 0.479931 0.473343 3.935153
v 0.955726 1.882464 -3.935149
v 1.136586 1.792430 -3.935149
v 1.136585 1.792430 3.935153
v 1.107746 1.988382 4.043858
v 1.167584 1.765061 -4.035981
v 1.167584 1.765061 4.043858
v 1.107746 1.705223 -4.035981
v 1.107746 1.705223 4.043858
v 1.026005 1.683320 -4.035981
v 1.026005 1.683320 4.043858
v 0.944264 1.705223 4.043858
v 0.884425 1.765061 -4.035981
v 0.884425 1.765061 4.043858
vt 0.9910 0.3839
vt 0.9910 0.4074
vt 0.0001 0.4074
vt 0.0001 0.3839
vt 0.2162 0.9477
vt 0.2164 0.8131
vt 0.0002 0.8127
vt -0.0000 0.9474
vt 0.4324 0.9753
vt 0.2472 0.8131
vt 0.4325 0.9753
vt 0.3828 1.0000
vt 0.2162 1.0000
vt 0.2162 0.9480
vt 0.0001 0.1110
vt 0.9910 0.1110
vt 0.9910 0.1283
vt 0.0001 0.1283
vt 0.2470 0.8133
vt 0.2162 0.8133
vt 1.0000 0.9042
vt 1.0000 0.8320
vt 0.4258 0.8320
vt 0.4258 0.9042
vt 0.0001 0.2865
vt 0.9910 0.2865
vt -0.0000 0.9480
vt 0.0000 0.8133
vt 0.0001 0.0001
vt 0.9910 0.0001
vt 0.3827 1.0000
vt 0.2161 0.9997
vt 0.9910 0.4824
vt 0.0001 0.4824
vt 0.9765 0.9277
vt 0.9765 1.0000
vt 0.4493 1.0000
vt 0.4493 0.9277
vt 1.0000 0.8320
vt 1.0000 0.9042
vt 0.4258 0.9042
vt 0.4258 0.8320
vt 0.9828 0.4996
vt 0.0171 0.4997
vt 0.9765 0.8085
vt 0.4493 0.8085
vt 0.4493 0.8085
vt 0.9765 0.8085
vt 0.9828 0.5244
vt 0.0171 0.5245
vt 0.4493 1.0000
vt 0.9765 1.0000
vt 0.9765 0.9277
vt 0.4493 0.9277
vt 0.9992 0.6360
vt 0.0005 0.6360
vt 0.0004 0.6185
vt 0.9991 0.6185
vt 0.0003 0.6011
vt 0.9990 0.6011
vt 0.0002 0.5837
vt 0.9989 0.5837
vt 0.0001 0.5662
vt 0.9988 0.5662
vt 0.9998 0.7406
vt 0.0011 0.7406
vt 0.0010 0.7231
vt 0.9997 0.7231
vt 0.0009 0.7057
vt 0.9996 0.7057
vt 0.0008 0.6883
vt 0.9995 0.6883
vt 0.0007 0.6708
vt 0.9994 0.6708
vt 0.3496 0.8753
vt 0.3238 0.8606
vt 0.3087 0.8349
vt 0.3086 0.8052
vt 0.3233 0.7793
vt 0.3490 0.7643
vt 0.3787 0.7641
vt 0.4046 0.7789
vt 0.4196 0.8045
vt 0.4198 0.8343
vt 0.4050 0.8601
vt 0.3794 0.8752
vt 0.0006 0.6534
vt 0.9993 0.6534
vt 0.4050 0.8601
vt 0.3794 0.8752
vt 0.3496 0.8753
vt 0.3238 0.8606
vt 0.3087 0.8349
vt 0.3086 0.8052
vt 0.3233 0.7793
vt 0.3490 0.7643
vt 0.3787 0.7641
vt 0.4046 0.7789
vt 0.4196 0.8045
vt 0.4198 0.8343
vt 0.0001 0.2258
vt 0.9910 0.2258
vt 0.9999 0.5415
vt 0.0092 0.5415
vt 0.0000 0.5488
vt 0.9987 0.5488
vt 0.9999 0.7580
vt 0.0012 0.7580
vn -1.0000 -0.0000 -0.0000
vn 0.0000 0.0000 -1.0000
vn -0.0000 0.0000 1.0000
vn 0.0000 -1.0000 0.0000
vn 0.0000 1.0000 -0.0000
vn 0.6577 -0.7532 0.0000
vn -0.8952 0.4456 -0.0000
vn 0.8952 -0.4456 -0.0000
vn 0.4456 0.8952 0.0000
vn 0.2588 0.9659 0.0000
vn 0.7071 0.7071 0.0000
vn 0.9659 0.2588 0.0000
vn 0.9659 -0.2588 0.0000
vn -0.2588 -0.9659 0.0000
vn -0.7071 -0.7071 0.0000
vn -0.9659 -0.2588 0.0000
vn -0.9659 0.2588 0.0000
vn -0.7071 0.7071 0.0000
vn -0.2588 0.9659 0.0000
vn 0.7071 -0.7071 0.0000
vn 0.2588 -0.9659 0.0000
usemtl Material
s off
f 9/1/1 7/2/1 34/3/1 8/4/1
f 8/5/2 6/6/2 3/7/2 36/8/2
f 32/9/2 30/10/2 6/6/2 8/5/2
f 33/11/3 12/12/3 7/13/3 9/14/3
f 30/15/4 1/16/4 31/17/4 6/18/4
f 1/19/3 33/11/3 9/14/3 31/20/3
f 32/21/2 11/22/2 14/23/2 37/24/2
f 8/4/5 36/25/5 35/26/5 9/1/5
f 31/20/3 9/14/3 35/27/3 2/28/3
f 32/29/6 33/30/6 1/16/6 30/15/6
f 11/31/2 32/9/2 8/5/2 34/32/2
f 12/33/5 11/34/5 34/3/5 7/2/5
f 39/35/2 5/36/2 10/37/2 42/38/2
f 12/39/3 33/40/3 13/41/3 15/42/3
f 12/33/7 5/43/7 4/44/7 11/34/7
f 4/45/7 40/46/7 14/23/7 11/22/7
f 39/35/8 42/38/8 13/41/8 33/40/8
f 10/47/7 5/48/7 12/39/7 15/42/7
f 39/49/9 38/50/9 4/44/9 5/43/9
f 40/51/3 4/52/3 38/53/3 41/54/3
f 16/55/10 17/56/10 43/57/10 18/58/10
f 18/58/11 43/57/11 20/59/11 19/60/11
f 19/60/12 20/59/12 22/61/12 21/62/12
f 21/62/13 22/61/13 45/63/13 44/64/13
f 48/65/14 49/66/14 50/67/14 23/68/14
f 23/68/15 50/67/15 52/69/15 51/70/15
f 51/70/16 52/69/16 25/71/16 24/72/16
f 24/72/17 25/71/17 27/73/17 26/74/17
f 43/75/3 17/76/3 29/77/3 27/78/3 25/79/3 52/80/3 50/81/3 49/82/3 47/83/3 45/84/3 22/85/3 20/86/3
f 26/74/18 27/73/18 29/87/18 28/88/18
f 28/88/19 29/87/19 17/56/19 16/55/19
f 16/89/2 18/90/2 19/91/2 21/92/2 44/93/2 46/94/2 48/95/2 23/96/2 51/97/2 24/98/2 26/99/2 28/100/2
f 3/101/1 2/102/1 35/26/1 36/25/1
f 3/101/4 6/18/4 31/17/4 2/102/4
f 33/103/8 32/104/8 38/50/8 39/49/8
f 41/54/8 38/53/8 32/21/8 37/24/8
f 44/64/20 45/63/20 47/105/20 46/106/20
f 46/107/21 47/108/21 49/66/21 48/65/21
