# Blender v2.78 (sub 0) OBJ File: 'Store_Light.blend'
# www.blender.org
mtllib Store_Light.mtl
o Cube
v 0.083070 -1.050958 0.109538
v -0.082206 -1.050958 0.109538
v 0.099496 1.693125 0.099496
v -0.099496 1.693125 0.099496
v -1.056428 -1.932452 1.171470
v 0.083070 -0.944015 0.064437
v -0.082206 -0.944015 0.064437
v -1.056428 -1.932452 1.406733
v -1.056428 -2.039395 1.406733
v -1.056428 -2.039395 1.171470
v 0.083070 -1.108182 0.913515
v 0.083070 -0.944015 0.913515
v -0.082206 -0.944015 0.913515
v -0.082206 -1.108182 0.913515
v 0.099496 1.524482 0.054395
v -0.099496 1.524482 0.054395
v 0.099495 1.524482 0.736241
v 0.099495 1.693125 0.736241
v -0.022205 1.693125 0.736241
v -0.022205 1.524482 0.736241
v -0.082206 -1.108182 0.678252
v -0.082206 -0.944015 0.678252
v 0.083070 -1.108182 0.678252
v 0.083070 -0.944015 0.678252
v -0.327827 -1.220922 0.801557
v -0.581998 -1.511873 0.924861
v -0.812873 -1.757398 1.048166
v -0.327827 -1.220922 1.036820
v -0.581998 -1.511873 1.160124
v -0.812873 -1.757398 1.283429
v -0.812873 -1.864341 1.048166
v -0.556636 -1.615764 0.924861
v -0.285374 -1.319077 0.801557
v -0.285374 -1.319077 1.036820
v -0.556636 -1.615764 1.160124
v -0.812873 -1.864341 1.283429
v -1.214468 -2.039395 1.171470
v -1.214468 -1.932452 1.171470
v -1.214468 -1.932452 1.406733
v -1.214468 -2.039395 1.406733
v 1.062804 -1.932452 1.171470
v 1.062804 -1.932452 1.406733
v 1.062804 -2.039395 1.406733
v 1.062804 -2.039395 1.171470
v 0.334203 -1.220922 0.801557
v 0.588374 -1.511873 0.924861
v 0.819248 -1.757398 1.048166
v 0.334203 -1.220922 1.036820
v 0.588374 -1.511873 1.160124
v 0.819248 -1.757398 1.283429
v 0.819248 -1.864341 1.048166
v 0.563012 -1.615764 0.924861
v 0.291749 -1.319077 0.801557
v 0.291749 -1.319077 1.036820
v 0.563012 -1.615764 1.160124
v 0.819248 -1.864341 1.283429
v 1.220844 -2.039395 1.171470
v 1.220844 -1.932452 1.171470
v 1.220844 -1.932452 1.406733
v 1.220844 -2.039395 1.406733
v 0.099495 1.693125 0.525477
v 0.099495 1.524482 0.525477
v -0.022205 1.693125 0.525477
v -0.022205 1.524482 0.525477
v 0.162979 1.693125 0.736241
v 0.162979 1.524482 0.736241
v 0.162979 1.693125 0.525477
v 0.162979 1.524482 0.525477
v 0.219770 1.899654 1.150418
v 0.219770 1.317954 1.150418
v 0.219771 1.899654 0.111300
v 0.219771 1.317954 0.111300
v 0.282674 1.853542 1.104307
v 0.282674 1.364066 1.104307
v 0.282675 1.853542 0.157411
v 0.282675 1.364066 0.157411
v 0.282674 1.899654 1.150418
v 0.282674 1.317954 1.150418
v 0.282675 1.899654 0.111300
v 0.282675 1.317954 0.111300
v 0.260270 1.853542 1.104307
v 0.260270 1.364066 1.104307
v 0.260270 1.853542 0.157411
v 0.260270 1.364066 0.157411
v 0.083070 -1.050958 -0.109538
v -0.082206 -1.050958 -0.109538
v 0.099496 1.693125 -0.099496
v -0.099496 1.693125 -0.099496
v -1.056428 -1.932452 -1.171470
v 0.083070 -0.944015 -0.064437
v -0.082206 -0.944015 -0.064437
v -1.056428 -1.932452 -1.406733
v -1.056428 -2.039395 -1.406733
v -1.056428 -2.039395 -1.171470
v 0.083070 -1.108182 -0.913515
v 0.083070 -0.944015 -0.913515
v -0.082206 -0.944015 -0.913515
v -0.082206 -1.108182 -0.913515
v 0.099496 1.524482 -0.054395
v -0.099496 1.524482 -0.054395
v 0.099495 1.524482 -0.736241
v 0.099495 1.693125 -0.736241
v -0.022205 1.693125 -0.736241
v -0.022205 1.524482 -0.736241
v -0.082206 -1.108182 -0.678252
v -0.082206 -0.944015 -0.678252
v 0.083070 -1.108182 -0.678252
v 0.083070 -0.944015 -0.678252
v 0.099496 -1.065787 0.000000
v -0.099496 -1.065787 0.000000
v 0.099496 1.693125 0.000000
v -0.099496 1.693125 0.000000
v -0.099496 -0.937028 0.000000
v 0.099496 -0.937028 0.000000
v -0.099496 1.524482 0.000000
v 0.099496 1.524482 0.000000
v -0.327827 -1.220922 -0.801557
v -0.581998 -1.511873 -0.924861
v -0.812873 -1.757398 -1.048166
v -0.327827 -1.220922 -1.036820
v -0.581998 -1.511873 -1.160124
v -0.812873 -1.757398 -1.283429
v -0.812873 -1.864341 -1.048166
v -0.556636 -1.615764 -0.924861
v -0.285374 -1.319077 -0.801557
v -0.285374 -1.319077 -1.036820
v -0.556636 -1.615764 -1.160124
v -0.812873 -1.864341 -1.283429
v -1.214468 -2.039395 -1.171470
v -1.214468 -1.932452 -1.171470
v -1.214468 -1.932452 -1.406733
v -1.214468 -2.039395 -1.406733
v 1.062804 -1.932452 -1.171470
v 1.062804 -1.932452 -1.406733
v 1.062804 -2.039395 -1.406733
v 1.062804 -2.039395 -1.171470
v 0.334203 -1.220922 -0.801557
v 0.588374 -1.511873 -0.924861
v 0.819248 -1.757398 -1.048166
v 0.334203 -1.220922 -1.036820
v 0.588374 -1.511873 -1.160124
v 0.819248 -1.757398 -1.283429
v 0.819248 -1.864341 -1.048166
v 0.563012 -1.615764 -0.924861
v 0.291749 -1.319077 -0.801557
v 0.291749 -1.319077 -1.036820
v 0.563012 -1.615764 -1.160124
v 0.819248 -1.864341 -1.283429
v 1.220844 -2.039395 -1.171470
v 1.220844 -1.932452 -1.171470
v 1.220844 -1.932452 -1.406733
v 1.220844 -2.039395 -1.406733
v 0.099495 1.693125 -0.525477
v 0.099495 1.524482 -0.525477
v -0.022205 1.693125 -0.525477
v -0.022205 1.524482 -0.525477
v 0.162979 1.693125 -0.736241
v 0.162979 1.524482 -0.736241
v 0.162979 1.693125 -0.525477
v 0.162979 1.524482 -0.525477
v 0.219770 1.899654 -1.150418
v 0.219770 1.317954 -1.150418
v 0.219771 1.899654 -0.111300
v 0.219771 1.317954 -0.111300
v 0.282674 1.853542 -1.104307
v 0.282674 1.364066 -1.104307
v 0.282675 1.853542 -0.157411
v 0.282675 1.364066 -0.157411
v 0.282674 1.899654 -1.150418
v 0.282674 1.317954 -1.150418
v 0.282675 1.899654 -0.111300
v 0.282675 1.317954 -0.111300
v 0.260270 1.853542 -1.104307
v 0.260270 1.364066 -1.104307
v 0.260270 1.853542 -0.157411
v 0.260270 1.364066 -0.157411
vt 0.9233 0.0002
vt 0.9554 0.0152
vt 0.9405 0.0655
vt 0.9053 0.0608
vt 0.9019 0.9997
vt 0.9021 0.9365
vt 0.9337 0.9366
vt 0.9334 0.9998
vt 1.0000 0.8831
vt 1.0000 0.9367
vt 0.9684 0.9367
vt 0.9827 0.8831
vt 0.1858 0.1414
vt 0.0772 0.1495
vt 0.0898 0.1135
vt 0.2065 0.1148
vt 1.0000 0.0609
vt 1.0000 0.1018
vt 0.9789 0.0996
vt 0.9648 0.0655
vt 0.0799 0.0323
vt 0.1813 0.0411
vt 0.0680 0.0023
vt 0.1621 0.0126
vt 0.1615 0.2134
vt 0.0579 0.2243
vt 0.0304 0.0390
vt 0.0238 0.0110
vt -0.0000 0.9389
vt 0.0305 0.9389
vt 0.0305 0.9695
vt -0.0000 0.9695
vt 0.0741 0.9695
vt 0.0741 0.9389
vt 0.0741 0.9084
vt 0.0307 0.9040
vt 0.0338 0.8735
vt 0.0772 0.8779
vt 0.9196 0.8830
vt 0.9264 0.0995
vt 0.3255 0.9819
vt 0.2775 0.9798
vt 0.2791 0.9452
vt 0.3270 0.9473
vt 0.3612 0.9503
vt 0.3671 0.8906
vt 0.3851 0.8924
vt 0.3792 0.9521
vt 0.2803 0.8823
vt 0.2435 0.9449
vt 0.2441 0.8833
vt 0.3314 0.8856
vt 0.1880 0.9389
vt 0.1797 0.9190
vt 0.9052 0.1016
vt 0.9023 0.8830
vt 0.1880 0.9695
vt 0.1797 0.9894
vt 0.0741 1.0000
vt 0.1827 0.8885
vt 0.5078 0.2146
vt 0.4102 0.2162
vt 0.4361 0.1468
vt 0.5358 0.1492
vt 0.2804 0.2127
vt 0.3046 0.1433
vt 0.5461 0.0450
vt 0.4260 0.0469
vt 0.4126 0.0170
vt 0.5100 0.0100
vt 0.2992 0.0463
vt 0.2825 0.0177
vt 0.5704 0.1126
vt 0.4493 0.1159
vt 0.3220 0.1156
vt 0.0038 0.1072
vt 0.0001 0.0406
vt 0.0341 0.1056
vt 0.0271 0.1389
vt 0.0088 0.2120
vt 0.1858 0.1414
vt 0.2065 0.1148
vt 0.0898 0.1135
vt 0.0772 0.1495
vt 0.1813 0.0411
vt 0.0799 0.0323
vt 0.1621 0.0126
vt 0.0680 0.0023
vt 0.1615 0.2134
vt 0.0579 0.2243
vt 0.0238 0.0110
vt 0.0304 0.0390
vt 0.5078 0.2146
vt 0.5358 0.1492
vt 0.4361 0.1468
vt 0.4102 0.2162
vt 0.3046 0.1433
vt 0.2804 0.2127
vt 0.5461 0.0450
vt 0.5100 0.0100
vt 0.4126 0.0170
vt 0.4260 0.0469
vt 0.2825 0.0177
vt 0.2992 0.0463
vt 0.5704 0.1126
vt 0.4493 0.1159
vt 0.3220 0.1156
vt 0.0038 0.1072
vt 0.0341 0.1056
vt 0.0001 0.0406
vt 0.0271 0.1389
vt 0.0088 0.2120
vt 0.3936 0.7560
vt 0.3382 0.7446
vt 0.2894 0.7545
vt 0.2333 0.7601
vt 0.1953 0.8876
vt 0.1834 0.7513
vt 0.6895 0.8081
vt 0.6073 0.8078
vt 0.4438 0.7246
vt 0.8525 0.7246
vt 0.3247 1.0000
vt 0.2768 0.9979
vt 0.2458 0.9017
vt 0.1970 0.9060
vt 0.2250 0.9447
vt 0.2256 0.8832
vt 0.4436 0.9571
vt 0.8524 0.9571
vt 0.8524 0.9819
vt 0.4436 0.9819
vt 0.6067 0.8736
vt 0.6889 0.8740
vt 0.0171 0.2372
vt 0.7357 0.2374
vt 0.7357 0.2544
vt 0.0171 0.2542
vt 0.4185 0.9571
vt 0.4187 0.7246
vt 0.8777 0.7246
vt 0.8775 0.9571
vt 0.4438 0.6999
vt 0.8525 0.6999
vt 0.4001 0.9387
vt 0.4002 0.7430
vt 0.4619 0.6817
vt 0.8344 0.6817
vt 0.8342 1.0000
vt 0.4618 1.0000
vt 0.8961 0.7431
vt 0.8960 0.9387
vt 0.7356 0.6259
vt 0.0170 0.6256
vt 0.0000 0.6256
vt 0.0001 0.2542
vt 0.7527 0.2545
vt 0.7526 0.6259
vt 0.7356 0.6429
vt 0.0170 0.6426
vt 0.9405 0.0655
vt 0.9554 0.0152
vt 0.9334 0.9998
vt 0.9337 0.9366
vt 0.9827 0.8831
vt 0.9684 0.9367
vt 0.1858 0.1414
vt 0.2065 0.1148
vt 0.0898 0.1135
vt 0.0772 0.1495
vt 0.9648 0.0655
vt 0.9789 0.0996
vt 0.1813 0.0411
vt 0.0799 0.0323
vt 0.1621 0.0126
vt 0.0680 0.0023
vt 0.1615 0.2134
vt 0.0579 0.2243
vt 0.0238 0.0110
vt 0.0304 0.0390
vt -0.0000 0.9389
vt -0.0000 0.9695
vt 0.0305 0.9695
vt 0.0305 0.9389
vt 0.0741 0.9695
vt 0.0741 0.9389
vt 0.0741 0.9084
vt 0.0772 0.8779
vt 0.0338 0.8735
vt 0.0307 0.9040
vt 0.9264 0.0995
vt 0.9196 0.8830
vt 0.3255 0.9819
vt 0.3270 0.9473
vt 0.2791 0.9452
vt 0.2775 0.9798
vt 0.3612 0.9503
vt 0.3792 0.9521
vt 0.3851 0.8924
vt 0.3671 0.8906
vt 0.2803 0.8823
vt 0.2441 0.8833
vt 0.2435 0.9449
vt 0.3314 0.8856
vt 0.1880 0.9389
vt 0.1797 0.9190
vt 0.1880 0.9695
vt 0.1797 0.9894
vt 0.0741 1.0000
vt 0.1827 0.8885
vt 0.5078 0.2146
vt 0.5358 0.1492
vt 0.4361 0.1468
vt 0.4102 0.2162
vt 0.3046 0.1433
vt 0.2804 0.2127
vt 0.5461 0.0450
vt 0.5100 0.0100
vt 0.4126 0.0170
vt 0.4260 0.0469
vt 0.2825 0.0177
vt 0.2992 0.0463
vt 0.5704 0.1126
vt 0.4493 0.1159
vt 0.3220 0.1156
vt 0.0038 0.1072
vt 0.0341 0.1056
vt 0.0001 0.0406
vt 0.0271 0.1389
vt 0.0088 0.2120
vt 0.1858 0.1414
vt 0.0772 0.1495
vt 0.0898 0.1135
vt 0.2065 0.1148
vt 0.0799 0.0323
vt 0.1813 0.0411
vt 0.0680 0.0023
vt 0.1621 0.0126
vt 0.1615 0.2134
vt 0.0579 0.2243
vt 0.0304 0.0390
vt 0.0238 0.0110
vt 0.5078 0.2146
vt 0.4102 0.2162
vt 0.4361 0.1468
vt 0.5358 0.1492
vt 0.2804 0.2127
vt 0.3046 0.1433
vt 0.5461 0.0450
vt 0.4260 0.0469
vt 0.4126 0.0170
vt 0.5100 0.0100
vt 0.2992 0.0463
vt 0.2825 0.0177
vt 0.5704 0.1126
vt 0.4493 0.1159
vt 0.3220 0.1156
vt 0.0038 0.1072
vt 0.0001 0.0406
vt 0.0341 0.1056
vt 0.0271 0.1389
vt 0.0088 0.2120
vt 0.3936 0.7560
vt 0.3382 0.7446
vt 0.2894 0.7545
vt 0.2333 0.7601
vt 0.1834 0.7513
vt 0.1953 0.8876
vt 0.6895 0.8081
vt 0.8525 0.7246
vt 0.4438 0.7246
vt 0.6073 0.8078
vt 0.2768 0.9979
vt 0.3247 1.0000
vt 0.1970 0.9060
vt 0.2458 0.9017
vt 0.2256 0.8832
vt 0.2250 0.9447
vt 0.4436 0.9571
vt 0.4436 0.9819
vt 0.8524 0.9819
vt 0.8524 0.9571
vt 0.6067 0.8736
vt 0.6889 0.8740
vt 0.0171 0.2372
vt 0.0171 0.2542
vt 0.7357 0.2544
vt 0.7357 0.2374
vt 0.4187 0.7246
vt 0.4185 0.9571
vt 0.8775 0.9571
vt 0.8777 0.7246
vt 0.8525 0.6999
vt 0.4438 0.6999
vt 0.4001 0.9387
vt 0.4002 0.7430
vt 0.4619 0.6817
vt 0.8344 0.6817
vt 0.8342 1.0000
vt 0.4618 1.0000
vt 0.8961 0.7431
vt 0.8960 0.9387
vt 0.7356 0.6259
vt 0.0170 0.6256
vt 0.0000 0.6256
vt 0.0001 0.2542
vt 0.7527 0.2545
vt 0.7526 0.6259
vt 0.7356 0.6429
vt 0.0170 0.6426
vn 0.0000 -0.9910 0.1342
vn 0.0000 1.0000 0.0000
vn 1.0000 -0.0000 0.0000
vn -0.4517 0.0000 -0.8922
vn 0.9823 0.0352 0.1839
vn -0.5836 0.8120 0.0000
vn 0.4517 0.0000 0.8922
vn 0.5836 -0.8120 0.0000
vn 0.0000 0.0000 1.0000
vn 0.0000 -1.0000 -0.0000
vn -0.0000 0.0041 1.0000
vn 0.9906 -0.0030 0.1367
vn -1.0000 0.0000 -0.0000
vn -0.9805 0.0370 0.1932
vn -0.9896 -0.0032 0.1438
vn 0.0000 -0.9950 -0.1001
vn 0.7202 -0.6938 0.0000
vn 0.7380 -0.6748 0.0000
vn 0.6963 -0.7178 0.0000
vn 0.4224 0.0684 0.9038
vn 0.3211 0.1078 0.9409
vn 0.4108 0.0494 0.9104
vn -0.7481 0.6636 -0.0000
vn -0.7531 0.6579 0.0000
vn -0.7285 0.6850 0.0000
vn -0.4224 -0.0684 -0.9038
vn -0.3211 -0.1078 -0.9409
vn -0.4108 -0.0494 -0.9104
vn 0.0000 0.0000 -1.0000
vn 0.4517 0.0000 -0.8922
vn 0.5836 0.8120 0.0000
vn -0.4517 0.0000 0.8922
vn -0.5836 -0.8120 0.0000
vn -0.7108 -0.7034 0.0000
vn -0.7380 -0.6748 0.0000
vn -0.6963 -0.7178 0.0000
vn -0.4153 0.0672 0.9072
vn -0.3211 0.1078 0.9409
vn -0.4108 0.0494 0.9104
vn 0.7407 0.6718 0.0000
vn 0.7531 0.6579 0.0000
vn 0.7285 0.6850 0.0000
vn 0.4153 -0.0672 -0.9072
vn 0.3211 -0.1078 -0.9409
vn 0.4108 -0.0494 -0.9104
vn -0.9852 -0.0227 0.1698
vn -0.9642 0.2651 -0.0000
vn -0.9642 -0.2651 -0.0000
vn -0.9907 0.0000 0.1358
vn -0.9907 0.0000 -0.1358
vn 0.0000 -0.9910 -0.1342
vn 0.9823 0.0352 -0.1839
vn -0.0000 0.0041 -1.0000
vn 0.9906 -0.0030 -0.1367
vn -0.9805 0.0370 -0.1932
vn -0.9896 -0.0032 -0.1438
vn 0.0000 -0.9950 0.1001
vn 0.4224 0.0684 -0.9038
vn 0.3211 0.1078 -0.9409
vn 0.4108 0.0494 -0.9104
vn -0.4224 -0.0684 0.9038
vn -0.3211 -0.1078 0.9409
vn -0.4108 -0.0494 0.9104
vn -0.4153 0.0672 -0.9072
vn -0.3211 0.1078 -0.9409
vn -0.4108 0.0494 -0.9104
vn 0.4153 -0.0672 0.9072
vn 0.3211 -0.1078 0.9409
vn 0.4108 -0.0494 0.9104
vn -0.9852 -0.0227 -0.1698
usemtl Material
s off
f 109/1/1 1/2/1 2/3/1 110/4/1
f 111/5/2 112/6/2 4/7/2 3/8/2
f 116/9/3 111/10/3 3/11/3 15/12/3
f 31/13/4 10/14/4 5/15/4 27/16/4
f 109/17/5 114/18/5 6/19/5 1/20/5
f 27/16/6 5/15/6 8/21/6 30/22/6
f 30/22/7 8/21/7 9/23/7 36/24/7
f 36/25/8 9/26/8 10/14/8 31/13/8
f 9/23/9 8/21/9 39/27/9 40/28/9
f 11/29/9 12/30/9 13/31/9 14/32/9
f 22/33/2 13/31/2 12/30/2 24/34/2
f 23/35/10 11/36/10 14/37/10 21/38/10
f 6/19/11 15/12/11 16/39/11 7/40/11
f 114/18/12 116/9/12 15/12/12 6/19/12
f 17/41/9 18/42/9 19/43/9 20/44/9
f 17/45/10 62/46/10 68/47/10 66/48/10
f 63/49/2 19/43/2 18/50/2 61/51/2
f 64/52/13 20/44/13 19/43/13 63/49/13
f 62/46/10 17/45/10 20/44/10 64/52/10
f 6/53/3 24/34/3 23/35/3 1/54/3
f 2/3/14 7/40/14 113/55/14 110/4/14
f 7/40/15 16/39/15 115/56/15 113/55/15
f 16/39/13 4/7/13 112/6/13 115/56/13
f 7/57/2 22/33/2 24/34/2 6/53/2
f 2/58/13 21/59/13 22/33/13 7/57/13
f 1/54/16 23/35/16 21/38/16 2/60/16
f 14/61/17 34/62/17 33/63/17 21/64/17
f 34/62/18 35/65/18 32/66/18 33/63/18
f 35/65/19 36/25/19 31/13/19 32/66/19
f 13/67/20 28/68/20 34/69/20 14/70/20
f 28/68/21 29/71/21 35/72/21 34/69/21
f 29/71/22 30/22/22 36/24/22 35/72/22
f 22/73/23 25/74/23 28/68/23 13/67/23
f 25/74/24 26/75/24 29/71/24 28/68/24
f 26/75/25 27/16/25 30/22/25 29/71/25
f 21/64/26 33/63/26 25/74/26 22/73/26
f 33/63/27 32/66/27 26/75/27 25/74/27
f 32/66/28 31/13/28 27/16/28 26/75/28
f 37/76/13 40/77/13 39/27/13 38/78/13
f 5/15/29 10/14/29 37/79/29 38/78/29
f 10/14/10 9/26/10 40/80/10 37/79/10
f 8/21/2 5/15/2 38/78/2 39/27/2
f 51/81/30 47/82/30 41/83/30 44/84/30
f 47/82/31 50/85/31 42/86/31 41/83/31
f 50/85/32 56/87/32 43/88/32 42/86/32
f 56/89/33 51/81/33 44/84/33 43/90/33
f 43/88/9 60/91/9 59/92/9 42/86/9
f 11/93/34 23/94/34 53/95/34 54/96/34
f 54/96/35 53/95/35 52/97/35 55/98/35
f 55/98/36 52/97/36 51/81/36 56/89/36
f 12/99/37 11/100/37 54/101/37 48/102/37
f 48/102/38 54/101/38 55/103/38 49/104/38
f 49/104/39 55/103/39 56/87/39 50/85/39
f 24/105/40 12/99/40 48/102/40 45/106/40
f 45/106/41 48/102/41 49/104/41 46/107/41
f 46/107/42 49/104/42 50/85/42 47/82/42
f 23/94/43 24/105/43 45/106/43 53/95/43
f 53/95/44 45/106/44 46/107/44 52/97/44
f 52/97/45 46/107/45 47/82/45 51/81/45
f 57/108/3 58/109/3 59/92/3 60/110/3
f 41/83/29 58/109/29 57/111/29 44/84/29
f 44/84/10 57/111/10 60/112/10 43/90/10
f 42/86/2 59/92/2 58/109/2 41/83/2
f 15/113/10 62/46/10 64/52/10 16/114/10
f 16/114/46 64/52/46 63/49/46 4/115/46
f 4/115/2 63/49/2 61/51/2 3/116/2
f 3/116/3 61/51/3 62/117/3 15/118/3
f 67/119/47 65/120/47 69/121/47 71/122/47
f 18/42/9 17/41/9 66/123/9 65/124/9
f 62/117/29 61/51/29 67/125/29 68/126/29
f 61/51/2 18/50/2 65/127/2 67/128/2
f 70/129/10 72/130/10 80/131/10 78/132/10
f 66/133/48 68/134/48 72/130/48 70/129/48
f 65/120/49 66/133/49 70/129/49 69/121/49
f 68/134/50 67/119/50 71/122/50 72/130/50
f 74/135/2 76/136/2 84/137/2 82/138/2
f 69/121/9 70/129/9 78/139/9 77/140/9
f 72/130/29 71/122/29 79/141/29 80/142/29
f 71/122/2 69/121/2 77/143/2 79/144/2
f 74/145/3 73/146/3 77/140/3 78/139/3
f 73/147/3 75/148/3 79/144/3 77/143/3
f 76/149/3 74/150/3 78/132/3 80/131/3
f 75/151/3 76/152/3 80/142/3 79/141/3
f 83/153/3 81/154/3 82/138/3 84/137/3
f 73/155/29 74/156/29 82/138/29 81/154/29
f 76/157/9 75/158/9 83/153/9 84/137/9
f 75/159/10 73/160/10 81/154/10 83/153/10
f 109/1/51 110/4/51 86/161/51 85/162/51
f 111/5/2 87/163/2 88/164/2 112/6/2
f 116/9/3 99/165/3 87/166/3 111/10/3
f 123/167/32 119/168/32 89/169/32 94/170/32
f 109/17/52 85/171/52 90/172/52 114/18/52
f 119/168/6 122/173/6 92/174/6 89/169/6
f 122/173/30 128/175/30 93/176/30 92/174/30
f 128/177/8 123/167/8 94/170/8 93/178/8
f 93/176/29 132/179/29 131/180/29 92/174/29
f 95/181/29 98/182/29 97/183/29 96/184/29
f 106/185/2 108/186/2 96/184/2 97/183/2
f 107/187/10 105/188/10 98/189/10 95/190/10
f 90/172/53 91/191/53 100/192/53 99/165/53
f 114/18/54 90/172/54 99/165/54 116/9/54
f 101/193/29 104/194/29 103/195/29 102/196/29
f 101/197/10 158/198/10 160/199/10 154/200/10
f 155/201/2 153/202/2 102/203/2 103/195/2
f 156/204/13 155/201/13 103/195/13 104/194/13
f 154/200/10 156/204/10 104/194/10 101/197/10
f 90/205/3 85/206/3 107/187/3 108/186/3
f 86/161/55 110/4/55 113/55/55 91/191/55
f 91/191/56 113/55/56 115/56/56 100/192/56
f 100/192/13 115/56/13 112/6/13 88/164/13
f 91/207/2 90/205/2 108/186/2 106/185/2
f 86/208/13 91/207/13 106/185/13 105/209/13
f 85/206/57 86/210/57 105/188/57 107/187/57
f 98/211/17 105/212/17 125/213/17 126/214/17
f 126/214/18 125/213/18 124/215/18 127/216/18
f 127/216/19 124/215/19 123/167/19 128/177/19
f 97/217/58 98/218/58 126/219/58 120/220/58
f 120/220/59 126/219/59 127/221/59 121/222/59
f 121/222/60 127/221/60 128/175/60 122/173/60
f 106/223/23 97/217/23 120/220/23 117/224/23
f 117/224/24 120/220/24 121/222/24 118/225/24
f 118/225/25 121/222/25 122/173/25 119/168/25
f 105/212/61 106/223/61 117/224/61 125/213/61
f 125/213/62 117/224/62 118/225/62 124/215/62
f 124/215/63 118/225/63 119/168/63 123/167/63
f 129/226/13 130/227/13 131/180/13 132/228/13
f 89/169/9 130/227/9 129/229/9 94/170/9
f 94/170/10 129/229/10 132/230/10 93/178/10
f 92/174/2 131/180/2 130/227/2 89/169/2
f 143/231/7 136/232/7 133/233/7 139/234/7
f 139/234/31 133/233/31 134/235/31 142/236/31
f 142/236/4 134/235/4 135/237/4 148/238/4
f 148/239/33 135/240/33 136/232/33 143/231/33
f 135/237/29 134/235/29 151/241/29 152/242/29
f 95/243/34 146/244/34 145/245/34 107/246/34
f 146/244/35 147/247/35 144/248/35 145/245/35
f 147/247/36 148/239/36 143/231/36 144/248/36
f 96/249/64 140/250/64 146/251/64 95/252/64
f 140/250/65 141/253/65 147/254/65 146/251/65
f 141/253/66 142/236/66 148/238/66 147/254/66
f 108/255/40 137/256/40 140/250/40 96/249/40
f 137/256/41 138/257/41 141/253/41 140/250/41
f 138/257/42 139/234/42 142/236/42 141/253/42
f 107/246/67 145/245/67 137/256/67 108/255/67
f 145/245/68 144/248/68 138/257/68 137/256/68
f 144/248/69 143/231/69 139/234/69 138/257/69
f 149/258/3 152/259/3 151/241/3 150/260/3
f 133/233/9 136/232/9 149/261/9 150/260/9
f 136/232/10 135/240/10 152/262/10 149/261/10
f 134/235/2 133/233/2 150/260/2 151/241/2
f 99/263/10 100/264/10 156/204/10 154/200/10
f 100/264/70 88/265/70 155/201/70 156/204/70
f 88/265/2 87/266/2 153/202/2 155/201/2
f 87/266/3 99/267/3 154/268/3 153/202/3
f 159/269/47 163/270/47 161/271/47 157/272/47
f 102/196/29 157/273/29 158/274/29 101/193/29
f 154/268/9 160/275/9 159/276/9 153/202/9
f 153/202/2 159/277/2 157/278/2 102/203/2
f 162/279/10 170/280/10 172/281/10 164/282/10
f 158/283/48 162/279/48 164/282/48 160/284/48
f 157/272/50 161/271/50 162/279/50 158/283/50
f 160/284/49 164/282/49 163/270/49 159/269/49
f 166/285/2 174/286/2 176/287/2 168/288/2
f 161/271/29 169/289/29 170/290/29 162/279/29
f 164/282/9 172/291/9 171/292/9 163/270/9
f 163/270/2 171/293/2 169/294/2 161/271/2
f 166/295/3 170/290/3 169/289/3 165/296/3
f 165/297/3 169/294/3 171/293/3 167/298/3
f 168/299/3 172/281/3 170/280/3 166/300/3
f 167/301/3 171/292/3 172/291/3 168/302/3
f 175/303/3 176/287/3 174/286/3 173/304/3
f 165/305/9 173/304/9 174/286/9 166/306/9
f 168/307/29 176/287/29 175/303/29 167/308/29
f 167/309/10 175/303/10 173/304/10 165/310/10
