# Blender v2.79 (sub 0) OBJ File: 'Level-Engine-1.blend'
# www.blender.org
mtllib Level-Engine-1.mtl
o Cylinder
v -32.446804 -10.122923 -106.154640
v 108.156021 -10.122923 -24.977558
v 108.156021 -10.122923 24.977568
v -32.446812 -10.122923 106.154640
v -75.709213 -10.122923 81.177055
v -75.709213 -10.122923 -81.177055
v -11.154072 -10.122911 -36.492233
v 37.180241 -10.122911 -8.586407
v 37.180241 -10.122911 8.586411
v -11.154074 -10.122911 36.492237
v -26.026169 -10.122911 27.905821
v -26.026169 -10.122911 -27.905821
vt 0.203785 0.999907
vt 0.269218 0.786097
vt 0.648202 0.567465
vt 0.866049 0.617854
vt 0.000357 0.117648
vt 0.152806 0.281219
vt 0.152654 0.718745
vt 0.000093 0.882212
vt 0.866130 0.382603
vt 0.648249 0.432842
vt 0.269416 0.213948
vt 0.204131 0.000093
vn -0.0000 1.0000 0.0000
usemtl None
s off
f 5/1/1 11/2/1 12/3/1 6/4/1
f 3/5/1 9/6/1 10/7/1 4/8/1
f 1/9/1 7/10/1 8/11/1 2/12/1
f 2/12/1 8/11/1 9/6/1 3/5/1
f 6/4/1 12/3/1 7/10/1 1/9/1
f 4/8/1 10/7/1 11/2/1 5/1/1
