# Blender v2.79 (sub 0) OBJ File: 'Level-Engine-3.blend'
# www.blender.org
mtllib Level-Engine-3.mtl
o Cylinder
v -26.026171 -33.037060 27.905825
v -26.026171 -33.037060 -27.905825
v 37.180248 -33.037060 8.586412
v -11.154075 -33.037060 36.492241
v -11.154072 -10.122911 -36.492233
v 37.180241 -10.122911 -8.586407
v 37.180241 -10.122911 8.586411
v -11.154074 -10.122911 36.492237
v -26.026169 -10.122911 27.905821
v -26.026169 -10.122911 -27.905821
v 37.180248 -33.037060 -8.586408
v -11.154073 -33.037060 -36.492241
vt 0.764626 0.502635
vt 0.000150 0.502635
vt 0.000150 0.251543
vt 0.764626 0.251543
vt 0.764626 0.754028
vt 0.000150 0.754027
vt 0.000150 0.502936
vt 0.764626 0.502936
vt 0.999849 0.502936
vt 0.999849 0.754028
vt 0.999850 0.251242
vt 0.235374 0.251242
vt 0.235374 0.000150
vt 0.999850 0.000151
vt 0.000150 0.000150
vt 0.000150 0.251242
vt 0.999849 0.251543
vt 0.999849 0.502635
vn -0.5000 -0.0000 0.8660
vn 1.0000 0.0000 0.0000
vn 0.5000 -0.0000 0.8660
vn -0.5000 -0.0000 -0.8660
vn 0.5000 -0.0000 -0.8660
vn -1.0000 -0.0000 0.0000
usemtl None
s off
f 6/1/1 5/2/1 12/3/1 11/4/1
f 10/5/2 9/6/2 1/7/2 2/8/2
f 10/5/3 2/8/3 12/9/3 5/10/3
f 3/11/4 4/12/4 8/13/4 7/14/4
f 9/15/5 8/13/5 4/12/5 1/16/5
f 6/1/6 11/4/6 3/17/6 7/18/6
