# Blender v2.78 (sub 0) OBJ File: 'IntactShip.blend'
# www.blender.org
mtllib Dead_Wing_R_OaC.mtl
o Dead_Wing_R_Wing_Cube.003
v -1.075122 -0.383200 11.827754
v -1.341575 0.244036 12.241337
v -0.927075 0.268635 11.744035
v -4.268609 -0.059351 10.491527
v -4.086246 0.330598 10.491527
v -3.522519 0.211848 12.892012
v -3.765070 -0.059351 12.892012
v 2.561489 -0.059351 3.563023
v 1.055463 1.163920 3.563019
v 1.221802 1.287435 2.822688
v 2.814852 -0.059351 2.593491
v -0.813721 1.163920 3.563025
v -0.185584 1.202034 3.334566
v 2.057373 -1.282619 3.563029
v 2.257184 -1.430990 2.673725
v 1.221800 -1.406137 2.822688
v -0.196267 -1.320086 3.338456
v -0.813721 -1.282619 3.563032
v -4.856018 -0.602564 6.697827
v -5.007754 -0.059350 6.697827
v -4.845205 -0.059351 7.742760
v -4.731761 -0.585277 7.742757
v -0.155534 -0.481072 9.849285
v 0.151070 -0.059351 9.849281
v 0.467306 -0.059351 7.742751
v 0.116358 -0.585278 7.742755
v -2.093770 0.259269 11.933399
v -2.260561 -0.402170 11.444261
v -2.173067 -0.369332 12.108126
v -4.086246 -0.449300 10.491527
v -3.522519 -0.330552 12.892014
v -4.237067 -0.481071 9.849287
v -0.155534 0.362370 9.849279
v -4.237067 0.362370 9.849287
v -4.731761 0.466576 7.742760
v 0.116358 0.466576 7.742749
v -4.856018 0.535801 6.697829
v 0.122571 -0.028820 9.886922
v 0.037839 -0.028547 10.453879
v -1.294362 -0.028547 10.453879
v -1.209628 -0.028820 9.886922
v -0.238428 0.330598 10.491520
v -0.238428 -0.449300 10.491524
v -4.403328 -0.059351 9.849287
v -0.211163 0.301756 10.453800
v -1.543364 0.301756 10.453800
v -0.405879 0.266418 11.788876
v -0.416929 -0.380888 11.874497
v -0.143550 -0.059351 11.811822
v -0.137627 0.330072 9.886993
v 0.054656 -0.059351 10.491522
v -0.197332 -0.405827 10.434668
v -0.128541 -0.432392 9.906132
v 0.108114 -0.105371 9.906018
v 0.029305 -0.105786 10.434780
v -1.469828 0.330072 9.886993
v -1.529533 -0.405827 10.434668
v -1.302893 -0.105786 10.434780
v -1.224087 -0.105371 9.906018
v -1.460742 -0.432392 9.906132
v 1.086865 -0.933949 5.652892
v 1.514399 -0.059351 5.652888
v 2.213281 -0.164461 4.258000
v 1.755333 -1.017057 4.213438
v -0.620880 -1.192852 4.101084
v 0.585911 0.815249 5.652884
v -1.828129 0.815249 5.652890
v 0.751641 0.938312 4.915259
v 0.942339 0.006543 6.673513
v 0.449057 0.007238 7.660130
v -1.501990 0.007239 7.660130
v -1.008706 0.006543 6.673512
v 0.351133 0.640913 6.697814
v 0.601613 -0.759615 6.697823
v -3.164292 -0.933948 5.652897
v 1.422140 -0.147905 5.740977
v 1.092241 -0.832272 5.742929
v -0.858802 -0.832272 5.742929
v -0.528908 -0.147905 5.740977
v -5.495401 -0.059350 3.563038
v -5.228789 1.163921 3.563040
v -4.980277 0.815249 5.652899
v -5.170303 -0.059350 5.652899
v -5.228787 -1.282619 3.563034
v -4.980275 -0.933948 5.652897
v 0.407647 0.576971 6.699846
v 0.625761 0.739159 5.733426
v -1.325282 0.672211 5.733426
v -1.543399 0.510023 6.699846
v 0.190953 0.416060 7.664236
v -1.760093 0.349112 7.664236
v 1.412213 0.006371 5.735278
v 0.990852 -0.059351 6.697821
v 0.461415 -0.147016 7.654530
v 0.207674 -0.514723 7.651348
v 0.646994 -0.672465 6.704359
v 0.951768 -0.147588 6.678238
v -0.538830 0.006372 5.735278
v -1.304052 -0.672465 6.704359
v -0.999278 -0.147588 6.678238
v -1.743369 -0.514723 7.651348
v -1.489630 -0.147016 7.654530
v 2.558843 -0.120280 3.341366
v 1.190354 1.109254 3.341360
v 0.075697 -0.099193 3.555832
v 2.127263 -1.227953 3.341374
v -0.204305 -1.227953 3.341374
v -5.326601 1.301150 2.740510
v -5.646218 -0.059350 2.593506
v -5.326598 -1.419848 2.740510
v -1.462970 -1.227953 3.341374
v -1.788085 -0.089586 4.260660
v -5.169780 -1.227952 3.341376
v -5.424707 -0.059350 2.695387
v -5.169780 -1.227952 2.812635
v -5.424709 -0.059350 3.341381
v -5.169780 1.109254 2.812635
v -5.169780 1.109254 3.341383
v 2.558843 -0.120280 2.630325
v 1.190354 1.109254 2.834126
v -4.666678 1.250512 3.044028
v -3.022123 1.289704 2.809092
v -1.454664 1.200426 3.344210
v 2.127263 -1.227953 2.692419
v -1.462987 1.109254 3.341370
v -0.204277 1.109254 3.341366
v -3.022123 1.109252 2.809092
v -4.666678 1.109252 3.044028
v -4.666678 -1.227953 3.044027
v -3.022123 -1.227951 2.809092
v 1.221800 -1.227951 2.822688
v -1.483911 -1.320792 3.334231
v -3.022123 -1.408407 2.809092
v -4.666678 -1.369206 3.044028
v -0.813721 -0.059351 3.563027
v 0.866717 1.023763 4.403083
v 0.809178 0.875926 4.659171
v -2.281826 0.710137 5.652892
v -2.735524 0.815249 5.652892
v -3.522521 -0.059351 12.892012
v -3.369697 -0.347415 12.551144
v -3.511991 -0.371618 12.061891
v -2.395934 -0.373623 12.021317
v -2.649995 0.261747 11.883289
v -3.381700 -0.390738 11.675387
v -2.807783 0.238374 12.355839
v -3.064794 0.225127 12.623566
v -0.717301 -1.080687 3.832057
v -3.558078 -0.776901 5.652897
v -3.951865 -0.933948 5.652897
vt 0.5476 0.3557
vt 0.5062 0.3310
vt 0.4942 0.3757
vt 0.0186 0.4232
vt 0.0185 0.5563
vt 0.0381 0.5592
vt 0.0418 0.4253
vt 0.4839 0.1699
vt 0.5098 0.1155
vt 0.4136 0.0879
vt 0.3971 0.1317
vt 0.3308 0.1045
vt 0.3013 0.1063
vt 0.5528 0.0512
vt 0.5995 0.0140
vt 0.5424 0.0030
vt 0.9337 0.2299
vt 0.9260 0.2862
vt 0.9547 0.2905
vt 0.9642 0.2336
vt 0.6784 0.4102
vt 0.6528 0.2901
vt 0.6179 0.2992
vt 0.6499 0.4147
vt 0.5072 0.4324
vt 0.5296 0.4737
vt 0.5663 0.4429
vt 0.8978 0.4365
vt 0.8721 0.5705
vt 0.8922 0.5720
vt 0.9214 0.4396
vt 0.4641 0.0235
vt 0.4856 0.0738
vt 0.9046 0.4007
vt 0.2576 0.4466
vt 0.3052 0.3380
vt 0.0462 0.2739
vt 0.0429 0.3895
vt 0.2840 0.4566
vt 0.3367 0.3526
vt 0.0192 0.2177
vt 0.0180 0.2727
vt 0.0514 0.2177
vt 0.8859 0.7674
vt 0.7593 0.7674
vt 0.7513 0.7136
vt 0.8779 0.7136
vt 0.2439 0.4791
vt 0.6850 0.4456
vt 0.9293 0.4043
vt 0.7276 0.6822
vt 0.8542 0.6822
vt 0.0185 0.3877
vt 0.5626 0.3110
vt 0.5185 0.2956
vt 0.5465 0.2850
vt 0.2587 0.4492
vt 0.2466 0.4779
vt 0.2677 0.4858
vt 0.2687 0.4884
vt 0.2811 0.4578
vt 0.6813 0.4429
vt 0.6758 0.4138
vt 0.6537 0.4173
vt 0.6583 0.4495
vt 0.6607 0.4460
vt 0.7109 0.7501
vt 0.6854 0.7165
vt 0.7300 0.6886
vt 0.6907 0.7207
vt 0.7139 0.7513
vt 0.7515 0.7172
vt 0.8856 0.7674
vt 0.7590 0.7674
vt 0.7365 0.7985
vt 0.8631 0.7985
vt 0.8631 0.6384
vt 0.7365 0.6384
vt 0.8566 0.6886
vt 0.8612 0.8016
vt 0.7346 0.8016
vt 0.8781 0.7172
vt 0.7346 0.6283
vt 0.8612 0.6283
vt 0.6019 0.1694
vt 0.5625 0.0908
vt 0.5119 0.1096
vt 0.5512 0.1873
vt 0.6954 0.0810
vt 0.3591 0.2304
vt 0.3799 0.1941
vt 0.2263 0.1946
vt 0.4217 0.2604
vt 0.4840 0.2040
vt 0.9777 0.8448
vt 0.8964 0.8420
vt 0.8744 0.8824
vt 0.9558 0.8852
vt 0.3310 0.2833
vt 0.6272 0.2290
vt 0.8387 0.1690
vt 0.9987 0.7998
vt 0.9145 0.8015
vt 0.8997 0.7723
vt 0.9838 0.7705
vt 0.0087 0.0557
vt 0.0153 0.1653
vt 0.0612 0.1630
vt 0.0740 0.0543
vt 0.9325 0.0612
vt 0.9262 0.1713
vt 0.9737 0.1768
vt 0.9869 0.0628
vt 0.9509 0.9431
vt 0.8696 0.9375
vt 0.8761 0.9789
vt 0.9574 0.9845
vt 0.9444 0.9018
vt 0.8632 0.8963
vt 0.3114 0.3356
vt 0.3354 0.3469
vt 0.3611 0.2367
vt 0.3354 0.2856
vt 0.3748 0.3022
vt 0.3782 0.3053
vt 0.4139 0.2615
vt 0.6205 0.2928
vt 0.6451 0.2863
vt 0.6221 0.2312
vt 0.5989 0.1762
vt 0.5593 0.1903
vt 0.5848 0.2431
vt 0.5895 0.2403
vt 0.8485 0.8444
vt 0.8238 0.8082
vt 0.7987 0.8430
vt 0.8310 0.8696
vt 0.8291 0.8720
vt 0.7934 0.8426
vt 0.8130 0.8163
vt 0.8432 0.8499
vt 0.8642 0.9010
vt 0.8748 0.8849
vt 0.9483 0.8992
vt 0.9589 0.8831
vt 0.9987 0.8063
vt 0.9173 0.8035
vt 0.9681 0.9402
vt 0.8840 0.9420
vt 0.9882 0.9819
vt 0.9041 0.9836
vt 0.9669 0.7746
vt 0.8855 0.7746
vt 0.8951 0.8423
vt 0.9792 0.8406
vt 0.6404 0.8616
vt 0.4382 0.8540
vt 0.5261 0.9451
vt 0.5963 0.7845
vt 0.4221 0.7455
vt 0.0792 0.0110
vt 0.0061 0.0045
vt 0.9363 0.0027
vt 0.9925 0.0094
vt 0.3066 0.7409
vt 0.0780 0.7913
vt 0.2655 0.8519
vt 0.0258 0.8502
vt 0.0597 0.8507
vt 0.0525 0.7697
vt 0.0504 0.9312
vt 0.0764 0.9104
vt 0.6730 0.9053
vt 0.5425 0.9832
vt 0.1088 0.0347
vt 0.6329 0.7397
vt 0.6866 0.8350
vt 0.3046 0.9668
vt 0.4166 0.9649
vt 0.0949 0.9351
vt 0.1866 0.9762
vt 0.1910 0.7282
vt 0.0972 0.7670
vt 0.5487 0.7309
vt 0.7075 0.0673
vt 0.7392 0.0515
vt 0.3642 0.7416
vt 0.3055 0.7334
vt 0.1849 0.9878
vt 0.0926 0.9444
vt 0.1895 0.7163
vt 0.0952 0.7576
vt 0.0403 0.7556
vt 0.3609 0.9671
vt 0.3058 0.9738
vt 0.3587 0.8552
vt 0.0107 0.8500
vt 0.0379 0.9450
vt 0.5425 0.9983
vt 0.4176 0.9727
vt 0.5485 0.7163
vt 0.4224 0.7373
vt 0.6435 0.7212
vt 0.7105 0.8373
vt 0.6929 0.9141
vt 0.4541 0.1995
vt 0.3828 0.1819
vt 0.5165 0.6614
vt 0.5073 0.6852
vt 0.6634 0.7087
vt 0.2665 0.7022
vt 0.2307 0.6897
vt 0.0018 0.7087
vt 0.1731 0.1915
vt 0.4938 0.7047
vt 0.1949 0.6748
vt 0.2168 0.5448
vt 0.1901 0.5352
vt 0.2377 0.5538
vt 0.3726 0.4637
vt 0.3554 0.4615
vt 0.3701 0.4830
vt 0.3751 0.4445
vt 0.8697 0.5247
vt 0.8629 0.5520
vt 0.6985 0.5217
vt 0.6749 0.5213
vt 0.4739 0.4546
vt 0.5151 0.4829
vt 0.4520 0.5229
vt 0.4393 0.4459
vt 0.4129 0.4485
vt 0.4240 0.5144
vt 0.3953 0.4918
vt 0.7347 0.5175
vt 0.7992 0.4935
vt 0.7959 0.5303
vt 0.8616 0.5036
vt 0.8216 0.5207
vt 0.0658 0.5514
vt 0.0830 0.5409
vt 0.0978 0.5183
vt 0.1263 0.5287
vt 0.1614 0.5554
vt 0.1716 0.6140
vt 0.1443 0.6371
vt 0.4304 0.6140
vt 0.4236 0.5889
vt 0.8649 0.1747
vt 0.7077 0.0669
vt 0.1196 0.6631
vt 0.0027 0.6358
vt 0.4394 0.6422
vt 0.5896 0.4742
vt 0.9004 0.0275
vt 0.8103 0.0141
vt 0.6541 0.0395
vt 0.1945 0.0428
vt 0.2460 0.0747
vn 0.7671 -0.0927 0.6348
vn -0.8248 0.5301 0.1965
vn 0.6333 0.7450 0.2093
vn 0.0000 0.9864 0.1646
vn 0.0000 -0.9864 0.1646
vn -0.9618 -0.2386 0.1340
vn 0.8149 -0.5654 0.1277
vn 0.9801 -0.1574 -0.1214
vn -0.8248 -0.5301 0.1965
vn 0.8993 -0.3603 0.2480
vn -0.0000 -0.9988 0.0494
vn 0.0000 0.9988 0.0494
vn 0.8149 0.5654 0.1277
vn -0.9636 0.2279 0.1398
vn 0.0000 1.0000 -0.0005
vn -0.9367 -0.2765 0.2151
vn 0.0000 -0.0002 -1.0000
vn -0.9367 0.2765 0.2151
vn -0.3360 -0.5038 0.7958
vn -0.2368 -0.6029 0.7618
vn -0.0767 0.1381 0.9874
vn 0.0744 0.1295 0.9888
vn -0.8985 -0.3859 0.2093
vn -0.8985 0.3859 0.2093
vn 0.7972 0.5890 0.1324
vn 0.7985 0.5900 0.1195
vn 0.8027 0.5828 0.1265
vn 0.7927 0.5966 0.1254
vn 0.7972 -0.5890 0.1326
vn 0.7986 -0.5900 0.1193
vn 0.8029 -0.5825 0.1265
vn 0.7924 -0.5969 0.1254
vn 0.7979 0.5895 0.1260
vn 0.7979 -0.5895 0.1260
vn -0.0000 0.0003 1.0000
vn 0.0000 0.9987 -0.0502
vn -0.0000 -0.0002 1.0000
vn 0.0000 0.0004 -1.0000
vn -0.0000 -0.9988 -0.0499
vn 0.0000 -1.0000 -0.0008
vn 0.8047 -0.4233 0.4163
vn 0.0693 -0.9936 0.0895
vn 0.6567 0.7033 0.2722
vn 0.0000 1.0000 -0.0007
vn -0.0135 0.9813 0.1919
vn -0.0158 -0.9755 0.2196
vn -0.0000 0.0029 1.0000
vn -0.9660 0.2103 0.1501
vn -0.9660 -0.2103 0.1501
vn 0.0339 -0.9869 -0.1580
vn -0.0152 -0.9959 0.0887
vn -0.0104 0.9933 0.1152
vn 0.0339 -0.9870 -0.1571
vn -0.9612 0.2235 0.1618
vn -0.9583 -0.2310 0.1681
vn 0.7921 0.5146 0.3283
vn 0.7121 0.6486 0.2689
vn 0.6893 0.6369 0.3452
vn 0.6534 0.6974 0.2944
vn 0.7176 0.6426 0.2685
vn 0.6944 0.6302 0.3473
vn 0.7554 -0.5126 0.4081
vn 0.7869 -0.4352 0.4374
vn 0.8026 -0.4403 0.4025
vn 0.8139 -0.3949 0.4261
vn 0.7826 -0.4431 0.4372
vn 0.7983 -0.4496 0.4006
vn 0.6371 0.7138 0.2909
vn 0.8061 -0.4132 0.4236
vn 0.7763 -0.4751 0.4143
vn 0.6996 0.6450 0.3075
vn -0.0000 0.0087 -1.0000
vn 0.0000 1.0000 -0.0002
vn 0.0000 0.9864 -0.1643
vn 0.0000 0.9865 -0.1640
vn -0.0000 0.0026 1.0000
vn -0.0000 -1.0000 0.0006
vn -0.0002 0.0108 -0.9999
vn -0.0000 -1.0000 0.0003
vn -0.0865 -0.0962 -0.9916
vn 0.0000 0.1867 -0.9824
vn -0.9660 0.2106 0.1501
vn -0.9660 -0.2106 0.1501
vn -0.0000 0.6283 -0.7780
vn 0.9770 0.2131 0.0000
vn 0.9770 -0.2131 0.0000
vn -0.6683 -0.7439 0.0000
vn -0.9318 0.3630 0.0000
vn -0.0000 -0.6085 -0.7935
vn -0.0000 -1.0000 0.0000
vn -0.0000 1.0000 0.0000
vn 0.3231 -0.0001 -0.9464
vn -0.1414 0.0000 -0.9899
vn 0.4179 -0.0000 -0.9085
vn 0.3231 -0.0000 -0.9464
vn -0.5173 -0.4280 -0.7411
vn -0.5333 0.4340 -0.7261
vn -0.3418 -0.0000 -0.9398
vn -0.0159 -0.1783 -0.9838
vn -0.3418 -0.0001 -0.9398
vn -0.1424 0.0000 -0.9898
vn 0.0004 0.1866 -0.9824
vn -0.1554 -0.0126 -0.9878
vn 0.2451 0.0535 -0.9680
vn 0.2443 -0.0533 -0.9682
vn -0.0000 -0.1747 -0.9846
vn -0.0857 0.0334 -0.9958
vn 0.6191 0.7124 0.3304
vn 0.6040 0.6239 0.4959
vn -0.2100 0.9065 -0.3662
vn 0.0000 0.9661 0.2584
vn -0.1566 0.9199 -0.3594
vn 0.1833 0.7911 0.5835
vn 0.1463 0.8076 0.5713
vn 0.5816 0.8107 -0.0668
vn 0.7820 0.6108 0.1242
vn 0.0000 0.0000 1.0000
vn 0.7816 -0.6113 0.1244
vn -0.3633 0.0567 0.9299
vn -0.3314 0.0719 0.9408
vn -0.0850 0.2768 0.9572
vn 0.4393 -0.8133 0.3815
vn 0.6279 -0.7590 0.1721
vn 0.8705 -0.4343 -0.2317
vn 0.6447 -0.7213 0.2530
vn 0.7956 -0.4718 0.3800
vn 0.5059 0.0000 0.8626
vn 0.8118 -0.3857 0.4384
vn -0.3043 -0.8909 -0.3371
vn 0.0000 -0.9258 0.3780
vn 0.0000 -0.9532 0.3023
vn 0.3155 -0.7912 0.5239
vn -0.0748 -0.7845 0.6156
vn 0.2745 -0.7879 0.5512
vn -0.3543 -0.8884 -0.2919
vn 0.0866 -0.9081 -0.4096
usemtl Material.003
s off
f 1/1/1 3/2/1 2/3/1
f 4/4/2 7/5/2 6/6/2 5/7/2
f 8/8/3 11/9/3 10/10/3 9/11/3
f 9/11/4 10/10/4 13/12/4 12/13/4
f 14/14/5 16/15/5 15/16/5
f 19/17/6 22/18/6 21/19/6 20/20/6
f 23/21/7 26/22/7 25/23/7 24/24/7
f 27/25/8 29/26/8 28/27/8
f 30/28/9 31/29/9 7/30/9 4/31/9
f 14/14/10 15/16/10 11/32/10 8/33/10
f 23/21/11 32/34/11 22/18/11 26/22/11
f 33/35/12 36/36/12 35/37/12 34/38/12
f 24/39/13 25/40/13 36/36/13 33/35/13
f 20/41/14 21/42/14 35/37/14 37/43/14
f 38/44/15 41/45/15 40/46/15 39/47/15
f 42/48/12 33/35/12 34/38/12 5/7/12
f 43/49/11 30/28/11 32/34/11 23/21/11
f 22/18/16 32/34/16 44/50/16 21/19/16
f 39/47/17 40/46/17 46/51/17 45/52/17
f 21/42/18 44/53/18 34/38/18 35/37/18
f 28/27/19 2/3/19 27/25/19
f 28/27/20 1/1/20 2/3/20
f 1/1/21 48/54/21 47/55/21 3/2/21
f 49/56/22 47/55/22 48/54/22
f 32/34/23 30/28/23 4/31/23 44/50/23
f 44/53/24 4/4/24 5/7/24 34/38/24
f 50/57/25 33/35/25 42/48/25 45/58/25
f 39/59/26 51/60/26 24/39/26 38/61/26
f 38/61/27 24/39/27 33/35/27 50/57/27
f 45/58/28 42/48/28 51/60/28 39/59/28
f 52/62/29 43/49/29 23/21/29 53/63/29
f 54/64/30 24/24/30 51/65/30 55/66/30
f 53/63/31 23/21/31 24/24/31 54/64/31
f 55/66/32 51/65/32 43/49/32 52/62/32
f 40/46/33 41/67/33 56/68/33 46/51/33
f 57/69/34 60/70/34 59/71/34 58/72/34
f 54/73/35 59/74/35 60/75/35 53/76/35
f 53/77/36 60/78/36 57/69/36 52/79/36
f 50/80/37 56/81/37 41/45/37 38/44/37
f 52/79/38 57/69/38 58/72/38 55/82/38
f 45/52/39 46/51/39 56/83/39 50/84/39
f 55/82/40 58/72/40 59/74/40 54/73/40
f 61/85/41 64/86/41 63/87/41 62/88/41
f 61/85/42 65/89/42 64/86/42
f 66/90/4 68/91/4 67/92/4
f 62/93/43 63/94/43 68/91/43 66/90/43
f 69/95/44 72/96/44 71/97/44 70/98/44
f 73/99/45 66/90/45 67/92/45 37/43/45
f 74/100/46 19/17/46 75/101/46 61/85/46
f 76/102/47 79/103/47 78/104/47 77/105/47
f 80/106/48 83/107/48 82/108/48 81/109/48
f 84/110/49 85/111/49 83/112/49 80/113/49
f 86/114/50 89/115/50 88/116/50 87/117/50
f 26/22/51 22/18/51 19/17/51 74/100/51
f 36/36/52 73/99/52 37/43/52 35/37/52
f 90/118/53 91/119/53 89/115/53 86/114/53
f 83/107/54 20/41/54 37/43/54 82/108/54
f 85/111/55 19/17/55 20/20/55 83/112/55
f 90/120/56 36/36/56 25/40/56 70/121/56
f 87/122/57 66/90/57 73/99/57 86/123/57
f 69/124/58 93/125/58 62/93/58 92/126/58
f 92/126/59 62/93/59 66/90/59 87/122/59
f 86/123/60 73/99/60 36/36/60 90/120/60
f 70/121/61 25/40/61 93/125/61 69/124/61
f 94/127/62 25/23/62 26/22/62 95/128/62
f 96/129/63 74/100/63 61/85/63 77/130/63
f 76/131/64 62/88/64 93/132/64 97/133/64
f 77/130/65 61/85/65 62/88/65 76/131/65
f 95/128/66 26/22/66 74/100/66 96/129/66
f 97/133/67 93/132/67 25/23/67 94/127/67
f 72/134/68 98/135/68 88/136/68 89/137/68
f 99/138/69 78/139/69 79/140/69 100/141/69
f 101/142/70 99/138/70 100/141/70 102/143/70
f 71/97/71 72/134/71 89/137/71 91/119/71
f 95/144/72 101/142/72 102/143/72 94/145/72
f 92/146/73 98/147/73 72/96/73 69/95/73
f 96/148/74 99/149/74 101/142/74 95/144/74
f 77/150/75 78/151/75 99/149/75 96/148/75
f 87/152/76 88/153/76 98/147/76 92/146/76
f 94/145/77 102/143/77 100/154/77 97/155/77
f 70/98/78 71/97/78 91/119/78 90/118/78
f 97/155/79 100/154/79 79/103/79 76/102/79
f 103/156/80 105/157/80 104/158/80
f 106/159/81 107/160/81 105/157/81
f 108/161/82 109/162/82 80/106/82 81/109/82
f 110/163/83 84/110/83 80/113/83 109/164/83
f 111/165/84 113/166/84 112/167/84
f 114/168/85 116/169/85 113/166/85 115/170/85
f 117/171/86 118/172/86 116/169/86 114/168/86
f 119/173/87 103/156/87 104/158/87 120/174/87
f 108/161/4 81/109/4 121/175/4
f 124/176/88 106/159/88 103/156/88 119/177/88
f 112/167/89 118/172/89 125/178/89
f 120/174/90 104/158/90 126/179/90
f 125/178/90 118/172/90 117/171/90 128/180/90 127/181/90
f 115/170/91 113/166/91 111/165/91 130/182/91 129/183/91
f 107/160/91 106/159/91 124/176/91 131/184/91
f 18/185/5 84/110/5 132/186/5
f 18/187/92 132/188/92 111/165/92
f 122/189/93 127/181/93 128/180/93 121/190/93
f 133/191/93 134/192/93 129/183/93 130/182/93
f 134/192/94 110/193/94 115/170/94 129/183/94
f 132/188/95 133/191/95 130/182/95 111/165/95
f 12/194/95 125/178/95 123/195/95
f 125/178/95 127/181/95 122/189/95 123/195/95
f 112/167/96 125/178/96 135/196/96
f 110/193/94 109/197/94 114/168/94 115/170/94
f 135/196/97 111/165/97 112/167/97
f 108/198/94 117/171/94 114/168/94 109/197/94
f 121/190/94 128/180/94 117/171/94 108/198/94
f 10/199/98 120/174/98 126/179/98 13/200/98
f 131/184/98 16/201/98 17/202/98 107/160/98
f 126/179/98 12/194/98 13/200/98
f 105/157/99 135/196/99 126/179/99
f 17/202/100 18/187/100 107/160/100
f 124/176/101 15/203/101 16/201/101 131/184/101
f 135/196/102 105/157/102 107/160/102
f 11/204/101 15/203/101 124/176/101 119/177/101
f 119/173/103 120/174/103 10/199/103 11/205/103
f 113/166/104 116/169/104 112/167/104
f 118/172/105 112/167/105 116/169/105
f 105/157/106 126/179/106 104/158/106
f 105/157/107 103/156/107 106/159/107
f 125/178/95 12/194/95 135/196/95
f 107/160/98 18/187/98 135/196/98
f 135/196/98 12/194/98 126/179/98
f 111/165/95 135/196/95 18/187/95
f 63/206/108 8/8/108 9/11/108 136/207/108
f 136/208/109 137/209/109 63/210/109
f 67/211/110 138/212/110 37/213/110
f 139/214/111 82/108/111 37/43/111
f 68/215/112 137/209/112 138/212/112 67/211/112
f 136/207/4 9/11/4 12/13/4 139/214/4
f 138/212/113 139/216/113 37/213/113
f 137/209/114 136/208/114 139/216/114 138/212/114
f 137/209/115 68/215/115 63/210/115
f 47/217/12 42/48/12 3/218/12
f 49/219/116 51/60/116 42/48/116 47/217/116
f 140/220/117 7/221/117 31/222/117
f 6/223/117 7/221/117 140/220/117
f 31/29/11 30/28/11 142/224/11 141/225/11
f 48/226/118 43/49/118 51/65/118 49/227/118
f 29/26/119 144/228/119 143/229/119
f 144/228/120 145/230/120 143/229/120
f 144/228/121 29/26/121 27/25/121
f 146/231/122 147/232/122 145/230/122
f 145/230/123 144/228/123 146/231/123
f 142/233/124 147/232/124 141/234/124
f 147/232/125 142/233/125 145/230/125
f 141/234/126 147/232/126 31/222/126
f 147/232/127 140/220/127 31/222/127
f 140/220/127 147/232/127 6/223/127
f 30/28/11 43/49/11 1/235/11 28/236/11
f 43/49/11 48/226/11 1/235/11
f 30/28/11 28/236/11 29/237/11
f 30/28/11 145/238/11 142/224/11
f 145/238/11 30/28/11 29/237/11 143/239/11
f 5/7/12 6/6/12 147/240/12
f 147/240/12 146/241/12 5/7/12
f 5/7/12 146/241/12 144/242/12
f 144/242/12 27/243/12 5/7/12
f 42/48/12 27/243/12 2/244/12 3/218/12
f 27/243/12 42/48/12 5/7/12
f 64/86/128 14/14/128 8/33/128 63/87/128
f 75/245/129 149/246/129 148/247/129 65/248/129
f 150/249/5 85/111/5 84/110/5 18/185/5
f 18/250/130 14/14/130 64/86/130
f 19/17/131 85/111/131 150/249/131
f 150/251/132 149/246/132 19/252/132
f 18/253/133 64/254/133 148/247/133
f 65/89/5 61/85/5 75/101/5
f 149/246/134 150/251/134 18/253/134 148/247/134
f 149/246/135 75/245/135 19/252/135
f 64/254/136 65/248/136 148/247/136
f 84/110/5 110/163/5 134/255/5
f 84/110/5 134/255/5 133/256/5
f 16/15/5 14/14/5 18/250/5 17/257/5
f 84/110/5 133/256/5 132/186/5
f 12/13/4 81/109/4 82/108/4 139/214/4
f 81/109/4 122/258/4 121/175/4
f 122/258/4 81/109/4 12/13/4 123/259/4
